<svg width="115" height="29" viewBox="0 0 115 29" fill="none" xmlns="http://www.w3.org/2000/svg">
<path d="M57.5166 15.8856C55.1907 15.8856 53.295 17.6746 53.295 20.1386C53.295 22.5876 55.1907 24.3916 57.5166 24.3916C59.8434 24.3916 61.7391 22.5876 61.7391 20.1386C61.7382 17.6746 59.8425 15.8856 57.5166 15.8856ZM57.5166 22.7176C56.2419 22.7176 55.1433 21.6546 55.1433 20.1396C55.1433 18.6086 56.2429 17.5616 57.5166 17.5616C58.7913 17.5616 59.8899 18.6086 59.8899 20.1396C59.8899 21.6536 58.7913 22.7176 57.5166 22.7176ZM48.3061 15.8856C45.9802 15.8856 44.0845 17.6746 44.0845 20.1386C44.0845 22.5876 45.9802 24.3916 48.3061 24.3916C50.6329 24.3916 52.5286 22.5876 52.5286 20.1386C52.5286 17.6746 50.6329 15.8856 48.3061 15.8856ZM48.3061 22.7176C47.0314 22.7176 45.9327 21.6546 45.9327 20.1396C45.9327 18.6086 47.0324 17.5616 48.3061 17.5616C49.5808 17.5616 50.6794 18.6086 50.6794 20.1396C50.6804 21.6536 49.5808 22.7176 48.3061 22.7176ZM37.3512 17.1916V18.9956H41.6212C41.4936 20.0106 41.1594 20.7516 40.6491 21.2666C40.0281 21.8946 39.056 22.5876 37.3512 22.5876C34.7227 22.5876 32.6678 20.4446 32.6678 17.7866C32.6678 15.1286 34.7227 12.9856 37.3512 12.9856C38.7692 12.9856 39.8046 13.5496 40.569 14.2746L41.8279 13.0016C40.7599 11.9706 39.3428 11.1816 37.3512 11.1816C33.7506 11.1816 30.7236 14.1456 30.7236 17.7866C30.7236 21.4276 33.7506 24.3916 37.3512 24.3916C39.2943 24.3916 40.7609 23.7466 41.907 22.5386C43.0857 21.3466 43.4526 19.6706 43.4526 18.3176C43.4526 17.8996 43.421 17.5126 43.3567 17.1906H37.3512V17.1916ZM82.1557 18.5926C81.8057 17.6426 80.7377 15.8856 78.5552 15.8856C76.3885 15.8856 74.5878 17.6096 74.5878 20.1386C74.5878 22.5226 76.3727 24.3916 78.7619 24.3916C80.6892 24.3916 81.8047 23.1996 82.2675 22.5066L80.8336 21.5396C80.356 22.2486 79.7023 22.7156 78.7619 22.7156C77.8224 22.7156 77.153 22.2806 76.7228 21.4266L82.3466 19.0746L82.1557 18.5926ZM76.4202 20.0106C76.3727 18.3666 77.679 17.5296 78.6195 17.5296C79.3522 17.5296 79.9733 17.9006 80.1809 18.4316L76.4202 20.0106ZM71.8486 24.1346H73.6958V11.6336H71.8486V24.1346ZM68.8206 16.8366H68.7573C68.3429 16.3366 67.5459 15.8856 66.5432 15.8856C64.4398 15.8856 62.5125 17.7546 62.5125 20.1556C62.5125 22.5396 64.4398 24.3926 66.5432 24.3926C67.5469 24.3926 68.3429 23.9416 68.7573 23.4266H68.8206V24.0386C68.8206 25.6656 67.9602 26.5356 66.5748 26.5356C65.4435 26.5356 64.7424 25.7146 64.4556 25.0216L62.8467 25.6986C63.3085 26.8256 64.5347 28.2116 66.5748 28.2116C68.7415 28.2116 70.5739 26.9226 70.5739 23.7806V16.1446H68.8216V16.8366H68.8206ZM66.7024 22.7176C65.4277 22.7176 64.3607 21.6376 64.3607 20.1556C64.3607 18.6566 65.4277 17.5616 66.7024 17.5616C67.9602 17.5616 68.9481 18.6566 68.9481 20.1556C68.9481 21.6376 67.9602 22.7176 66.7024 22.7176ZM90.8125 11.6336H86.3912V24.1346H88.2354V19.3986H90.8115C92.8565 19.3986 94.8679 17.9016 94.8679 15.5166C94.8679 13.1316 92.8575 11.6336 90.8125 11.6336ZM90.8599 17.6586H88.2354V13.3736H90.8599C92.2394 13.3736 93.0226 14.5286 93.0226 15.5166C93.0226 16.4846 92.2394 17.6586 90.8599 17.6586ZM102.264 15.8636C100.928 15.8636 99.5444 16.4586 98.9718 17.7776L100.609 18.4686C100.959 17.7776 101.612 17.5516 102.295 17.5516C103.25 17.5516 104.22 18.1306 104.236 19.1596V19.2886C103.901 19.0956 103.185 18.8066 102.311 18.8066C100.546 18.8066 98.7483 19.7876 98.7483 21.6206C98.7483 23.2936 100.196 24.3706 101.818 24.3706C103.058 24.3706 103.742 23.8076 104.171 23.1476H104.235V24.1126H106.017V19.3196C106.018 17.1016 104.378 15.8636 102.264 15.8636ZM102.04 22.7146C101.437 22.7146 100.594 22.4086 100.594 21.6526C100.594 20.6876 101.644 20.3176 102.551 20.3176C103.36 20.3176 103.743 20.4946 104.236 20.7356C104.092 21.8946 103.106 22.7146 102.04 22.7146ZM112.506 16.1366L110.391 21.5566H110.327L108.132 16.1366H106.144L109.436 23.7116L107.559 27.9256H109.484L114.558 16.1366H112.506ZM95.8865 24.1346H97.7307V11.6336H95.8865V24.1346Z" fill="#6C86AD"/>
<path d="M37.0289 4.37795C37.0289 5.21595 36.7836 5.88295 36.2922 6.38095C35.7344 6.97295 35.0066 7.26895 34.1126 7.26895C33.2563 7.26895 32.5275 6.96895 31.9292 6.36895C31.3299 5.76795 31.0303 5.02395 31.0303 4.13595C31.0303 3.24695 31.3299 2.50295 31.9292 1.90295C32.5275 1.30195 33.2563 1.00195 34.1126 1.00195C34.5379 1.00195 34.9443 1.08595 35.33 1.25295C35.7166 1.42095 36.0261 1.64395 36.2575 1.92295L35.7364 2.45095C35.3438 1.97595 34.8029 1.73895 34.1116 1.73895C33.4867 1.73895 32.9467 1.96095 32.4909 2.40495C32.035 2.84895 31.8075 3.42595 31.8075 4.13495C31.8075 4.84395 32.035 5.42095 32.4909 5.86495C32.9467 6.30895 33.4867 6.53095 34.1116 6.53095C34.7742 6.53095 35.327 6.30795 35.769 5.86095C36.0558 5.56995 36.2219 5.16495 36.2664 4.64595H34.1116V3.92495H36.9864C37.016 4.08195 37.0289 4.23295 37.0289 4.37795Z" fill="#6C86AD"/>
<path d="M41.5877 1.87201H38.8861V3.77401H41.3227V4.49501H38.8861V6.39701H41.5877V7.13501H38.1237V1.13501H41.5877V1.87201Z" fill="#6C86AD"/>
<path d="M44.8025 7.13501H44.0401V1.87201H42.3827V1.13501H46.4599V1.87201H44.8025V7.13501Z" fill="#6C86AD"/>
<path d="M49.4097 7.13501V1.13501H50.1721V7.13501H49.4097Z" fill="#6C86AD"/>
<path d="M53.5533 7.13501H52.7909V1.87201H51.1335V1.13501H55.2107V1.87201H53.5533V7.13501Z" fill="#6C86AD"/>
<path d="M62.9287 6.36C62.3453 6.966 61.6204 7.269 60.7532 7.269C59.8859 7.269 59.1611 6.966 58.5786 6.36C57.9952 5.754 57.7044 5.012 57.7044 4.135C57.7044 3.258 57.9952 2.516 58.5786 1.91C59.1611 1.304 59.8859 1 60.7532 1C61.6155 1 62.3394 1.305 62.9248 1.914C63.5102 2.523 63.8029 3.263 63.8029 4.135C63.8029 5.012 63.5112 5.754 62.9287 6.36ZM59.1413 5.857C59.5804 6.307 60.1173 6.531 60.7532 6.531C61.389 6.531 61.927 6.306 62.3651 5.857C62.8041 5.407 63.0247 4.833 63.0247 4.135C63.0247 3.437 62.8041 2.863 62.3651 2.413C61.927 1.963 61.389 1.739 60.7532 1.739C60.1173 1.739 59.5804 1.964 59.1413 2.413C58.7032 2.863 58.4827 3.437 58.4827 4.135C58.4827 4.833 58.7032 5.407 59.1413 5.857Z" fill="#6C86AD"/>
<path d="M64.8729 7.13501V1.13501H65.8005L68.6841 5.80201H68.7167L68.6841 4.64601V1.13501H69.4465V7.13501H68.6505L65.6334 2.24101H65.6007L65.6334 3.39701V7.13501H64.8729Z" fill="#6C86AD"/>
<path d="M37.0289 4.37795C37.0289 5.21595 36.7836 5.88295 36.2922 6.38095C35.7344 6.97295 35.0066 7.26895 34.1126 7.26895C33.2563 7.26895 32.5275 6.96895 31.9292 6.36895C31.3299 5.76795 31.0303 5.02395 31.0303 4.13595C31.0303 3.24695 31.3299 2.50295 31.9292 1.90295C32.5275 1.30195 33.2563 1.00195 34.1126 1.00195C34.5379 1.00195 34.9443 1.08595 35.33 1.25295C35.7166 1.42095 36.0261 1.64395 36.2575 1.92295L35.7364 2.45095C35.3438 1.97595 34.8029 1.73895 34.1116 1.73895C33.4867 1.73895 32.9467 1.96095 32.4909 2.40495C32.035 2.84895 31.8075 3.42595 31.8075 4.13495C31.8075 4.84395 32.035 5.42095 32.4909 5.86495C32.9467 6.30895 33.4867 6.53095 34.1116 6.53095C34.7742 6.53095 35.327 6.30795 35.769 5.86095C36.0558 5.56995 36.2219 5.16495 36.2664 4.64595H34.1116V3.92495H36.9864C37.016 4.08195 37.0289 4.23295 37.0289 4.37795Z" stroke="#6C86AD" stroke-width="0.2" stroke-miterlimit="10"/>
<path d="M41.5877 1.87201H38.8861V3.77401H41.3227V4.49501H38.8861V6.39701H41.5877V7.13501H38.1237V1.13501H41.5877V1.87201Z" stroke="#6C86AD" stroke-width="0.2" stroke-miterlimit="10"/>
<path d="M44.8025 7.13501H44.0401V1.87201H42.3827V1.13501H46.4599V1.87201H44.8025V7.13501Z" stroke="#6C86AD" stroke-width="0.2" stroke-miterlimit="10"/>
<path d="M49.4097 7.13501V1.13501H50.1721V7.13501H49.4097Z" stroke="#6C86AD" stroke-width="0.2" stroke-miterlimit="10"/>
<path d="M53.5533 7.13501H52.7909V1.87201H51.1335V1.13501H55.2107V1.87201H53.5533V7.13501Z" stroke="#6C86AD" stroke-width="0.2" stroke-miterlimit="10"/>
<path d="M62.9287 6.36C62.3453 6.966 61.6204 7.269 60.7532 7.269C59.8859 7.269 59.1611 6.966 58.5786 6.36C57.9952 5.754 57.7044 5.012 57.7044 4.135C57.7044 3.258 57.9952 2.516 58.5786 1.91C59.1611 1.304 59.8859 1 60.7532 1C61.6155 1 62.3394 1.305 62.9248 1.914C63.5102 2.523 63.8029 3.263 63.8029 4.135C63.8029 5.012 63.5112 5.754 62.9287 6.36ZM59.1413 5.857C59.5804 6.307 60.1173 6.531 60.7532 6.531C61.389 6.531 61.927 6.306 62.3651 5.857C62.8041 5.407 63.0247 4.833 63.0247 4.135C63.0247 3.437 62.8041 2.863 62.3651 2.413C61.927 1.963 61.389 1.739 60.7532 1.739C60.1173 1.739 59.5804 1.964 59.1413 2.413C58.7032 2.863 58.4827 3.437 58.4827 4.135C58.4827 4.833 58.7032 5.407 59.1413 5.857Z" stroke="#6C86AD" stroke-width="0.2" stroke-miterlimit="10"/>
<path d="M64.8729 7.13501V1.13501H65.8005L68.6841 5.80201H68.7167L68.6841 4.64601V1.13501H69.4465V7.13501H68.6505L65.6334 2.24101H65.6007L65.6334 3.39701V7.13501H64.8729Z" stroke="#6C86AD" stroke-width="0.2" stroke-miterlimit="10"/>
<path fill-rule="evenodd" clip-rule="evenodd" d="M0.180123 2.10419C0.0640811 2.37118 0 2.698 0 3.07795V25.1939C0 25.5747 0.0641597 25.9016 0.180337 26.1685L12.0778 14.1356L0.180123 2.10419ZM0.871586 26.8916C1.31232 27.0811 1.88663 27.02 2.51276 26.661L16.5101 18.6176L12.781 14.8467L0.871586 26.8916ZM17.4075 18.103L21.7971 15.581C23.1786 14.786 23.1786 13.487 21.7971 12.693L17.4055 10.1695L13.4841 14.1355L17.4075 18.103ZM16.5087 9.65421L2.51276 1.61195C1.88659 1.25213 1.31225 1.19147 0.871502 1.38116L12.781 13.4244L16.5087 9.65421Z" fill="#6C86AD"/>
</svg>
