<svg width="111" height="26" viewBox="0 0 111 26" fill="none" xmlns="http://www.w3.org/2000/svg">
<path d="M79.6042 10.7848V13.0759H78.0066V14.5783H79.6042V19.6833C79.6042 21.4264 80.4815 22.1237 82.6885 22.1237C83.0764 22.1237 83.4458 22.0822 83.769 22.0324V20.5466C83.4919 20.5715 83.3165 20.5881 83.0117 20.5881C82.0236 20.5881 81.5896 20.173 81.5896 19.2267V14.5783H83.769V13.0759H81.5896V10.7848H79.6042Z" fill="#6C86AD"/>
<path d="M89.3914 22.2482C92.328 22.2482 94.1287 20.4802 94.1287 17.55C94.1287 14.6364 92.3188 12.86 89.3914 12.86C86.4548 12.86 84.6448 14.6364 84.6448 17.55C84.6448 20.4802 86.4455 22.2482 89.3914 22.2482ZM89.3914 20.6628C87.6645 20.6628 86.6949 19.5256 86.6949 17.55C86.6949 15.591 87.6645 14.4455 89.3914 14.4455C91.109 14.4455 92.0879 15.591 92.0879 17.55C92.0879 19.5173 91.109 20.6628 89.3914 20.6628Z" fill="#6C86AD"/>
<path d="M95.6694 22.0739H97.6549V16.7365C97.6549 15.4665 98.7169 14.6115 100.222 14.6115C100.573 14.6115 101.164 14.6696 101.33 14.7194V12.9596C101.118 12.9098 100.739 12.8849 100.444 12.8849C99.1324 12.8849 98.015 13.5324 97.7288 14.4206H97.581V13.0344H95.6694V22.0739Z" fill="#6C86AD"/>
<path d="M106.26 14.3791C107.728 14.3791 108.689 15.3005 108.735 16.7199H103.656C103.767 15.3088 104.792 14.3791 106.26 14.3791ZM108.726 19.6335C108.356 20.339 107.534 20.7292 106.334 20.7292C104.746 20.7292 103.721 19.7248 103.656 18.1393V18.0397H110.757V17.4172C110.757 14.5783 109.067 12.86 106.269 12.86C103.434 12.86 101.634 14.6945 101.634 17.5832C101.634 20.4719 103.397 22.2482 106.279 22.2482C108.578 22.2482 110.185 21.2521 110.637 19.6335H108.726Z" fill="#6C86AD"/>
<path d="M66.5839 18.7357C66.7371 20.9554 68.7949 22.375 71.8578 22.375C75.1312 22.375 77.1795 20.8866 77.1795 18.5121C77.1795 16.6451 76.0118 15.6127 73.1786 15.019L71.6568 14.6835C69.8574 14.3049 69.1299 13.7973 69.1299 12.9112C69.1299 11.7927 70.2594 11.0614 71.9535 11.0614C73.5615 11.0614 74.6718 11.7755 74.8728 12.9198H76.9593C76.8349 10.8291 74.7866 9.35791 71.9822 9.35791C68.9672 9.35791 66.9572 10.8291 66.9572 13.0402C66.9572 14.8642 68.0962 15.9482 70.5944 16.473L72.3746 16.8602C74.2028 17.2473 75.0068 17.8152 75.0068 18.7616C75.0068 19.8628 73.7433 20.6629 72.0205 20.6629C70.1732 20.6629 68.8906 19.9144 68.7088 18.7357H66.5839Z" fill="#6C86AD"/>
<path d="M46.0168 12.8849C44.6501 12.8849 43.468 13.4992 42.8585 14.5285H42.7108V13.0344H40.7992V25.0788H42.7847V20.7043H42.9416C43.468 21.6589 44.6039 22.2233 46.0352 22.2233C48.5748 22.2233 50.1908 20.4221 50.1908 17.55C50.1908 14.6779 48.5748 12.8849 46.0168 12.8849ZM45.4535 20.6213C43.7912 20.6213 42.7477 19.4426 42.7477 17.5583C42.7477 15.6657 43.7912 14.487 45.4627 14.487C47.1434 14.487 48.15 15.6408 48.15 17.55C48.15 19.4675 47.1434 20.6213 45.4535 20.6213Z" fill="#6C86AD"/>
<path d="M57.1382 12.8849C55.7715 12.8849 54.5895 13.4992 53.98 14.5285H53.8322V13.0344H51.9207V25.0788H53.9061V20.7043H54.0631C54.5895 21.6589 55.7253 22.2233 57.1567 22.2233C59.6962 22.2233 61.3123 20.4221 61.3123 17.55C61.3123 14.6779 59.6962 12.8849 57.1382 12.8849ZM56.5749 20.6213C54.9127 20.6213 53.8692 19.4426 53.8692 17.5583C53.8692 15.6657 54.9127 14.487 56.5841 14.487C58.2648 14.487 59.2714 15.6408 59.2714 17.55C59.2714 19.4675 58.2648 20.6213 56.5749 20.6213Z" fill="#6C86AD"/>
<path d="M37.237 22.0739H39.515L34.5283 9.65903H32.2216L27.2349 22.0739H29.4363L30.7093 18.7788H35.9736L37.237 22.0739ZM33.2649 11.9132H33.4276L35.428 17.1613H31.2549L33.2649 11.9132Z" fill="#6C86AD"/>
<path d="M28.5688 0.294678V6.28369H30.9745C32.9599 6.28369 34.1096 5.18384 34.1096 3.27051C34.1096 1.38623 32.9507 0.294678 30.9745 0.294678H28.5688ZM29.6031 1.14136H30.859C32.2396 1.14136 33.0569 1.92993 33.0569 3.28296C33.0569 4.65674 32.2535 5.43701 30.859 5.43701H29.6031V1.14136Z" fill="#6C86AD"/>
<path d="M37.6308 6.37085C39.0991 6.37085 39.9995 5.48682 39.9995 4.02173C39.9995 2.56494 39.0945 1.67676 37.6308 1.67676C36.1625 1.67676 35.2575 2.56494 35.2575 4.02173C35.2575 5.48682 36.1579 6.37085 37.6308 6.37085ZM37.6308 5.57812C36.7673 5.57812 36.2825 5.00952 36.2825 4.02173C36.2825 3.04224 36.7673 2.46948 37.6308 2.46948C38.4896 2.46948 38.979 3.04224 38.979 4.02173C38.979 5.00537 38.4896 5.57812 37.6308 5.57812Z" fill="#6C86AD"/>
<path d="M47.667 1.76392H46.6742L45.7785 5.21289H45.7L44.6657 1.76392H43.7145L42.6803 5.21289H42.6064L41.706 1.76392H40.6994L42.0846 6.28369H43.1051L44.1393 2.95508H44.2178L45.2567 6.28369H46.2864L47.667 1.76392Z" fill="#6C86AD"/>
<path d="M48.8102 6.28369H49.8029V3.63989C49.8029 2.93433 50.2693 2.49438 51.0034 2.49438C51.7376 2.49438 52.0885 2.85547 52.0885 3.58179V6.28369H53.0812V3.35767C53.0812 2.28271 52.4625 1.67676 51.3405 1.67676C50.5833 1.67676 50.0846 1.97974 49.8399 2.48193H49.766V1.76392H48.8102V6.28369Z" fill="#6C86AD"/>
<path d="M54.6446 6.28369H55.6374V0H54.6446V6.28369Z" fill="#6C86AD"/>
<path d="M59.3709 6.37085C60.8392 6.37085 61.7396 5.48682 61.7396 4.02173C61.7396 2.56494 60.8346 1.67676 59.3709 1.67676C57.9026 1.67676 56.9976 2.56494 56.9976 4.02173C56.9976 5.48682 57.898 6.37085 59.3709 6.37085ZM59.3709 5.57812C58.5075 5.57812 58.0227 5.00952 58.0227 4.02173C58.0227 3.04224 58.5075 2.46948 59.3709 2.46948C60.2297 2.46948 60.7192 3.04224 60.7192 4.02173C60.7192 5.00537 60.2297 5.57812 59.3709 5.57812Z" fill="#6C86AD"/>
<path d="M64.6974 5.60718C64.1572 5.60718 63.7648 5.37061 63.7648 4.96387C63.7648 4.56543 64.0787 4.35376 64.7713 4.31226L65.9995 4.2417V4.61938C65.9995 5.17969 65.4454 5.60718 64.6974 5.60718ZM64.4435 6.3584C65.1038 6.3584 65.6532 6.10107 65.9534 5.64868H66.0318V6.28369H66.9876V3.1958C66.9876 2.24121 66.2766 1.67676 65.016 1.67676C63.8756 1.67676 63.0629 2.1748 62.9613 2.95093H63.9217C64.0326 2.63135 64.4158 2.44873 64.9699 2.44873C65.6486 2.44873 65.9995 2.71851 65.9995 3.1958V3.58594L64.6374 3.65649C63.4415 3.7229 62.7674 4.19189 62.7674 5.00537C62.7674 5.8313 63.4739 6.3584 64.4435 6.3584Z" fill="#6C86AD"/>
<path d="M70.3564 6.3584C71.049 6.3584 71.6354 6.06372 71.9355 5.56982H72.014V6.28369H72.9652V0H71.9725V2.48193H71.8986C71.6262 1.98389 71.0444 1.68921 70.3564 1.68921C69.0867 1.68921 68.2694 2.59399 68.2694 4.02173C68.2694 5.45361 69.0774 6.3584 70.3564 6.3584ZM70.6381 2.49023C71.4692 2.49023 71.991 3.08374 71.991 4.02588C71.991 4.97217 71.4738 5.55737 70.6381 5.55737C69.7977 5.55737 69.2944 4.98047 69.2944 4.02173C69.2944 3.07129 69.8023 2.49023 70.6381 2.49023Z" fill="#6C86AD"/>
<path d="M79.4027 6.37085C80.871 6.37085 81.7713 5.48682 81.7713 4.02173C81.7713 2.56494 80.8663 1.67676 79.4027 1.67676C77.9344 1.67676 77.0294 2.56494 77.0294 4.02173C77.0294 5.48682 77.9297 6.37085 79.4027 6.37085ZM79.4027 5.57812C78.5392 5.57812 78.0544 5.00952 78.0544 4.02173C78.0544 3.04224 78.5392 2.46948 79.4027 2.46948C80.2615 2.46948 80.7509 3.04224 80.7509 4.02173C80.7509 5.00537 80.2615 5.57812 79.4027 5.57812Z" fill="#6C86AD"/>
<path d="M83.0854 6.28369H84.0781V3.63989C84.0781 2.93433 84.5445 2.49438 85.2786 2.49438C86.0128 2.49438 86.3637 2.85547 86.3637 3.58179V6.28369H87.3564V3.35767C87.3564 2.28271 86.7377 1.67676 85.6157 1.67676C84.8585 1.67676 84.3598 1.97974 84.1151 2.48193H84.0412V1.76392H83.0854V6.28369Z" fill="#6C86AD"/>
<path d="M91.9285 0.63916V1.78467H91.1297V2.53589H91.9285V5.08838C91.9285 5.95996 92.3671 6.30859 93.4707 6.30859C93.6646 6.30859 93.8493 6.28784 94.0109 6.26294V5.52002C93.8724 5.53247 93.7847 5.54077 93.6323 5.54077C93.1382 5.54077 92.9212 5.33325 92.9212 4.86011V2.53589H94.0109V1.78467H92.9212V0.63916H91.9285Z" fill="#6C86AD"/>
<path d="M95.3435 6.28369H96.3362V3.64404C96.3362 2.95923 96.7887 2.49854 97.6013 2.49854C98.3032 2.49854 98.6772 2.86377 98.6772 3.58594V6.28369H99.6699V3.36597C99.6699 2.29102 99.0096 1.68091 97.9384 1.68091C97.1811 1.68091 96.6502 1.98389 96.4054 2.49023H96.3269V0H95.3435V6.28369Z" fill="#6C86AD"/>
<path d="M103.251 2.43628C103.985 2.43628 104.465 2.89697 104.488 3.60669H101.949C102.004 2.90112 102.517 2.43628 103.251 2.43628ZM104.484 5.06348C104.299 5.41626 103.888 5.61133 103.288 5.61133C102.494 5.61133 101.981 5.10913 101.949 4.31641V4.2666H105.5V3.95532C105.5 2.53589 104.655 1.67676 103.256 1.67676C101.838 1.67676 100.938 2.59399 100.938 4.03833C100.938 5.48267 101.82 6.37085 103.26 6.37085C104.41 6.37085 105.213 5.8728 105.44 5.06348H104.484Z" fill="#6C86AD"/>
<path d="M16.462 11.885C16.4861 10.204 17.4904 8.61345 19.0837 7.73299C18.0786 6.44267 16.395 5.62457 14.6435 5.57531C12.7754 5.39905 10.9643 6.58014 10.0123 6.58014C9.04189 6.58014 7.57617 5.59281 5.99783 5.622C3.94054 5.68174 2.02263 6.73313 1.02171 8.34986C-1.12986 11.6983 0.475018 16.6193 2.53605 19.3259C3.56722 20.6513 4.77237 22.1317 6.34928 22.0792C7.89239 22.0217 8.46871 21.1948 10.3314 21.1948C12.1767 21.1948 12.7174 22.0792 14.3264 22.0459C15.9822 22.0217 17.0254 20.7146 18.0204 19.3767C18.7613 18.4324 19.3314 17.3886 19.7097 16.2842C17.7638 15.5444 16.4643 13.7842 16.462 11.885Z" fill="#6C86AD"/>
<path d="M13.423 3.79531C14.3259 2.8211 14.7706 1.56892 14.6629 0.304688C13.2836 0.434908 12.0095 1.02747 11.0945 1.9643C10.1997 2.87963 9.7341 4.10978 9.82213 5.32569C11.2019 5.33846 12.5584 4.76196 13.423 3.79531Z" fill="#6C86AD"/>
</svg>
