<svg width="86" height="90" viewBox="0 0 86 90" fill="none" xmlns="http://www.w3.org/2000/svg">
<path d="M0 83.208C0 84.6164 4.50067 85.9678 12.513 86.9636C20.5253 87.9594 31.39 88.5142 42.7277 88.5142C54.0653 88.5142 64.93 87.9594 72.9423 86.9636C80.9547 85.9678 85.4553 84.6164 85.4553 83.208C85.4553 81.7997 80.9547 80.4483 72.9423 79.4525C64.93 78.4567 54.0653 77.9019 42.7277 77.9019C31.39 77.9019 20.5253 78.4567 12.513 79.4525C4.50067 80.4483 0 81.7997 0 83.208Z" fill="#EEF1FF"/>
<path d="M1.49023 30.4493C1.49023 31.3455 2.17823 32.0426 3.09557 32.0426C4.0129 32.0426 4.7009 31.3597 4.7009 30.4493C4.7009 29.5389 4.0129 28.856 3.09557 28.856C2.23557 28.856 1.49023 29.5958 1.49023 30.4493ZM85.9996 77.5789C83.9642 78.1053 83.5486 78.5321 83.0612 80.4952C82.5309 78.4752 82.1009 78.0626 80.1229 77.5789C82.1009 77.0526 82.5739 76.6258 83.0612 74.6627C83.5486 76.6258 83.9642 77.0953 85.9996 77.5789ZM10.4199 24.8728C7.7969 25.5557 7.26657 26.0963 6.57857 28.6853C5.89057 26.082 5.3459 25.5557 2.73723 24.8728C5.36023 24.19 5.89057 23.6068 6.57857 21.0604C7.22357 23.6637 7.81123 24.19 10.4199 24.8728ZM74.5186 15.7542C72.9132 16.181 72.5979 16.4939 72.1679 18.0872C71.7379 16.4939 71.4226 16.181 69.8172 15.7542C71.4226 15.3274 71.7379 15.0145 72.1679 13.4212C72.5406 15.0145 72.9132 15.3274 74.5186 15.7542ZM81.4129 7.58865C77.2419 8.65558 76.3962 9.5518 75.2639 13.6915C74.1889 9.5518 73.2859 8.71248 69.1149 7.58865C73.2859 6.52173 74.1316 5.62551 75.2639 1.48584C76.3389 5.56861 77.2419 6.46483 81.4129 7.58865Z" fill="#005BFF"/>
<path d="M79.0625 48.5728V48.4732C79.0625 48.3737 79.0052 48.3168 79.0052 48.203V48.1461L67.5242 18.4002C65.8615 13.3643 61.1745 9.96436 55.8282 9.96436H29.7128C24.3665 9.96436 19.6652 13.3643 18.0168 18.4002L6.53585 48.1461V48.203C6.47852 48.3025 6.47852 48.3594 6.47852 48.4732V69.8971C6.47852 76.6259 11.9825 82.0885 18.7622 82.0885H66.8362C73.6159 82.0885 79.1199 76.6259 79.1199 69.8971V48.6866C79.1199 48.6866 79.0625 48.6297 79.0625 48.5871V48.5728ZM20.9982 19.524C20.9982 19.524 20.9982 19.4671 21.0555 19.4671C22.2309 15.6546 25.7568 13.1651 29.7128 13.1651H55.7852C59.7412 13.1651 63.2672 15.6546 64.4855 19.4244C64.4855 19.4244 64.4855 19.4813 64.5429 19.4813L75.1782 47.0507H50.7685C49.8655 47.0507 49.1632 47.7335 49.1632 48.644C49.1632 52.1435 46.2822 55.0028 42.7562 55.0028C39.2302 55.0028 36.3492 52.1435 36.3492 48.644C36.3492 47.7477 35.6612 47.0507 34.7438 47.0507H10.3628L20.9982 19.5382V19.524ZM75.8519 69.8829C75.8519 74.8619 71.7955 78.902 66.7645 78.902H18.6905C13.6739 78.902 9.60318 74.8761 9.60318 69.8829V50.2657H33.2675C34.0128 54.7752 37.9688 58.2178 42.7275 58.2178C47.4862 58.2178 51.4278 54.7752 52.1875 50.2657H75.8519V69.8829Z" fill="#93BEFF"/>
<path opacity="0.25" d="M42.7273 51.3325C41.2366 51.3325 40.0613 50.166 40.0613 48.6865V43.3804H15.752L24.5096 20.6904L24.567 20.5908C25.3123 18.3574 27.3476 16.8779 29.6983 16.8779H55.7706C58.1213 16.8779 60.1566 18.3574 60.902 20.5908L60.9593 20.6904L69.717 43.3804H45.4076V48.6865C45.4076 50.166 44.2323 51.3325 42.7416 51.3325H42.7273Z" fill="#005BFF"/>
</svg>
