<svg width="32" height="32" viewBox="0 0 32 32" fill="none" xmlns="http://www.w3.org/2000/svg">
<rect width="32" height="32" fill="url(#paint0_linear_2618_62912)"/>
<path d="M13.9772 10.0951C14.3499 9.64269 14.2034 8.97137 14.2034 8.97137L13.1195 10.6316C13.1032 10.6316 13.5085 10.6479 13.9772 10.0951ZM10.2831 19.0954L10.4134 18.4358C10.4134 18.4358 9.8751 19.3912 9.82624 19.5233C9.77738 19.6717 9.85881 19.935 10.0705 19.9187C10.2831 19.9024 10.5437 19.5894 10.5437 19.3578C10.5437 19.0619 10.2831 19.0954 10.2831 19.0954Z" fill="white"/>
<path d="M20.0176 8.48824C20.0176 8.48824 20.8391 8.52171 21.6932 8.62123C19.7715 7.08861 17.9476 6.63895 16.4692 6.63895C14.4327 6.63895 13.0529 7.4885 12.9706 7.53826L13.6112 6.50596C13.6112 6.50596 11.048 6.25535 10.1451 9.00484C9.9144 8.42129 9.70179 7.57174 9.70179 7.57174C9.70179 7.57174 8.37092 8.75513 8.99519 10.7202C7.46709 10.1548 5.28215 9.37216 5.19982 9.35497C5.08492 9.33869 5.05235 9.38845 5.05235 9.38845C5.05235 9.38845 5.01887 9.43911 5.11749 9.52235C5.29844 9.67163 8.7482 12.2547 9.50365 12.7541C9.3399 13.3539 9.3399 13.6371 9.50365 13.9212C9.73436 14.3039 9.75065 14.5038 9.71808 14.787C9.6846 15.0702 9.38875 17.5193 9.32361 17.8197C9.25757 18.1192 8.56816 19.1858 8.59982 19.5025C8.6333 19.8192 9.06124 21.1681 9.43851 21.3183C9.71808 21.4178 10.4075 21.635 10.868 21.635C11.0318 21.635 11.1801 21.6015 11.2453 21.5354C11.5248 21.2848 11.6072 21.2351 11.8044 21.2351H11.8533C11.9347 21.2351 12.0342 21.2514 12.1491 21.2514C12.4115 21.2514 12.7571 21.2016 13.0032 20.9682C13.3651 20.6018 13.9893 20.1014 14.1857 19.8689C14.4327 19.5523 14.5638 19.118 14.4978 18.6855C14.4489 18.2856 14.6625 17.9355 14.9085 17.5863C15.2207 17.1701 15.7952 16.4192 15.7952 16.4192C16.9297 17.2859 17.6354 18.6023 17.6354 20.0689C17.6354 22.6673 15.4016 24.7672 12.6413 24.7672C12.2206 24.7672 11.8014 24.7168 11.3927 24.617C12.6585 25.0666 13.7261 25.2168 14.5964 25.2168C16.4529 25.2168 17.4391 24.5337 17.4391 24.5337C17.4391 24.5337 17.0935 24.9834 16.5344 25.5H16.5525C19.624 25.0666 21.1187 22.5008 21.1187 22.5008C21.1187 22.5008 21.0038 23.3341 20.8563 23.9004C24.9457 20.7845 24.2563 16.886 24.24 16.753C24.2726 16.8028 24.6833 17.3031 24.8968 17.5691C25.5537 10.7048 20.0176 8.48824 20.0176 8.48824ZM13.7261 19.4509C13.66 19.5342 13.3814 19.7848 13.1832 19.9675C12.9869 20.1512 12.7734 20.334 12.6087 20.5013C12.5436 20.5674 12.4115 20.6009 12.2142 20.6009H11.7221C11.9682 20.2679 12.691 19.5007 12.9371 19.3342C13.233 19.1352 13.3804 18.9343 13.1995 18.5851C13.0195 18.235 12.5436 18.3182 12.5436 18.3182C12.5436 18.3182 12.8222 18.2015 13.0683 18.2015C12.7571 18.1183 12.3626 18.2015 12.1817 18.3851C11.9844 18.5679 12.0179 19.2175 11.9356 19.6337C11.8533 20.068 11.5737 20.2842 11.1467 20.6841C10.9169 20.9012 10.7522 20.9673 10.6219 20.9673C10.3372 20.9167 10.0568 20.8441 9.78322 20.7501C9.61946 20.5339 9.37247 19.8183 9.30732 19.5179C9.35618 19.3514 9.55341 19.0013 9.65112 18.8013C9.84926 18.4177 9.96416 18.2015 9.99673 18.0015C10.0628 17.7184 10.2763 15.9686 10.3586 15.2358C10.5721 15.5189 10.868 15.9858 10.802 16.2853C11.2787 15.6022 10.9331 14.9363 10.7694 14.6694C10.621 14.4025 10.4238 13.8696 10.5884 13.3032C10.7522 12.7369 11.3439 11.1708 11.3439 11.1708C11.3439 11.1708 11.5411 11.5209 11.8207 11.454C12.0993 11.387 14.3503 7.95535 14.3503 7.95535C14.3503 7.95535 14.9583 9.30431 14.3178 10.2878C13.66 11.2703 13.0195 11.454 13.0195 11.454C13.0195 11.454 13.9233 11.6204 14.7611 11.0043C15.1058 11.8204 15.4342 12.6699 15.4514 12.7866C15.4016 12.9034 14.7448 14.5029 14.6787 14.6024C14.6462 14.6359 14.4164 14.702 14.2517 14.7363C13.9721 14.8196 13.8084 14.8693 13.7423 14.9191C13.6274 15.0186 13.1018 16.4852 12.8557 17.2018C12.5231 17.2874 12.2354 17.4959 12.0505 17.7853C12.1654 17.7021 12.5264 17.6514 12.7897 17.6188C13.0195 17.6016 13.7261 17.9853 13.907 18.7018V18.7344C13.9396 19.0013 13.8572 19.251 13.7261 19.4509ZM12.1817 19.6509C12.3301 19.4337 12.3129 19.0682 12.3301 18.9515C12.3463 18.8339 12.3789 18.6177 12.511 18.5851C12.6422 18.5516 12.9543 18.6014 12.9543 18.8348C12.9543 19.0519 12.7236 19.1017 12.5599 19.251C12.445 19.3686 12.2142 19.6174 12.1817 19.6509ZM18.7365 16.4689C18.9012 15.6185 18.9174 14.8856 18.8677 14.2858C19.5096 15.1662 19.9064 16.2011 20.0176 17.285C20.0339 17.4189 20.166 17.5519 20.2972 17.6849C20.4121 17.7844 20.5433 17.9183 20.5433 18.0015C20.5433 18.3851 20.5107 18.7679 20.4446 19.1506C20.4283 19.2012 20.2809 19.2845 20.166 19.3514C20.0013 19.4346 19.8538 19.5179 19.8204 19.6509C19.4598 20.9267 18.7001 22.0535 17.6526 22.8663C19.1798 21.2505 19.919 18.5851 18.7365 16.4689ZM17.7015 23.0165C18.7691 22.1841 19.5906 21.017 19.9525 19.7006C19.9687 19.6509 20.1162 19.5676 20.2148 19.5016C20.3795 19.4175 20.5433 19.3179 20.5767 19.1849C20.6419 18.8013 20.6753 18.4014 20.6753 18.0015C20.6753 17.8514 20.527 17.7021 20.3795 17.5519C20.2972 17.4524 20.166 17.3348 20.166 17.2515C20.0326 16.0429 19.5658 14.8952 18.8179 13.9366C18.4904 11.9371 17.1758 11.321 17.1433 11.3038C17.1758 11.3535 18.0299 12.6039 17.4391 14.0696C16.8311 15.5533 15.2704 15.319 15.1393 15.3362C15.0072 15.3362 14.4978 16.0021 13.8572 17.2352C13.5911 17.1547 13.3097 17.1376 13.0357 17.1855C13.3316 16.3522 13.7749 15.1697 13.8572 15.0693C13.8907 15.0358 14.1368 14.9698 14.3006 14.9191C14.6127 14.8359 14.7611 14.7861 14.8099 14.7201C14.8434 14.6694 15.0072 14.2858 15.1718 13.8868C15.3193 13.8868 15.6966 13.8533 15.7301 13.8361C15.7635 13.8027 16.0757 12.9866 16.0757 12.8862C16.0757 12.8038 15.4342 11.1871 15.1881 10.57C15.3151 10.4183 15.4303 10.2571 15.5328 10.0878C18.9012 10.4542 21.5294 13.3539 21.5294 16.8688C21.5319 18.1492 21.1744 19.4046 20.4977 20.4916C19.8211 21.5786 18.8524 22.4535 17.7024 23.0165H17.7015Z" fill="white"/>
<path d="M13.3494 14.0415C13.6598 13.676 13.496 12.9947 12.9242 12.8789C13.0708 12.5297 13.2834 11.8322 13.2834 11.8322C13.2834 11.8322 11.6141 14.4894 11.4667 14.54C11.3192 14.5898 11.1726 14.008 11.1726 14.008C10.8614 15.2204 11.6965 15.3869 11.7942 15.0051C12.2529 14.8884 13.0382 14.3898 13.3494 14.0415Z" fill="white"/>
<defs>
<linearGradient id="paint0_linear_2618_62912" x1="16" y1="0" x2="16" y2="32" gradientUnits="userSpaceOnUse">
<stop stop-color="#E01576"/>
<stop offset="1" stop-color="#F40103"/>
</linearGradient>
</defs>
</svg>
