<svg width="32" height="32" viewBox="0 0 32 32" fill="none" xmlns="http://www.w3.org/2000/svg">
<rect width="32" height="32" fill="url(#paint0_linear_2618_62963)"/>
<path d="M22.934 22.574L17.584 9.042C17.28 8.342 16.834 8 16.243 8H15.77C15.178 8 14.731 8.343 14.429 9.042L12.102 14.938H10.341C9.813 14.94 9.385 15.386 9.381 15.938V15.952C9.385 16.505 9.813 16.951 10.341 16.953H11.287L9.066 22.574C9.02382 22.6977 9.00154 22.8273 9 22.958C9 23.273 9.092 23.52 9.263 23.712C9.433 23.904 9.67 24 9.973 24C10.1728 23.9968 10.3663 23.9295 10.525 23.808C10.695 23.685 10.814 23.506 10.905 23.301L13.351 16.953H15.047C15.574 16.951 16.002 16.504 16.007 15.952V15.925C16.002 15.372 15.574 14.925 15.047 14.924H14.14L16.006 10.057L21.093 23.3C21.185 23.505 21.303 23.684 21.474 23.807C21.635 23.929 21.828 23.997 22.027 23.999C22.329 23.999 22.566 23.903 22.737 23.711C22.907 23.519 22.999 23.272 22.999 22.957C23.0043 22.8259 22.9821 22.6961 22.934 22.574Z" fill="white"/>
<defs>
<linearGradient id="paint0_linear_2618_62963" x1="16" y1="0" x2="16" y2="32" gradientUnits="userSpaceOnUse">
<stop stop-color="#B6509E"/>
<stop offset="1" stop-color="#2EBAC6"/>
</linearGradient>
</defs>
</svg>
