<svg width="32" height="32" viewBox="0 0 32 32" fill="none" xmlns="http://www.w3.org/2000/svg">
<rect width="32" height="32" fill="url(#paint0_linear_2470_51135)"/>
<path d="M21.564 21.5409L6 21.5449L14.4532 6.96445C14.7945 6.37785 15.4173 6 16.0998 6H16.1104C16.3481 6 16.5818 6.00661 16.8155 6.02246L8.71019 19.9991H20.6703L21.564 21.5409Z" fill="white"/>
<path d="M25.055 23.557L8.13259 23.561C7.43147 23.561 6.78878 23.1805 6.43955 22.5728C6.33067 22.3838 6.22842 22.1923 6.13281 21.9967L22.3528 21.9928L16.372 11.6876L17.267 10.1458L25.055 23.557Z" fill="white"/>
<path d="M25.3866 23.2122C25.5088 23.0325 25.6229 22.8476 25.7332 22.6613C26.0877 22.0575 26.0983 21.3137 25.7464 20.7086L17.2826 6.13345L9.50391 19.546H11.2926L17.272 9.23953L25.3866 23.2122Z" fill="white"/>
<defs>
<linearGradient id="paint0_linear_2470_51135" x1="16" y1="0" x2="16" y2="32" gradientUnits="userSpaceOnUse">
<stop stop-color="#6E05D6"/>
<stop offset="0.5" stop-color="#462A8B"/>
<stop offset="1" stop-color="#040D2C"/>
</linearGradient>
</defs>
</svg>
