<svg width="32" height="32" viewBox="0 0 32 32" fill="none" xmlns="http://www.w3.org/2000/svg">
<rect width="32" height="32" fill="url(#paint0_linear_2618_62825)"/>
<path d="M16.0276 7C16.8676 8.42096 17.678 9.85949 18.5096 11.2851C18.6299 11.4701 18.665 11.6921 18.6623 11.9095C18.6623 13.621 18.6623 15.3315 18.6623 17.042C17.5207 16.6377 16.2487 16.5674 15.0904 16.9467C14.4706 17.1373 13.9109 17.4749 13.3809 17.8413C13.3827 15.8292 13.3827 13.8162 13.3809 11.8031C13.3809 11.656 13.3855 11.5034 13.4761 11.3794C14.33 9.9224 15.1811 8.46259 16.0276 7Z" fill="white"/>
<path d="M6.75 22.9645C8.30787 20.277 9.87037 17.5924 11.4384 14.9087C11.468 17.597 11.4495 20.2872 11.4486 22.9756C9.88332 22.9617 8.3162 22.9756 6.75 22.9645Z" fill="white"/>
<path d="M20.579 14.9226C22.1655 17.597 23.691 20.3085 25.2526 22.9987C23.6929 23.0043 22.1341 22.9895 20.5753 22.9987C20.5697 20.3057 20.5614 17.6137 20.579 14.9226Z" fill="white"/>
<path d="M16.0795 18.5C16.9556 18.351 17.8678 18.5472 18.63 18.9968C18.6522 20.328 18.6143 21.6601 18.6661 22.9895C16.9686 22.996 15.2701 22.984 13.5725 22.9775C13.3958 22.2744 13.3135 21.5251 13.5114 20.8164C13.826 19.636 14.8713 18.6878 16.0795 18.5Z" fill="white"/>
<defs>
<linearGradient id="paint0_linear_2618_62825" x1="16" y1="0" x2="16" y2="32" gradientUnits="userSpaceOnUse">
<stop offset="0.0151777" stop-color="#0066FF"/>
<stop offset="1" stop-color="#020041"/>
</linearGradient>
</defs>
</svg>
