<svg width="32" height="32" viewBox="0 0 32 32" fill="none" xmlns="http://www.w3.org/2000/svg">
<rect width="32" height="32" fill="url(#paint0_linear_2515_51761)"/>
<path d="M16.0008 7C17.2732 7 17.6731 7.87729 18.0076 8.75547C18.1489 9.12787 21.4567 17.8456 21.5552 18.1071C21.5825 18.1797 21.5646 18.2995 21.4473 18.3423L19.5174 19.0626C19.4223 19.0971 19.3156 19.0463 19.2801 18.9554C19.2445 18.8654 18.5335 16.9648 18.4527 16.7514H13.5534C13.4725 16.9648 12.7534 18.869 12.7202 18.9554C12.6871 19.0431 12.5838 19.1006 12.4829 19.0626C12.3833 19.0245 10.6563 18.38 10.553 18.3423C10.4545 18.3065 10.4117 18.1982 10.4451 18.1071C10.5673 17.7798 13.8229 9.20253 13.9903 8.75547C14.312 7.89087 14.7274 7 16.0008 7V7ZM10.1838 22.598C10.0829 22.598 10 22.6797 10 22.7801V24.8167C10 24.9194 10.0829 25 10.1838 25H21.8162C21.9183 25 22 24.9194 22 24.8167V22.7801C22 22.6797 21.918 22.598 21.8162 22.598H10.1838ZM15.9898 9.847L14.333 14.6354H17.6728L16.0111 9.847H15.9898Z" fill="white"/>
<defs>
<linearGradient id="paint0_linear_2515_51761" x1="16" y1="0" x2="16" y2="32" gradientUnits="userSpaceOnUse">
<stop stop-color="#EF3124"/>
<stop offset="1" stop-color="#961D15"/>
</linearGradient>
</defs>
</svg>
