<svg width="32" height="32" viewBox="0 0 32 32" fill="none" xmlns="http://www.w3.org/2000/svg">
<rect width="32" height="32" fill="url(#paint0_linear_2515_51725)"/>
<path d="M23 15.1801V13.651H21.5895C21.6737 13.3555 21.7158 13.0231 21.7158 12.6537C21.7158 11.7378 21.4772 10.9326 21 10.2382C20.5228 9.52909 19.8351 8.98246 18.9368 8.59834C18.0386 8.19945 16.9719 8 15.7368 8C14.9368 8 14.1228 8.10342 13.2947 8.31025C12.4807 8.50231 11.7158 8.78301 11 9.15235L11.6316 11.4127C12.9789 10.7479 14.3754 10.4155 15.8211 10.4155C16.8877 10.4155 17.6807 10.6076 18.2 10.9917C18.7333 11.3758 19 11.8855 19 12.5208C19 12.964 18.7333 13.3407 18.2 13.651H9V15.1801H23Z" fill="white"/>
<path d="M23 16.7091H9V18.2382H10.4737C10.3333 18.6076 10.2632 18.9843 10.2632 19.3684C10.2632 20.2992 10.5018 21.1117 10.9789 21.8061C11.4561 22.5005 12.1439 23.0397 13.0421 23.4238C13.9404 23.8079 15.0211 24 16.2842 24C17.2667 24 18.2491 23.8597 19.2316 23.5789C20.2281 23.2835 21.1333 22.8772 21.9474 22.3601L21.1895 20.1219C20.586 20.5651 19.8351 20.9197 18.9368 21.1856C18.0526 21.4515 17.1474 21.5845 16.2211 21.5845C15.1263 21.5845 14.3123 21.3998 13.7789 21.0305C13.2456 20.6611 12.9789 20.1736 12.9789 19.5679C12.9789 19.0508 13.3158 18.6076 13.9895 18.2382H23V16.7091Z" fill="white"/>
<defs>
<linearGradient id="paint0_linear_2515_51725" x1="16" y1="0" x2="16" y2="32" gradientUnits="userSpaceOnUse">
<stop stop-color="#6E05D6"/>
<stop offset="0.5" stop-color="#462A8B"/>
<stop offset="1" stop-color="#040D2C"/>
</linearGradient>
</defs>
</svg>
