<svg width="32" height="32" viewBox="0 0 32 32" fill="none" xmlns="http://www.w3.org/2000/svg">
<rect width="32" height="32" fill="url(#paint0_linear_2624_65244)"/>
<path fill-rule="evenodd" clip-rule="evenodd" d="M17.1818 7.27L23.1398 10.285C24.0038 10.735 24.5492 11.59 24.5492 12.58V13.975H22.3658V12.58C22.3658 12.445 22.2758 12.31 22.139 12.22L16.181 9.205C16.091 9.16 15.9533 9.16 15.8174 9.205L9.85942 12.22C9.72352 12.265 9.63262 12.4 9.63262 12.58V13.975H7.44922V12.58C7.44922 11.635 7.99462 10.735 8.85862 10.285L14.8166 7.27C15.5447 6.91 16.4087 6.91 17.1818 7.27ZM17.864 15.91C17.864 14.875 17 14.065 15.9992 14.065C14.9534 14.065 14.1344 14.875 14.1344 15.91C14.1344 16.945 14.9984 17.755 15.9992 17.755C17 17.755 17.864 16.945 17.864 15.91ZM22.094 19.78C22.229 19.735 22.3208 19.6 22.3208 19.42V18.025H24.5033V19.42C24.5033 20.365 23.9579 21.265 23.0939 21.715L17.1359 24.73C16.7723 24.91 16.3628 25 15.9533 25C15.5447 25 15.1343 24.91 14.7716 24.73L8.85862 21.715C7.99462 21.265 7.44922 20.41 7.44922 19.42V18.025H9.63262V19.42C9.63262 19.555 9.72262 19.69 9.85942 19.78L14.9084 22.3V19.78C13.1795 19.285 11.9519 17.755 11.9519 15.91C11.9519 13.705 13.7699 11.86 16.0451 11.86C18.2735 11.86 20.1374 13.66 20.1374 15.91C20.1374 17.755 18.8648 19.33 17.1818 19.78V22.3L22.094 19.78Z" fill="white"/>
<defs>
<linearGradient id="paint0_linear_2624_65244" x1="16" y1="0" x2="16" y2="32" gradientUnits="userSpaceOnUse">
<stop stop-color="#2E6BF6"/>
<stop offset="1" stop-color="#0156E3"/>
</linearGradient>
</defs>
</svg>
