<svg width="32" height="32" viewBox="0 0 32 32" fill="none" xmlns="http://www.w3.org/2000/svg">
<rect width="32" height="32" fill="url(#paint0_linear_2470_51101)"/>
<g clip-path="url(#clip0_2470_51101)">
<path d="M15.4178 5H16.5641C17.7598 5.0792 18.949 5.3179 20.06 5.7667C22.8102 6.848 25.0796 9.0909 26.1874 11.8321C27.712 15.4819 27.0575 19.9336 24.512 22.9707C22.7893 25.0849 20.2559 26.5248 17.5519 26.8911C15.0141 27.253 12.3509 26.7063 10.1794 25.3346C8.50507 24.2918 7.119 22.7914 6.22136 21.0336C5.0696 18.8259 4.71978 16.2167 5.22581 13.7813C5.76703 11.0819 7.37861 8.619 9.62603 7.0317C11.3091 5.814 13.3497 5.1287 15.4178 5ZM14.7358 5.4983C11.3894 5.8822 8.31366 7.9898 6.71858 10.9532C5.63943 12.9233 5.20821 15.2465 5.53382 17.4718C5.90234 20.1514 7.35991 22.6583 9.49402 24.3171C11.1188 25.5986 13.1286 26.3851 15.1923 26.5391C17.5299 26.725 19.9236 26.1013 21.8641 24.7846C24.2436 23.2094 25.9321 20.6332 26.4173 17.8205C26.6967 16.1628 26.6021 14.4358 26.0894 12.8331C25.3579 10.5022 23.7903 8.4419 21.7332 7.1219C19.6882 5.7799 17.1636 5.198 14.7358 5.4983Z" fill="#00206B"/>
<path d="M15.001 9.83006C16.914 9.50996 18.9656 10.137 20.3417 11.5098C21.5628 12.6626 22.2756 14.3379 22.2404 16.0176C22.2646 17.6885 21.5485 19.3506 20.3329 20.4935C19.0096 21.8091 17.0636 22.4372 15.2188 22.1941C13.4807 21.9851 11.8537 20.9973 10.8659 19.5508C9.77241 18.002 9.47099 15.9406 10.0386 14.1355C10.7031 11.9135 12.7096 10.1766 15.001 9.83006ZM15.3827 10.2107C15.3838 10.7574 15.3849 11.3041 15.3838 11.8508C15.6566 11.8508 15.9294 11.8508 16.2022 11.8519C16.2033 11.2909 16.2044 10.7299 16.2022 10.17C15.9294 10.1788 15.6555 10.192 15.3827 10.2107ZM17.3507 11.8772C18.069 11.974 18.8413 12.084 19.4144 12.5691C20.2889 13.3545 20.1756 15.0034 19.1053 15.5732C19.7466 15.7228 20.3813 16.1507 20.5397 16.8239C20.7455 17.7072 20.5815 18.7676 19.872 19.3902C19.1691 19.9688 18.2175 20.0447 17.3485 20.1272C17.3529 20.6387 17.3507 21.1502 17.3496 21.6628C19.179 21.2151 20.7576 19.8533 21.4286 18.0911C22.0655 16.4653 21.9148 14.5524 21.0161 13.0553C20.2218 11.7045 18.871 10.7123 17.354 10.3317C17.3496 10.8465 17.3496 11.3613 17.3507 11.8772ZM11.8911 11.8552C12.6832 11.8937 13.4763 11.8849 14.2694 11.8838C14.2694 11.4009 14.2705 10.9191 14.2672 10.4362C13.3795 10.7244 12.5885 11.2414 11.8911 11.8552ZM11.7965 11.919C11.5864 12.1775 11.197 12.6659 10.966 13.0982C10.0342 14.6855 9.92862 16.7227 10.7064 18.3925C11.3774 19.8896 12.7085 21.0545 14.2672 21.5561C14.2694 21.0743 14.2683 20.5925 14.2683 20.1118C13.473 20.1041 12.6755 20.1327 11.8812 20.0898C11.89 19.6465 11.9945 19.2131 12.1452 18.7951C12.5346 18.7874 12.9406 18.8556 13.3168 18.728C13.5368 18.5432 13.4741 18.2374 13.4862 17.9844C13.4741 16.5379 13.4917 15.0914 13.4785 13.646C13.4928 13.4128 13.3465 13.1609 13.1045 13.1147C12.7052 13.0344 12.2937 13.0663 11.89 13.063C11.8427 12.7374 11.8372 12.4085 11.8328 12.0796C11.8328 12.0796 11.8383 11.9762 11.8031 11.9091L11.7965 11.919ZM15.4168 13.162V15.2938C16.1285 15.2806 16.9184 15.3598 17.541 14.9462C18.058 14.6074 18.025 13.7505 17.4915 13.4458C16.8678 13.0773 16.1076 13.1818 15.4168 13.162ZM15.4168 16.4411V18.8061C16.2957 18.7357 17.2814 18.8831 18.0459 18.3529C18.5926 17.9899 18.5266 17.0912 17.9634 16.7766C17.1978 16.319 16.2671 16.4642 15.4168 16.4411ZM15.3849 20.1437C15.3849 20.6904 15.3838 21.2382 15.3827 21.7849C15.6676 21.8036 15.9514 21.8146 16.2363 21.8234C16.2385 21.2635 16.2374 20.7036 16.2374 20.1437H15.3849Z" fill="#00206B"/>
<path d="M14.8002 6.0692C16.7275 5.8624 18.723 6.1561 20.4545 7.0449C22.6821 8.1372 24.4631 10.1007 25.3409 12.4206C26.2364 14.7438 26.2166 17.4014 25.2892 19.7136C23.879 23.3579 20.1553 25.9781 16.2347 25.9836C13.9323 26.0672 11.6156 25.2928 9.81256 23.8606C7.88967 22.3657 6.5597 20.1316 6.14938 17.7303C5.73026 15.3521 6.19998 12.8254 7.47165 10.7695C9.02603 8.1911 11.8103 6.4091 14.8002 6.0692ZM14.4647 9.2966C12.8982 9.6497 11.4659 10.5748 10.5056 11.8629C9.44515 13.2577 8.95892 15.0716 9.17563 16.8085C9.37914 18.6675 10.3945 20.4209 11.9049 21.522C13.3184 22.5846 15.1555 23.051 16.9046 22.8112C19.0662 22.5472 21.054 21.1711 22.0628 19.2406C22.8185 17.8634 23.0253 16.2266 22.7481 14.6899C22.395 12.8265 21.2311 11.1336 19.6119 10.1458C18.096 9.20199 16.2039 8.8995 14.4647 9.2966Z" fill="#EBA809"/>
</g>
<defs>
<linearGradient id="paint0_linear_2470_51101" x1="16" y1="0" x2="16" y2="32" gradientUnits="userSpaceOnUse">
<stop stop-color="#F6F2FF"/>
<stop offset="1" stop-color="#F1E6CB"/>
</linearGradient>
<clipPath id="clip0_2470_51101">
<rect width="22" height="22" fill="white" transform="translate(5 5)"/>
</clipPath>
</defs>
</svg>
