<svg width="32" height="32" viewBox="0 0 32 32" fill="none" xmlns="http://www.w3.org/2000/svg">
<rect width="32" height="32" fill="url(#paint0_linear_2470_50812)"/>
<path d="M16.3204 22.3915H15.9834C14.5548 22.3937 13.1673 21.9137 12.0454 21.0293C11.496 20.5288 11.1268 19.8641 10.9211 19.4132C10.7489 19.0353 10.6095 18.642 10.5191 18.2312C10.4293 17.8292 10.3797 17.4191 10.3716 17.0004V16.7873L10.3964 16.4268C10.4328 16.0402 10.5069 15.658 10.6176 15.2857C10.7304 14.9076 10.8817 14.5421 11.0692 14.1949C11.2586 13.8347 11.4869 13.4964 11.75 13.1858C12.0293 12.8503 12.3458 12.5475 12.6934 12.2833C13.0298 12.0286 13.3909 11.8075 13.7769 11.6266C14.1554 11.4513 14.5513 11.3166 14.9582 11.2246C15.3625 11.1342 15.7749 11.0848 16.1891 11.0772H16.4022V12.168H16.2132C14.8516 12.2008 13.5223 12.7838 12.5869 13.8914C11.8667 14.7459 11.4691 15.8259 11.4632 16.9434C11.4566 17.6925 11.6166 18.4336 11.9315 19.1133C12.2465 19.7929 12.7086 20.3941 13.2844 20.8732C14.0147 21.481 14.8758 21.8334 15.779 22.0304C16.3791 22.1642 16.9937 22.2221 17.6083 22.2026C17.5754 22.2106 17.5446 22.2188 17.5138 22.227C17.4831 22.2352 17.4521 22.2435 17.4193 22.2515H17.4113C17.3985 22.256 17.3836 22.2582 17.3689 22.2603C17.355 22.2623 17.3412 22.2644 17.3295 22.2683H17.3128C17.2551 22.2843 17.1895 22.3011 17.1245 22.3091C17.1088 22.313 17.095 22.315 17.0813 22.317C17.0662 22.3191 17.0512 22.3213 17.034 22.3259H17.0173C17.0053 22.3259 16.9931 22.3279 16.9809 22.3299C16.9685 22.3319 16.956 22.3339 16.9436 22.3339H16.9275L16.9114 22.338C16.886 22.3445 16.8643 22.35 16.837 22.35C16.8206 22.35 16.8042 22.3522 16.7878 22.3544C16.7714 22.3565 16.7549 22.3587 16.7385 22.3587H16.7224C16.7049 22.3587 16.6896 22.361 16.6754 22.3632C16.6631 22.365 16.6516 22.3668 16.64 22.3668H16.6152C16.5911 22.3748 16.5663 22.3748 16.5415 22.3748H16.5167C16.4839 22.3828 16.4598 22.3828 16.4269 22.3828H16.4182C16.3854 22.3915 16.3532 22.3915 16.3204 22.3915Z" fill="white"/>
<path d="M17.9198 21.3409C17.5151 21.3265 17.112 21.2826 16.7137 21.2096C15.0238 20.9061 13.5711 19.8722 13.0385 18.3137C12.3898 16.4181 13.3829 14.3671 15.2697 13.744C15.6293 13.6235 16.0061 13.5624 16.3854 13.5631C16.8698 13.5631 17.3536 13.6616 17.7972 13.8418L18.2562 12.8655C18.1181 12.8102 17.9787 12.7584 17.8381 12.7101C17.368 12.5626 16.8781 12.4878 16.3854 12.4883C15.8918 12.4892 15.4015 12.5695 14.9334 12.7262C14.3359 12.9232 13.7857 13.2417 13.3172 13.6616C13.0913 13.8628 12.8853 14.0854 12.7021 14.3262C12.521 14.5643 12.3643 14.82 12.2344 15.0894C11.9698 15.6311 11.8137 16.2192 11.7747 16.8208C11.7338 17.444 11.8156 18.0671 12.0206 18.6581C12.2295 19.266 12.5653 19.8226 13.0056 20.291C13.4077 20.7258 13.8754 21.0542 14.4409 21.3577C15.0319 21.6693 15.7622 21.8334 16.5248 21.9406C17.0173 22.0056 17.6739 22.0224 18.0592 22.0224C18.377 21.9059 18.519 21.848 18.6863 21.7798L18.7158 21.7677C18.872 21.694 19.0274 21.6203 19.1835 21.5299C19.3331 21.4432 19.3621 21.4242 19.5947 21.2719L19.6265 21.2511C19.6498 21.2366 19.6718 21.22 19.6921 21.2016C18.8195 21.3525 18.5757 21.3494 17.9821 21.3417L17.9198 21.3409Z" fill="white"/>
<path d="M19.9036 20.121L19.9387 20.1188C20.184 20.0998 20.5165 20.0665 20.7729 20.0409C20.8507 20.0331 20.9214 20.0261 20.9807 20.0203C20.6902 20.3818 20.3597 20.7093 19.9957 20.9965C19.6184 21.0783 19.3967 21.1031 19.1018 21.1279C18.0351 21.2016 16.9355 21.1111 16.1891 20.8652C15.4091 20.6026 14.6795 20.1429 14.1461 19.5693C13.8426 19.241 13.604 18.8879 13.4325 18.5107C13.2447 18.0925 13.1465 17.6397 13.1444 17.1813C13.1444 16.7439 13.2306 16.3109 13.3981 15.9069C13.5656 15.5028 13.8111 15.1358 14.1206 14.8268C14.4297 14.5172 14.7968 14.2716 15.2008 14.104C15.6049 13.9364 16.0381 13.8502 16.4755 13.8502C16.913 13.8502 17.3462 13.9364 17.7502 14.104C18.1543 14.2716 18.5214 14.5172 18.8305 14.8268C19.0637 15.055 19.2603 15.3178 19.4134 15.606L18.4371 16.0898C18.0512 15.409 17.3208 14.9413 16.4759 14.9413C16.1806 14.9411 15.8881 14.9991 15.6153 15.1119C15.3424 15.2248 15.0945 15.3904 14.8857 15.5992C14.6769 15.808 14.5113 16.0559 14.3984 16.3288C14.2855 16.6016 14.2276 16.8941 14.2278 17.1893C14.2278 18.437 15.3435 19.4461 16.5255 19.8394C17.288 20.094 18.1825 20.159 18.9129 20.159C19.3044 20.159 19.6514 20.137 19.9036 20.121Z" fill="white"/>
<path fill-rule="evenodd" clip-rule="evenodd" d="M23.3681 12.8903C23.5732 13.3742 23.7298 13.8772 23.8358 14.3919C24.1624 15.9755 23.9993 17.621 23.3681 19.1097C23.1631 19.5854 22.9165 20.0451 22.6297 20.4712C22.3431 20.8957 22.0162 21.2915 21.6534 21.6532C21.2918 22.0159 20.896 22.3428 20.4714 22.6294C20.0366 22.9162 19.5856 23.1708 19.1099 23.3678C18.1262 23.785 17.0686 24 16.0002 24C14.9317 24 13.8741 23.785 12.8904 23.3678C12.4147 23.1628 11.955 22.9162 11.5289 22.6294C11.1043 22.3428 10.7085 22.0159 10.3469 21.6532C9.98419 21.2915 9.65725 20.8957 9.37061 20.4712C9.08382 20.0363 8.8292 19.5854 8.6322 19.1097C8.215 18.126 8 17.0685 8 16C8 14.9315 8.215 13.874 8.6322 12.8903C8.83578 12.4144 9.08297 11.9584 9.37061 11.5281C9.65726 11.1041 9.98421 10.7087 10.3469 10.3475C11.0753 9.61601 11.9392 9.03339 12.8904 8.63219C13.8741 8.215 14.9317 8 16.0002 8C17.0686 8 18.1262 8.215 19.1099 8.63219C19.5855 8.8358 20.0413 9.08299 20.4714 9.37058C20.896 9.65716 21.2918 9.9841 21.6534 10.3468C22.0161 10.7082 22.3431 11.1038 22.6297 11.5281C22.9187 11.9576 23.166 12.4137 23.3681 12.8903ZM9.01749 16.008C9.01749 19.8641 12.1433 22.9986 16.0075 22.9986C19.8644 22.9986 22.9982 19.8641 22.9982 16.008C22.9982 12.1519 19.8637 9.01747 16.0075 9.01747C12.152 9.01747 9.01749 12.1519 9.01749 16.008Z" fill="white"/>
<defs>
<linearGradient id="paint0_linear_2470_50812" x1="16" y1="0" x2="16" y2="32" gradientUnits="userSpaceOnUse">
<stop stop-color="#281359"/>
<stop offset="1" stop-color="#040D2C"/>
</linearGradient>
</defs>
</svg>
