<svg width="32" height="32" viewBox="0 0 32 32" fill="none" xmlns="http://www.w3.org/2000/svg">
<rect width="32" height="32" fill="url(#paint0_linear_320_39)"/>
<path fill-rule="evenodd" clip-rule="evenodd" d="M15.9923 26C12.9083 25.9977 10.4241 25.257 8.68841 23.9266C6.93186 22.5802 6 20.6696 6 18.5077C6 16.4245 6.92981 14.9224 7.98187 13.9071C8.80636 13.1114 9.7162 12.6018 10.3497 12.3086C10.2065 11.8686 10.0277 11.2924 9.8678 10.6974C9.65384 9.90114 9.44391 8.96693 9.44391 8.28235C9.44391 7.47205 9.62043 6.65828 10.0963 6.02594C10.5992 5.35788 11.3561 5 12.2668 5C12.9785 5 13.5827 5.26421 14.0558 5.72006C14.508 6.15576 14.8089 6.73444 15.0167 7.33763C15.3818 8.39754 15.524 9.72919 15.5639 11.0581H16.4362C16.476 9.72919 16.6182 8.39754 16.9833 7.33763C17.1911 6.73444 17.4921 6.15576 17.9443 5.72006C18.4173 5.26421 19.0215 5 19.7333 5C20.6439 5 21.4009 5.35788 21.9037 6.02594C22.3796 6.65828 22.5561 7.47205 22.5561 8.28235C22.5561 8.96693 22.3462 9.90114 22.1322 10.6974C21.9723 11.2924 21.7936 11.8686 21.6503 12.3086C22.2838 12.6018 23.1937 13.1114 24.0181 13.9071C25.0702 14.9224 26 16.4245 26 18.5077C26 20.6696 25.0682 22.5802 23.3116 23.9266C21.5759 25.257 19.0917 25.9977 16.0077 26H15.9923Z" fill="#633001"/>
<path d="M12.2667 5.77061C10.9329 5.77061 10.3189 6.77673 10.3189 8.16819C10.3189 9.27416 11.0323 11.4892 11.325 12.3514C11.3909 12.5454 11.2874 12.7579 11.0988 12.8331C10.0298 13.2593 6.87506 14.8197 6.87506 18.3935C6.87506 22.1581 10.0809 24.9965 15.9929 25.001C15.9952 25.001 15.9976 25.001 16 25.001C16.0023 25.001 16.0047 25.001 16.007 25.001C21.919 24.9965 25.1249 22.1581 25.1249 18.3935C25.1249 14.8197 21.9702 13.2593 20.9012 12.8331C20.7125 12.7579 20.6091 12.5454 20.6749 12.3514C20.9676 11.4892 21.681 9.27416 21.681 8.16819C21.681 6.77673 21.067 5.77061 19.7332 5.77061C17.8132 5.77061 17.3347 8.52052 17.3005 11.4719C17.2982 11.6689 17.1407 11.8287 16.9458 11.8287H15.0541C14.8592 11.8287 14.7017 11.6689 14.6994 11.4719C14.6653 8.52052 14.1867 5.77061 12.2667 5.77061Z" fill="#D1884F"/>
<path d="M16.007 23.7951C11.6632 23.7951 6.88255 21.4441 6.87506 18.4006C6.87506 18.4054 6.87506 18.4102 6.87506 18.4149C6.87506 22.1825 10.0861 25.0224 16.007 25.0224C21.928 25.0224 25.139 22.1825 25.139 18.4149C25.139 18.4102 25.139 18.4054 25.139 18.4006C25.1315 21.4441 20.3508 23.7951 16.007 23.7951Z" fill="#FEDC90"/>
<path d="M13.5935 17.4659C13.5935 18.4934 13.1132 19.0285 12.5208 19.0285C11.9284 19.0285 11.4481 18.4934 11.4481 17.4659C11.4481 16.4383 11.9284 15.9032 12.5208 15.9032C13.1132 15.9032 13.5935 16.4383 13.5935 17.4659Z" fill="#633001"/>
<path d="M20.5659 17.4659C20.5659 18.4934 20.0857 19.0285 19.4933 19.0285C18.9008 19.0285 18.4206 18.4934 18.4206 17.4659C18.4206 16.4383 18.9008 15.9032 19.4933 15.9032C20.0857 15.9032 20.5659 16.4383 20.5659 17.4659Z" fill="#633001"/>
<defs>
<linearGradient id="paint0_linear_320_39" x1="16" y1="0" x2="16" y2="32" gradientUnits="userSpaceOnUse">
<stop stop-color="#53DEE9"/>
<stop offset="1" stop-color="#1FC7D4"/>
</linearGradient>
</defs>
</svg>
