<svg width="32" height="32" viewBox="0 0 32 32" fill="none" xmlns="http://www.w3.org/2000/svg">
<rect width="32" height="32" fill="url(#paint0_linear_2618_64263)"/>
<path fill-rule="evenodd" clip-rule="evenodd" d="M23.7207 20.3781C23.5458 20.6701 23.2635 20.882 22.9344 20.9686C22.6052 21.0552 22.2552 21.0095 21.9593 20.8415L17.8965 18.5376V17.0754L19.187 16.3443L23.2489 18.6473C23.8661 18.9967 24.0769 19.7728 23.7207 20.3781ZM17.2895 23.4887C17.2895 24.1884 16.7123 24.7554 15.9999 24.7554C15.2875 24.7554 14.7103 24.1884 14.7103 23.4887V18.8819L15.9999 18.1508L17.2895 18.8819V23.4887ZM10.0405 20.8415C9.74446 21.0095 9.39441 21.055 9.06523 20.9682C8.73605 20.8815 8.45388 20.6694 8.27906 20.3773C8.19467 20.2332 8.1399 20.0736 8.11797 19.9081C8.09603 19.7425 8.10736 19.5742 8.15131 19.4131C8.19525 19.252 8.27092 19.1012 8.37388 18.9697C8.47683 18.8382 8.60501 18.7286 8.75088 18.6473L12.8128 16.3434L14.1033 17.0754V18.5376L10.0405 20.8415ZM8.75088 13.3527C8.60501 13.2714 8.47683 13.1618 8.37388 13.0303C8.27092 12.8987 8.19525 12.748 8.15131 12.5869C8.10736 12.4258 8.09603 12.2575 8.11797 12.0919C8.1399 11.9263 8.19467 11.7668 8.27906 11.6227C8.45388 11.3306 8.73605 11.1185 9.06523 11.0318C9.39441 10.945 9.74446 10.9905 10.0405 11.1585L14.1033 13.4624V14.9246L12.8128 15.6557L8.75088 13.3527ZM14.7103 8.51124C14.7103 7.81159 15.2883 7.24456 15.9999 7.24456C16.7123 7.24456 17.2895 7.81159 17.2895 8.51124V13.1172L15.9999 13.8492L14.7103 13.1181V8.51124ZM17.8965 15.6132L18.58 16L17.8965 16.3868V15.6132ZM16.6069 14.1935L17.2895 13.8058V14.5803L16.6069 14.1935ZM14.7103 14.5803V13.8067L15.3929 14.1935L14.7103 14.5803ZM14.1033 16.3868L13.4198 16L14.1033 15.6132V16.3868ZM15.3929 17.8065L14.7103 18.1942V17.4197L15.3929 17.8065ZM17.2895 17.4197V18.1933L16.6069 17.8065L17.2895 17.4197ZM15.9999 17.4622L14.7103 16.7311V15.2689L15.9999 14.5378L17.2895 15.2689V16.7311L15.9999 17.4622ZM21.9593 11.1585C22.2553 10.9905 22.6054 10.945 22.9346 11.0318C23.2637 11.1185 23.5459 11.3306 23.7207 11.6227C24.0778 12.228 23.8653 13.0033 23.2489 13.3527L19.187 15.6565L17.8965 14.9246V13.4624L21.9593 11.1585ZM23.5524 18.1313L19.794 16L23.5524 13.8687C23.7671 13.7492 23.9557 13.5881 24.1073 13.3947C24.2588 13.2013 24.3702 12.9796 24.4349 12.7426C24.4996 12.5056 24.5163 12.2581 24.484 12.0145C24.4517 11.7709 24.3711 11.5363 24.247 11.3243C23.7233 10.4334 22.5629 10.1282 21.6558 10.6425L17.8965 12.7738V8.51039C17.8965 7.48259 17.0473 6.64862 15.9999 6.64862C14.9525 6.64862 14.1033 7.48259 14.1033 8.51124V12.7738L10.344 10.6425C9.43693 10.1282 8.27651 10.4334 7.75368 11.3243C7.62949 11.5363 7.5489 11.7709 7.51663 12.0145C7.48435 12.2581 7.50106 12.5056 7.56575 12.7426C7.63045 12.9796 7.74184 13.2013 7.89338 13.3947C8.04492 13.5881 8.23356 13.7492 8.44824 13.8687L12.2058 16L8.44824 18.1313C8.23349 18.2507 8.04477 18.4118 7.89314 18.6051C7.74152 18.7985 7.63004 19.0202 7.56526 19.2572C7.50049 19.4942 7.48371 19.7418 7.51592 19.9854C7.54813 20.2289 7.62868 20.4636 7.75283 20.6757C8.27651 21.5666 9.43693 21.8718 10.344 21.3575L14.1033 19.2262V23.4887C14.1033 24.5174 14.9525 25.3514 15.9999 25.3514C17.0473 25.3514 17.8965 24.5174 17.8965 23.4887V19.2262L21.6558 21.3575C22.5629 21.8718 23.7233 21.5666 24.247 20.6757C24.3711 20.4637 24.4517 20.229 24.484 19.9855C24.5163 19.7419 24.4996 19.4944 24.4349 19.2574C24.3702 19.0204 24.2588 18.7987 24.1073 18.6053C23.9557 18.4119 23.7671 18.2507 23.5524 18.1313Z" fill="white"/>
<defs>
<linearGradient id="paint0_linear_2618_64263" x1="16" y1="0" x2="16" y2="32" gradientUnits="userSpaceOnUse">
<stop stop-color="#746D2C"/>
<stop offset="1" stop-color="#0E0D09"/>
</linearGradient>
</defs>
</svg>
