<svg width="32" height="32" viewBox="0 0 32 32" fill="none" xmlns="http://www.w3.org/2000/svg">
<rect width="32" height="32" fill="url(#paint0_linear_2470_49459)"/>
<path fill-rule="evenodd" clip-rule="evenodd" d="M16 6.00001C15.8247 5.99905 15.655 6.08244 15.5474 6.23169L11.2234 12.2323C11.1632 12.3083 11.123 12.3992 11.1073 12.496L9.01293 22.2123C8.96262 22.4457 9.06199 22.686 9.26124 22.8129L15.7004 26.9136C15.7923 26.9721 15.8964 27.0007 16 27C16.1036 27.0007 16.2077 26.9721 16.2996 26.9136L22.7388 22.8129C22.938 22.6861 23.0373 22.4458 22.9871 22.2125L20.8955 12.4962C20.8798 12.3993 20.8395 12.3082 20.7792 12.2322L16.4525 6.23155C16.3449 6.08239 16.1753 5.99906 16 6.00001ZM19.7286 12.6907L16.5601 8.29634V10.6416L18.9998 15.0149L19.7286 12.6907ZM18.539 16.4845L16 11.9332L13.4622 16.4823L15.1185 21.7674H16.8824L18.539 16.4845ZM18.0517 21.7674L19.2876 17.8263L21.4861 21.7674H18.0517ZM16.5275 22.8993H15.4732L16.0002 24.5809L16.5275 22.8993ZM15.0043 25.1344L14.3039 22.8993H11.4947L15.0043 25.1344ZM10.5139 21.7674H13.9492L12.7135 17.8244L10.5139 21.7674ZM12.2529 16.3544L10.8893 18.7988L11.7571 14.7725L12.2529 16.3544ZM13.0016 15.0123L15.4399 10.6416V8.29721L12.274 12.6906L13.0016 15.0123ZM16.996 25.1342L17.6968 22.8993H20.5053L16.996 25.1342ZM21.1124 18.8017L19.7484 16.3567L20.2451 14.7728L21.1124 18.8017Z" fill="white"/>
<defs>
<linearGradient id="paint0_linear_2470_49459" x1="16" y1="0" x2="16" y2="32" gradientUnits="userSpaceOnUse">
<stop stop-color="#1A0B39"/>
<stop offset="1"/>
</linearGradient>
</defs>
</svg>
