<svg width="32" height="32" viewBox="0 0 32 32" fill="none" xmlns="http://www.w3.org/2000/svg">
<rect width="32" height="32" fill="#015FE3"/>
<path d="M21.7867 20.5789C21.1801 20.5789 20.9527 20.9737 20.4977 21.2895C19.5119 22.079 18.526 22.4737 17.3886 22.4737C15.1895 22.4737 13.5213 21.2895 12.6872 19.2368H17.0854C17.692 19.2368 18.1469 18.7632 18.1469 18.1316C18.1469 17.9737 18.1469 17.8158 18.0711 17.7369C17.9953 17.579 17.9195 17.5 17.8437 17.3421C17.7678 17.1842 17.6162 17.1842 17.4645 17.1053C17.3128 17.0263 17.1612 17.0263 17.0854 17.0263H12.1564C12.1564 16.7105 12.0805 16.3947 12.0805 16C12.0805 15.6842 12.0806 15.3684 12.1564 15.1316H18.2228C18.8294 15.1316 19.2843 14.6579 19.2843 14.0263C19.2843 13.3947 18.8294 12.9211 18.2228 12.9211H12.6872C13.5213 10.7895 15.1895 9.5263 17.3886 9.5263C18.6019 9.5263 19.5877 9.84209 20.4977 10.7105C20.9527 11.0263 21.1801 11.4211 21.7867 11.4211C22.3934 11.4211 22.9242 10.8684 22.9242 10.1579C22.9242 9.76316 22.7725 9.44736 22.4692 9.13157C21.1801 7.78946 19.3602 7 17.237 7C13.5213 7 10.7156 9.36842 9.72984 12.9211H8.06163C7.90997 12.9211 7.75831 12.9211 7.68248 13C7.53082 13.079 7.455 13.1579 7.30334 13.2368C7.22751 13.3158 7.15164 13.4737 7.07581 13.5526C6.99998 13.7105 7 13.7895 7 13.9474C7 14.5789 7.455 15.0526 8.06163 15.0526H9.27488C9.27488 15.3684 9.27488 15.6053 9.27488 15.921C9.27488 16.2368 9.27487 16.6316 9.3507 16.9474H8.06163C7.90997 16.9474 7.75831 16.9474 7.68248 17.0263C7.53082 17.1053 7.455 17.1842 7.30334 17.2632C7.22751 17.3421 7.15164 17.5 7.07581 17.6579C6.99998 17.8158 7 17.9737 7 18.0526C7 18.6842 7.455 19.1579 8.06163 19.1579H9.8057C10.8673 22.7105 13.673 25 17.3128 25C19.436 25 21.2559 24.2105 22.545 22.8684C22.9242 22.4737 23 22.1579 23 21.8421C22.9242 21.1316 22.3934 20.5789 21.7867 20.5789Z" fill="white"/>
</svg>
