<svg width="32" height="32" viewBox="0 0 32 32" fill="none" xmlns="http://www.w3.org/2000/svg">
<rect width="32" height="32" fill="url(#paint0_linear_2470_49482)"/>
<path d="M19.2873 22.95V19.8275H19.2349C18.7663 20.4829 18.2985 21.0868 17.7783 21.739C17.2581 21.0868 16.7895 20.4314 16.3217 19.8275H16.2693V22.95H15.3329V18.114H16.2693C16.3733 18.114 16.4774 18.2163 16.5298 18.3153L17.6227 19.8782L17.8307 20.1785L18.0388 19.9257L19.1317 18.3145C19.2357 18.1639 19.3922 18.0616 19.6003 18.0616H20.1205C20.1205 18.0616 20.3285 18.1132 20.3285 18.2629V22.6964C20.3285 22.8469 20.2761 22.9492 20.1205 22.9492L19.2873 22.95ZM25.9983 20.5304C25.9983 21.9403 24.8539 23.0491 23.3973 22.9983C22.2004 22.9983 20.9004 22.1416 20.9004 20.4829C20.9004 18.92 22.1488 17.9643 23.5014 17.9643C24.8539 18.0158 26.0508 19.0223 25.9983 20.5312V20.5304ZM21.8883 20.4821C21.8883 20.8847 21.8883 20.933 22.0964 21.3356C22.3569 21.8405 22.7206 22.0933 23.2933 22.1408C23.9175 22.1923 24.3861 21.9902 24.6982 21.4886C24.9063 21.1335 24.9588 20.7824 24.9588 20.3798C24.9063 19.3733 23.9184 18.7179 22.9296 19.0215C22.4094 19.1205 21.8892 19.7759 21.8892 20.4821H21.8883ZM9.5591 20.028V20.9322H7.06213V21.9902H9.71558C9.76801 22.2938 9.76801 22.5941 9.71558 22.8977H6.07416L6.02172 22.6448C5.96928 21.0852 6.02172 18.416 6.07416 18.1124H9.61153C9.71558 18.416 9.61153 18.6655 9.66397 19.0198C8.77921 19.0681 7.89528 19.0198 7.06296 19.0198V20.0779C7.84368 20.0263 8.676 20.0263 9.55993 20.0263L9.5591 20.028ZM14.7095 22.8985H13.7207C13.6683 22.8985 13.5642 22.7962 13.5126 22.7479L12.5763 21.3863C12.5238 21.3348 12.4722 21.2357 12.4198 21.1335C12.3674 21.2357 12.2633 21.2873 12.2117 21.3348L11.2754 22.6964C11.2229 22.7479 11.1713 22.8469 11.1189 22.8469C10.8068 22.8985 10.4422 22.8985 10.026 22.8469C10.5462 21.9902 11.1705 21.2357 11.6907 20.4306L10.1301 18.1639C10.2341 18.0134 10.3382 18.0616 10.4946 18.0616C11.2754 18.0616 11.2754 18.0616 11.6915 18.6655C11.8996 19.0207 12.1601 19.321 12.4198 19.7236L12.6279 19.4233L13.4086 18.2629C13.5126 18.1124 13.6167 18.0616 13.7732 18.0616H14.6055C14.3974 18.5665 14.0853 18.8668 13.8248 19.2727L13.044 20.4297C13.5642 21.2349 14.1369 22.0409 14.6571 22.7954L14.7095 22.8977V22.8985ZM24.1256 9.04828L24.2821 9.40341C24.4902 9.75527 24.4902 10.0589 24.3345 10.4099C23.7103 12.0718 23.1376 13.7346 22.5658 15.3932C22.4618 15.6968 22.3053 16.0004 22.2013 16.3523C22.0448 16.0487 21.8892 15.7958 21.7327 15.5471C21.4722 15.6461 21.16 15.7966 20.8479 15.9497C20.952 15.5945 21.056 15.3932 21.1084 15.1445C21.577 13.8851 22.0448 12.6258 22.461 11.3665C22.669 10.8133 22.8771 10.2602 23.0336 9.70454C23.086 9.55398 23.1901 9.40423 23.3982 9.35268C23.6587 9.25039 23.8668 9.0491 24.1264 9.0491L24.1256 9.04828ZM18.4034 9C18.5599 9.30031 18.6639 9.50161 18.7679 9.75445C18.8204 9.85674 18.7679 9.95575 18.7679 10.058C18.2993 11.4164 17.7791 12.7747 17.3114 14.1846L16.7387 15.8466C16.6863 15.9488 16.6347 16.0994 16.5823 16.3007C16.4258 16.0004 16.2701 15.6968 16.1661 15.444C15.9056 15.5462 15.6459 15.6968 15.3338 15.8466C15.3338 15.696 15.3338 15.6453 15.3862 15.5462L16.3226 13.0276L17.467 9.80601C17.5711 9.55316 17.6751 9.40341 17.8832 9.30113C17.9872 9.20212 18.1437 9.09983 18.4034 9.00082V9ZM13.6691 15.2427C13.8772 15.444 14.0853 15.6453 14.2934 15.8981L14.1369 15.9497H8.20657C7.94605 15.9497 7.68637 15.8981 7.52989 15.6461C7.42585 15.4955 7.26937 15.3932 7.11373 15.2435C7.32181 15.0422 7.52989 14.7893 7.73797 14.6396C7.84201 14.588 7.94605 14.5406 8.10253 14.5406H13.9288C14.0328 14.5406 14.1369 14.5406 14.345 14.5889C14.0844 14.7902 13.8764 14.9915 13.6683 15.2443L13.6691 15.2427ZM16.3226 10.4099C16.1661 10.4614 16.1145 10.4614 16.0104 10.4614H10.1317C9.92366 10.4614 9.76718 10.4099 9.61153 10.2602L9.24698 9.90502C9.0905 9.80601 9.14294 9.70372 9.24698 9.55316C9.35102 9.45415 9.45506 9.40259 9.50749 9.30031C9.66397 9.09901 9.87205 9.04746 10.1842 9.04746H16.271C16.1669 9.35104 15.8548 9.45333 15.6983 9.75364L16.0104 10.0572C16.0629 10.1562 16.1669 10.2585 16.3226 10.4091V10.4099ZM20.068 12.1201C20.3285 11.9695 20.5882 11.8705 20.9004 11.7682C20.9004 11.9188 20.9004 11.9695 20.8479 12.0718L19.7035 15.3449C19.651 15.444 19.5994 15.5462 19.547 15.5945C19.2865 15.7484 19.0268 15.8474 18.7147 16.0004L18.2985 15.1436C18.2461 15.0414 18.2985 14.9424 18.3509 14.8908L19.4954 11.6684C19.5478 11.6169 19.5994 11.5146 19.6519 11.4156C19.8083 11.6169 19.964 11.8697 20.068 12.1185V12.1201ZM8.41548 13.1299L8.72761 12.8263L9.09216 12.5734L8.41548 11.8705C8.51953 11.819 8.57196 11.819 8.62357 11.819H12.0053C12.3174 11.819 12.5779 11.918 12.7336 12.1193L13.0981 12.5219L12.4739 13.129C12.3699 13.1773 12.2134 13.2281 12.1093 13.2281H8.57196L8.41548 13.129V13.1299Z" fill="white"/>
<defs>
<linearGradient id="paint0_linear_2470_49482" x1="16" y1="0" x2="16" y2="32" gradientUnits="userSpaceOnUse">
<stop stop-color="#00A6FF"/>
<stop offset="1" stop-color="#0085FF"/>
</linearGradient>
</defs>
</svg>
