<svg width="32" height="32" viewBox="0 0 32 32" fill="none" xmlns="http://www.w3.org/2000/svg">
<rect width="32" height="32" fill="url(#paint0_linear_2618_64312)"/>
<path fill-rule="evenodd" clip-rule="evenodd" d="M7.99414 20.3173C8.21274 20.4334 8.49964 20.611 8.70458 20.7476C8.77972 20.7989 8.86511 20.8433 8.94708 20.8945C8.99148 20.9218 9.01881 20.9355 9.0598 20.9628C9.08029 20.9765 9.09737 20.9901 9.11786 21.0004C9.14177 21.014 9.15543 21.0209 9.17934 21.0345L11.8093 22.6535C11.8469 22.674 11.8811 22.6979 11.922 22.7218L14.3095 24.1939C14.3368 24.211 14.3471 24.2144 14.371 24.2315L15.5118 24.9317C15.563 24.959 15.5835 24.9932 15.6416 24.9966V16.082L15.2795 15.8736C15.2454 15.8565 15.2249 15.8429 15.1907 15.8224L14.9072 15.6584C14.5042 15.4467 14.1285 15.1871 13.722 14.9753C13.6811 14.9548 13.6674 14.9412 13.623 14.9207L13.2609 14.7123C13.1721 14.6577 12.7691 14.4152 12.6974 14.3981V15.8053L14.1797 16.6626C14.2207 16.6865 14.248 16.7036 14.2856 16.7241C14.3266 16.7446 14.3471 16.7685 14.3983 16.7787V22.814C14.1387 22.6399 13.8621 22.4827 13.5957 22.3222L12.9501 21.9226C12.6871 21.745 12.4036 21.5981 12.1406 21.4239C12.1099 21.4034 12.0928 21.3966 12.0621 21.3761L11.4917 21.0243C11.4302 20.9901 11.3858 20.9628 11.3277 20.9218C11.1194 20.7818 10.894 20.6588 10.6822 20.5222C10.6241 20.4846 10.5763 20.4607 10.5182 20.4232C10.204 20.2114 9.86587 20.0201 9.54481 19.8254C9.51748 19.8084 9.49357 19.7913 9.46966 19.7742L9.22033 19.6205V12.3761C9.17251 12.3453 9.12469 12.318 9.07004 12.2873C9.01539 12.2565 8.97441 12.2326 8.91976 12.1985L8.15126 11.7613C8.09319 11.7305 8.04879 11.6964 7.99414 11.6691V20.3173Z" fill="white"/>
<path fill-rule="evenodd" clip-rule="evenodd" d="M16.3779 16.0683V19.4941L16.8322 19.2379C17.0405 19.1286 17.2318 18.9954 17.4402 18.8861C17.4777 18.8656 17.4914 18.8588 17.5187 18.8383C17.546 18.8212 17.5734 18.811 17.6007 18.7973V16.7787C17.6417 16.7685 17.6553 16.7616 17.6861 16.7411C17.7168 16.7206 17.7373 16.7138 17.7681 16.6967C17.9286 16.6045 18.0857 16.4952 18.2497 16.4132C18.4717 16.3039 18.6834 16.1673 18.8952 16.0409C18.9498 16.0102 18.9942 15.9829 19.0523 15.9487L19.3734 15.7677C19.4075 15.7472 19.4178 15.7404 19.4519 15.7199C19.592 15.6481 19.7218 15.5525 19.8652 15.4774L20.0223 15.3851C20.0497 15.3681 20.077 15.3578 20.1043 15.3442L21.1529 14.7362C21.3749 14.6201 21.5798 14.48 21.7984 14.3639L22.1229 14.1726C22.2322 14.1077 22.3381 14.0497 22.4474 13.9814C22.5054 13.9472 22.5533 13.9233 22.6045 13.8891L22.7753 13.7935V19.6375C22.7275 19.6478 22.7138 19.6648 22.6728 19.6888L22.3722 19.8732C22.3415 19.8937 22.3176 19.9108 22.28 19.9347C22.239 19.9586 22.2117 19.9791 22.1776 19.9996C22.14 20.0201 22.1195 20.0371 22.0819 20.0576L21.7779 20.2387C21.5047 20.3958 21.2485 20.5734 20.9753 20.7305L20.176 21.2258C20.1385 21.2497 20.118 21.2599 20.0804 21.2838C19.7218 21.5263 19.3392 21.7278 18.9772 21.9635C18.9123 22.0079 18.844 22.0455 18.7791 22.0865L17.7783 22.7013C17.7476 22.7184 17.7134 22.7389 17.6827 22.7593C17.3855 22.954 17.0747 23.1214 16.7775 23.3161L16.3711 23.5654V25C16.4394 24.9829 16.5487 24.9009 16.6102 24.8633C16.6922 24.8121 16.7707 24.7711 16.8527 24.7165C17.0815 24.5628 17.3309 24.4364 17.5597 24.2827C17.6041 24.2554 17.6383 24.2315 17.6793 24.2075L18.2838 23.8353C18.3248 23.8113 18.3555 23.7908 18.3965 23.7669L21.614 21.7859C21.6584 21.7586 21.696 21.7347 21.7335 21.7108L23.8819 20.3889C23.9229 20.3616 23.9639 20.3377 24.0049 20.3172V11.6827C23.9434 11.6963 23.9331 11.7168 23.8853 11.7442C23.8409 11.7681 23.8102 11.7851 23.7692 11.8091L23.0554 12.2223C22.8128 12.3521 22.5874 12.5127 22.3415 12.6356L20.4322 13.7354C20.3468 13.7832 20.2785 13.8277 20.1965 13.8755L19.8447 14.0804C19.5954 14.2068 19.2333 14.422 19.0045 14.5654C18.9635 14.5927 18.9294 14.603 18.8884 14.6303L18.113 15.0812C18.0789 15.0982 18.0857 15.0982 18.0516 15.1187L17.809 15.2519C17.6656 15.3271 17.5392 15.4193 17.3958 15.4944C17.3616 15.5115 17.3616 15.5184 17.3343 15.532L17.0918 15.6652C16.9312 15.7438 16.5077 16.0409 16.3779 16.0683Z" fill="white"/>
<path fill-rule="evenodd" clip-rule="evenodd" d="M8.4707 11.0953C8.51852 11.1055 8.54585 11.1328 8.59025 11.1567C8.75078 11.2421 8.89423 11.3446 9.05818 11.4266L10.3561 12.178C10.9743 12.5537 11.6164 12.8884 12.2381 13.2641L12.3542 13.329C12.3986 13.3529 12.4293 13.3734 12.4703 13.3939L13.1773 13.8038C13.2081 13.8209 13.2047 13.8209 13.2286 13.8345C13.5599 14.0361 13.9083 14.2068 14.2362 14.4152L15.2882 15.0197C15.3292 15.0437 15.3599 15.0641 15.4009 15.0881C15.5238 15.1632 15.9644 15.4296 16.0089 15.4296C16.0737 15.4296 16.4495 15.1905 16.5451 15.1325L16.7295 15.0232C16.791 14.9856 16.8457 14.9617 16.9071 14.9241C16.972 14.8865 17.0199 14.8592 17.0848 14.8216L17.4434 14.6099C17.5049 14.5723 17.5595 14.545 17.6176 14.5074L18.1607 14.2C18.1948 14.1829 18.2187 14.1659 18.2495 14.1488C18.2802 14.1283 18.3007 14.118 18.3383 14.0975L18.7003 13.8892C18.7584 13.855 18.8233 13.8038 18.8916 13.7867C18.8813 13.7457 18.8745 13.7492 18.8404 13.7287L17.6825 13.0626C17.2214 13.3051 16.7842 13.5886 16.3265 13.838C16.2889 13.8585 16.2582 13.8789 16.224 13.9029C16.1523 13.9473 16.0874 13.9848 16.0123 14.0258L15.3155 13.6228C15.073 13.4998 14.851 13.3393 14.6085 13.2129C14.5538 13.1822 14.4992 13.148 14.4514 13.1207L13.0373 12.3078C13.01 12.2907 12.9861 12.277 12.9588 12.26C12.928 12.2395 12.9075 12.2326 12.8768 12.2156L11.0665 11.1704C11.0324 11.1499 11.029 11.1397 10.9811 11.1294C11.0187 11.0748 11.0631 11.0714 11.1246 11.0338C11.1758 10.9996 11.2236 10.9825 11.2783 10.9518L12.8529 10.1013C12.887 10.0808 12.887 10.0774 12.9212 10.0603C12.9553 10.0433 12.9724 10.0364 13.0032 10.0159C13.0578 9.98179 13.1125 9.95788 13.1671 9.93055L15.1311 8.87173C15.1652 8.85465 15.1755 8.8444 15.2096 8.82391L16.0089 8.39697C16.0533 8.39697 16.6578 8.74877 16.7978 8.8205C16.832 8.83757 16.8559 8.84782 16.8901 8.86831C16.9311 8.89222 16.9413 8.90247 16.9891 8.92296L19.1614 10.0945C19.3527 10.214 19.9333 10.518 20.1383 10.6205C20.3705 10.7366 20.5925 10.8767 20.8248 10.9928L22.1159 11.693C22.1603 11.7169 22.1739 11.7237 22.2149 11.7476C22.3686 11.8399 22.372 11.7613 22.6214 11.6247L23.0825 11.3617C23.1645 11.3173 23.4753 11.1192 23.547 11.1021C23.5333 11.0577 23.4923 11.0406 23.4514 11.0167L22.9834 10.7605C22.7478 10.641 22.5121 10.4941 22.2764 10.3814L21.8085 10.1252C21.6479 10.0433 21.4874 9.96812 21.3371 9.87249L18.977 8.59848C18.9292 8.57457 18.9018 8.56091 18.8608 8.53359L17.9113 8.02125C17.8669 7.99734 17.8396 7.98027 17.7952 7.95636C17.7713 7.9427 17.761 7.93928 17.7405 7.92903L16.4939 7.25275C16.4153 7.20493 16.0498 7 16.0054 7C15.9679 7 15.7049 7.15712 15.6468 7.18444L12.9451 8.6463C12.9007 8.66679 12.8665 8.68387 12.8255 8.70778L10.9333 9.72903C10.8889 9.75294 10.8684 9.77002 10.8172 9.79393L10.6464 9.88615C10.6123 9.90323 10.6123 9.91006 10.5849 9.92372C10.5474 9.94763 10.5064 9.95788 10.4654 9.9852L10.1033 10.1799C10.0555 10.2038 10.0316 10.2243 9.98721 10.2448L9.43731 10.5454C9.41681 10.5556 9.41681 10.5522 9.39974 10.5624C9.32118 10.6068 9.2392 10.6376 9.16406 10.6888C9.11966 10.7161 9.09234 10.7264 9.04452 10.7503L8.51511 11.044C8.47412 11.0679 8.48437 11.0474 8.4707 11.0953Z" fill="white"/>
<defs>
<linearGradient id="paint0_linear_2618_64312" x1="16" y1="0" x2="16" y2="32" gradientUnits="userSpaceOnUse">
<stop stop-color="#1A0B39"/>
<stop offset="1"/>
</linearGradient>
</defs>
</svg>
