<svg width="32" height="32" viewBox="0 0 32 32" fill="none" xmlns="http://www.w3.org/2000/svg">
<rect width="32" height="32" fill="url(#paint0_linear_2515_51793)"/>
<path fill-rule="evenodd" clip-rule="evenodd" d="M9.57421 22.9999V21.5443H22.4255V23L9.57421 22.9999ZM17.7007 9.62229L15.9818 11.2406L14.299 9.62229L15.9818 8L17.7007 9.62229ZM17.9293 19.6054V13.4143C19.0723 13.5903 20.1829 13.9242 21.2267 14.4057L19.0958 19.3738C19.03 19.5117 18.8884 19.6015 18.7308 19.6053C18.5708 19.6108 17.9293 19.6054 17.9293 19.6054ZM16.4194 11.8061V20.9026C16.4194 20.9026 18.9 20.8997 19.5455 20.9026C20.0843 20.9045 20.2768 20.4359 20.2768 20.4359L22.5415 15.1122C22.7597 15.2472 22.973 15.3886 23.1814 15.5366L20.8278 20.9026H22.4686C23.3123 18.9564 24.1561 17.0104 25 15.0648C22.6225 13.0481 19.587 11.8953 16.4194 11.8061ZM14.0704 19.6054V13.4143C12.9274 13.5903 11.8168 13.9242 10.773 14.4057L12.9041 19.3738C12.9699 19.5117 13.1115 19.6015 13.2691 19.6053C13.429 19.6108 14.0704 19.6054 14.0704 19.6054ZM15.5805 11.8061V20.9026C15.5805 20.9026 13.0998 20.8997 12.4544 20.9026C11.9154 20.9045 11.7231 20.4359 11.7231 20.4359L9.45825 15.1122C9.24027 15.2472 9.02703 15.3886 8.81854 15.5366L11.172 20.9026H9.53116C8.68741 18.9564 7.84369 17.0104 7 15.0648C9.37751 13.0481 12.4129 11.8953 15.5805 11.8061Z" fill="#FFCC00"/>
<defs>
<linearGradient id="paint0_linear_2515_51793" x1="16" y1="0" x2="16" y2="32" gradientUnits="userSpaceOnUse">
<stop stop-color="#E61A33"/>
<stop offset="1" stop-color="#960000"/>
</linearGradient>
</defs>
</svg>
