<svg width="32" height="32" viewBox="0 0 32 32" fill="none" xmlns="http://www.w3.org/2000/svg">
<g clip-path="url(#clip0_2624_65052)">
<rect width="32" height="32" fill="url(#paint0_linear_2624_65052)"/>
<g clip-path="url(#clip1_2624_65052)">
<path d="M15.6419 29.5H10.6163V28.0641H7.74449V26.6282H6.30859V25.1923H25.6932V26.6282H24.2573V28.0641H21.3855V29.5H15.6419Z" fill="#7E18F8"/>
<path d="M27.8458 20.8846H3.43555V23.7564H4.87144V25.1923H27.1279V23.7564H28.5638V20.8846H27.8458Z" fill="#8F17F9"/>
<path d="M29.2821 10.1154H28.5641V7.24359H27.1282V5.80769H25.6923V4.37179H24.2564V2.9359H21.3846V1.5H10.6154V2.9359H7.74359V4.37179H6.30769V5.80769H4.87179V7.24359H3.4359V10.1154H2V12.2692H30V10.1154H29.2821Z" fill="#FA34F3"/>
<path d="M29.2821 12.2692H2V16.5769H30V12.2692H29.2821Z" fill="#CF15F9"/>
<path d="M29.2821 16.5769H2V20.8846H30V16.5769H29.2821Z" fill="#AC15F9"/>
<path d="M20.1691 17.9554V18.45H21.1577V16.9675H20.1691V17.9554ZM19.1812 18.45H16.71V19.4379H18.6865V20.4265H19.6751V19.4379H20.1691V18.45H19.1812ZM17.6986 16.9675H20.1691V15.9789H17.6986V16.9675ZM16.71 14.4964V15.9789H17.6986V14.4964H16.71ZM20.1691 13.5077H19.6751V12.5198H18.6865V13.5077H17.6986V14.4964L21.1577 14.4963V13.5077H20.1691ZM26.594 13.5077H22.1463V14.4963H24.1228V19.4379H25.1114V14.4963H27.0879V13.5077H26.594ZM14.7335 13.5077V15.9789H12.2623V13.5077H11.2737V19.4379H12.2623V16.9675H14.7335V19.4379H15.7214V13.5077H14.7335ZM9.29716 13.5077H6.33203V14.4963H10.2858V13.5077H9.29716ZM10.2858 18.45V15.9789H7.32065V16.9675H9.29716V18.45H10.2858Z" fill="white"/>
<path d="M6.33237 19.438H9.29749V18.4501H6.33237V19.438ZM5.34375 14.4964V18.4501H6.33237V14.4964H5.34375Z" fill="white"/>
</g>
</g>
<defs>
<linearGradient id="paint0_linear_2624_65052" x1="16" y1="0" x2="16" y2="32" gradientUnits="userSpaceOnUse">
<stop stop-color="#FA34F3"/>
<stop offset="0.301106" stop-color="#FA34F3"/>
<stop offset="0.681859" stop-color="#8F17F9"/>
<stop offset="1" stop-color="#7E18F8"/>
</linearGradient>
<clipPath id="clip0_2624_65052">
<rect width="32" height="32" fill="white"/>
</clipPath>
<clipPath id="clip1_2624_65052">
<rect width="28" height="28" fill="white" transform="translate(2 1.5)"/>
</clipPath>
</defs>
</svg>
