<svg width="32" height="32" viewBox="0 0 32 32" fill="none" xmlns="http://www.w3.org/2000/svg">
<rect width="32" height="32" fill="url(#paint0_linear_2624_64085)"/>
<path d="M22.7826 11.75L22.9372 12.0058C23.7078 13.2999 24.1144 14.7782 24.114 16.2844C24.1001 20.8187 20.4706 24.5 16.0004 24.5H15.9865C11.5163 24.5 7.87285 20.7901 7.88676 16.2558C7.88676 14.735 8.30712 13.2568 9.07753 11.9772L9.21817 11.7361L9.96076 12.4895C9.81356 12.7047 9.69584 12.9386 9.61071 13.185C9.32757 13.9695 9.36607 14.8342 9.71781 15.5905C10.0695 16.3468 10.706 16.9334 11.4884 17.2225C11.9484 17.3863 12.4405 17.4395 12.9249 17.3777C13.4093 17.3159 13.8723 17.141 14.2764 16.867L16.0004 18.6296L17.9763 16.6251C18.1586 16.7534 18.3688 16.8531 18.5929 16.9381C20.177 17.5068 21.9141 16.6676 22.4743 15.0758C22.8104 14.1377 22.6567 13.1571 22.166 12.3751L22.7826 11.75ZM10.8718 13.4129L13.1977 15.7581C12.9172 15.9861 12.5672 16.1136 12.1885 16.1136C11.2783 16.1136 10.5349 15.3602 10.5349 14.4368C10.5349 14.0527 10.6616 13.6973 10.8718 13.4129ZM18.9854 15.616L21.2835 13.2854C21.4659 13.5559 21.5633 13.882 21.5633 14.2235C21.5633 15.1469 20.8214 15.9003 19.9096 15.9003C19.5596 15.9003 19.2513 15.8006 18.9854 15.616ZM16.0282 17.3785L9.33021 10.5554L9.59603 10.2718C11.2497 8.4945 13.506 7.5 15.9308 7.5H15.9448C18.3974 7.5 20.7511 8.56636 22.3908 10.4132L22.6435 10.6983L16.029 17.3785H16.0282ZM10.4228 10.5554L16.0282 16.2558L21.564 10.6697C20.0788 9.16291 18.0613 8.29591 15.9594 8.29591H15.9448C13.8568 8.29591 11.9096 9.09182 10.4236 10.5561L10.4228 10.5554Z" fill="white"/>
<defs>
<linearGradient id="paint0_linear_2624_64085" x1="16" y1="0" x2="16" y2="32" gradientUnits="userSpaceOnUse">
<stop stop-color="#00A6C4"/>
<stop offset="1" stop-color="#040D2C"/>
</linearGradient>
</defs>
</svg>
