<svg width="32" height="32" viewBox="0 0 32 32" fill="none" xmlns="http://www.w3.org/2000/svg">
<rect width="32" height="32" fill="url(#paint0_linear_2470_49485)"/>
<path d="M22.902 12.0478C22.5234 11.3919 21.539 9.93428 19.646 8.95038C17.9801 8.0758 16.4656 8.00292 16.087 8.00292C13.4746 7.93004 11.6194 9.2419 11.1651 9.56987C8.47692 11.5741 8.13617 14.5987 8.06044 15.3275C7.98472 16.0928 7.79542 17.9877 8.93125 19.9919C9.30986 20.7207 10.3321 22.2877 12.3766 23.2351C14.4211 24.219 16.3142 24.0004 16.9957 23.9275C19.4945 23.636 21.1226 22.3241 21.6905 21.8139V23.9275H24V15.4368H16.4656V17.7326H21.3876C21.1604 18.1334 20.7818 18.7165 20.2139 19.2995C19.4945 20.0283 18.813 20.3928 18.6237 20.5021C18.2451 20.7207 16.6928 21.5224 14.724 21.158C12.9445 20.83 11.3165 19.5911 10.635 17.8055C9.7642 15.5826 10.7864 13.6512 10.9379 13.3597C12.0359 11.3919 14.0046 10.8453 14.4211 10.6995C15.0269 10.5538 16.4278 10.2622 18.0179 10.8817C19.7595 11.5741 20.5546 12.8495 20.7818 13.2504L22.902 12.0478Z" fill="white"/>
<defs>
<linearGradient id="paint0_linear_2470_49485" x1="16" y1="0" x2="16" y2="32" gradientUnits="userSpaceOnUse">
<stop stop-color="#59EC73"/>
<stop offset="1" stop-color="#3F8C4B"/>
</linearGradient>
</defs>
</svg>
