<svg width="32" height="32" viewBox="0 0 32 32" fill="none" xmlns="http://www.w3.org/2000/svg">
<rect width="32" height="32" fill="url(#paint0_linear_2624_64116)"/>
<path d="M23.2224 8.5H25.1536L17.323 17.4418C17.1245 17.6667 17.1113 18.0106 17.3097 18.2487L21.8203 23.5H19.8097L15.6431 18.6323L15.4314 18.3677C15.233 18.1428 15.2462 17.7857 15.4447 17.5608L23.2224 8.5Z" fill="white"/>
<path d="M18.8696 18.2487C18.7373 18.1032 18.6977 17.8915 18.7373 17.7063C18.777 17.6005 18.8432 17.4947 18.9225 17.4153L19.4384 16.8466L25.1924 23.5H23.367C23.367 23.5 19.9939 19.5582 18.8696 18.2487Z" fill="white"/>
<path d="M8.81722 23.5H6.80664L12.9707 16.3704C13.1691 16.1455 13.1691 15.8016 12.9707 15.5767L6.85955 8.5H8.79077L14.9416 15.6296C15.1003 15.8413 15.1267 16.1455 14.9548 16.3439C13.341 18.209 8.81722 23.5 8.81722 23.5Z" fill="white"/>
<path d="M12.178 8.5H10.3262L16.0272 15.1005C16.0272 15.1005 16.0405 15.0873 16.6754 14.3333C16.8473 14.1349 16.887 13.8836 16.6886 13.6852C15.4981 12.4682 12.178 8.5 12.178 8.5Z" fill="white"/>
<path d="M17.7317 13.1032L21.6868 8.5H19.8085L17.745 10.9074L17.1497 11.6085C16.9513 11.8333 16.9381 12.1772 17.1365 12.4153C17.282 12.5873 17.7317 13.1032 17.7317 13.1032Z" fill="white"/>
<path d="M14.2949 18.8969L10.3398 23.5H12.2049L14.2684 21.0926L14.8636 20.3916C15.0621 20.1667 15.0753 19.8228 14.8769 19.5847C14.7314 19.4127 14.2949 18.8969 14.2949 18.8969Z" fill="white"/>
<defs>
<linearGradient id="paint0_linear_2624_64116" x1="16" y1="0" x2="16" y2="32" gradientUnits="userSpaceOnUse">
<stop stop-color="#17B5CB"/>
<stop offset="1" stop-color="#007687"/>
</linearGradient>
</defs>
</svg>
