<svg width="32" height="32" viewBox="0 0 32 32" fill="none" xmlns="http://www.w3.org/2000/svg">
<rect width="32" height="32" fill="url(#paint0_linear_2515_52625)"/>
<path fill-rule="evenodd" clip-rule="evenodd" d="M4 18.9169V14.2138C4.42755 14.2138 4.78385 14.2138 5.06888 14.285C5.14014 14.4276 5.14014 14.6413 5.14014 14.7838C6.35154 13.7862 7.49169 14 7.9905 14.9264C8.48931 14.3563 9.05938 14.0713 9.84323 14.1425C10.5558 14.2138 10.9834 14.6413 10.9834 15.2827V18.9169H9.91449C9.84323 18.9169 9.77197 18.7031 9.77197 18.6318V16.1378C9.77197 15.7815 9.77197 15.4252 9.34442 15.2827C8.98812 15.2114 8.41805 15.3539 8.20428 15.7102C8.13302 15.7815 8.13302 15.924 8.13302 16.0665V16.0665V18.9169H6.85036V15.924C6.85036 15.4252 6.56532 15.2114 6.13777 15.2114C5.63896 15.2114 5.2114 15.5677 5.2114 15.9952V18.9169H4ZM16.9691 16.4941C16.9691 17.9192 15.9002 18.9881 14.4751 18.9881C13.0499 18.9881 11.981 17.9905 11.981 16.4941C11.981 15.0689 13.0499 14 14.4751 14C15.9002 14 16.9691 15.0689 16.9691 16.4941ZM28.1568 16.4941C28.1568 17.9192 27.0879 18.9881 25.6627 18.9881C24.2375 18.9881 23.1686 17.9905 23.1686 16.4941C23.1686 15.0689 24.2375 14 25.6627 14C27.0879 14 28.1568 15.0689 28.1568 16.4941ZM19.1069 16.2803V18.9169C18.6793 18.9169 18.323 18.9169 17.8955 18.9881V14.285H19.1069V14.7838C19.2494 14.7126 19.3207 14.6413 19.3919 14.5701C19.8907 14.1425 20.5321 14 21.1734 14.1425C21.8147 14.285 22.2423 14.7126 22.2423 15.2827V18.9169H21.0309V15.9952C20.9596 15.4964 20.7458 15.2114 20.1758 15.2114C19.4632 15.2114 19.1069 15.5677 19.1069 16.2803ZM25.7351 15.2114C25.0225 15.2114 24.5237 15.7815 24.5237 16.5653C24.5237 17.3492 24.9512 17.9192 25.7351 17.9192C26.4477 17.9192 26.9465 17.3492 26.9465 16.5653C26.9465 15.7815 26.4477 15.2114 25.7351 15.2114ZM15.6865 16.4941C15.6152 16.7791 15.5439 17.0641 15.4727 17.2779C15.2589 17.7055 14.9026 17.9193 14.4751 17.9193C14.0475 17.9193 13.6912 17.7055 13.4774 17.3492C13.2637 16.8504 13.2637 16.3516 13.4774 15.8527C13.6912 15.3539 14.2613 15.1402 14.7601 15.2827C15.2589 15.3539 15.6152 15.8527 15.6865 16.4941Z" fill="white"/>
<defs>
<linearGradient id="paint0_linear_2515_52625" x1="16" y1="0" x2="16" y2="32" gradientUnits="userSpaceOnUse">
<stop stop-color="#3E424B"/>
<stop offset="1" stop-color="#171717"/>
</linearGradient>
</defs>
</svg>
