<svg width="32" height="32" viewBox="0 0 32 32" fill="none" xmlns="http://www.w3.org/2000/svg">
<rect width="32" height="32" fill="url(#paint0_linear_2515_52425)"/>
<path d="M18.6891 24.2158H13.3109C13.1949 24.2158 13.0837 24.2591 13.0016 24.3364C12.9196 24.4136 12.8735 24.5183 12.8735 24.6275C12.8735 24.7367 12.9196 24.8415 13.0016 24.9187C13.0837 24.9959 13.1949 25.0393 13.3109 25.0393H18.6891C18.8051 25.0393 18.9163 24.9959 18.9984 24.9187C19.0804 24.8415 19.1265 24.7367 19.1265 24.6275C19.1265 24.5183 19.0804 24.4136 18.9984 24.3364C18.9163 24.2591 18.8051 24.2158 18.6891 24.2158Z" fill="white"/>
<path d="M11.4706 8.38462C11.0158 8.38462 10.6471 8.76345 10.6471 9.23077V22.7692C10.6471 23.2365 11.0158 23.6154 11.4706 23.6154H20.5294C20.9842 23.6154 21.3529 23.2365 21.3529 22.7692V9.23077C21.3529 8.76345 20.9842 8.38462 20.5294 8.38462H11.4706Z" fill="white"/>
<path fill-rule="evenodd" clip-rule="evenodd" d="M20.5634 5H11.4366C10.7906 5.00069 10.1713 5.24261 9.71446 5.67269C9.25767 6.10277 9.00073 6.68589 9 7.29412V24.7059C9.00073 25.3141 9.25767 25.8972 9.71446 26.3273C10.1713 26.7574 10.7906 26.9993 11.4366 27H20.5634C21.2094 26.9993 21.8287 26.7574 22.2855 26.3273C22.7423 25.8972 22.9993 25.3141 23 24.7059V7.29412C22.9993 6.68589 22.7423 6.10277 22.2855 5.67269C21.8287 5.24261 21.2094 5.00069 20.5634 5ZM18.7431 5.82353V6.35576C18.7429 6.46327 18.6974 6.56632 18.6167 6.64231C18.5359 6.71831 18.4264 6.76105 18.3123 6.76118H13.689C13.5748 6.76105 13.4654 6.7183 13.3847 6.6423C13.3039 6.56629 13.2585 6.46325 13.2584 6.35576V5.82353H18.7431ZM22.1251 24.7059C22.1246 25.0958 21.9599 25.4696 21.6671 25.7453C21.3743 26.021 20.9773 26.176 20.5632 26.1765H11.4366C11.0225 26.176 10.6255 26.021 10.3327 25.7453C10.0398 25.4696 9.87514 25.0958 9.87467 24.7059V7.29412C9.87514 6.90423 10.0398 6.53043 10.3327 6.25474C10.6255 5.97904 11.0225 5.82397 11.4366 5.82353H12.3827V6.35576C12.3831 6.68159 12.5208 6.99395 12.7655 7.22434C13.0102 7.45474 13.3419 7.58433 13.688 7.58471H18.3113C18.6573 7.58433 18.9891 7.45474 19.2339 7.22436C19.4786 6.99398 19.6163 6.68161 19.6168 6.35576V5.82353H20.5634C20.9775 5.82403 21.3744 5.97913 21.6672 6.25482C21.9599 6.53051 22.1246 6.90427 22.1251 7.29412V24.7059Z" fill="white"/>
<defs>
<linearGradient id="paint0_linear_2515_52425" x1="16" y1="0" x2="16" y2="32" gradientUnits="userSpaceOnUse">
<stop stop-color="#6733C8"/>
<stop offset="1" stop-color="#3D197E"/>
</linearGradient>
</defs>
</svg>
