<svg width="32" height="32" viewBox="0 0 32 32" fill="none" xmlns="http://www.w3.org/2000/svg">
<rect width="32" height="32" fill="url(#paint0_linear_2624_64249)"/>
<path d="M20.5255 9.26667L17.3922 13.9167C17.1755 14.2333 17.5922 14.6167 17.8922 14.35L20.9755 11.6667C21.0589 11.6 21.1755 11.65 21.1755 11.7667V20.15C21.1755 20.2667 21.0255 20.3167 20.9589 20.2333L11.6255 9.06667C11.3255 8.7 10.8922 8.5 10.4089 8.5H10.0755C9.20885 8.5 8.49219 9.21667 8.49219 10.1V21.9C8.49219 22.7833 9.20885 23.5 10.0922 23.5C10.6422 23.5 11.1589 23.2167 11.4589 22.7333L14.5922 18.0833C14.8089 17.7667 14.3922 17.3833 14.0922 17.65L11.0089 20.3167C10.9255 20.3833 10.8089 20.3333 10.8089 20.2167V11.85C10.8089 11.7333 10.9589 11.6833 11.0255 11.7667L20.3589 22.9333C20.6589 23.3 21.1089 23.5 21.5755 23.5H21.9089C22.7922 23.5 23.5089 22.7833 23.5089 21.9V10.1C23.5089 9.21667 22.7922 8.5 21.9089 8.5C21.3422 8.5 20.8255 8.78333 20.5255 9.26667Z" fill="white"/>
<defs>
<linearGradient id="paint0_linear_2624_64249" x1="16" y1="0" x2="16" y2="32" gradientUnits="userSpaceOnUse">
<stop stop-color="#1A0B39"/>
<stop offset="1"/>
</linearGradient>
</defs>
</svg>
