<svg width="32" height="32" viewBox="0 0 32 32" fill="none" xmlns="http://www.w3.org/2000/svg">
<rect width="32" height="32" fill="url(#paint0_linear_2515_52584)"/>
<g clip-path="url(#clip0_2515_52584)">
<path d="M7 22.9665C7 18.3222 7 13.669 7 9.02467C7.03675 8.96251 7.08268 8.90035 7.10106 8.83818C7.4226 7.66601 8.30455 7 9.57235 7C14.1199 7 18.6674 7 23.2058 7C23.4079 7 23.61 7 23.7938 7.0444C24.9329 7.29304 25.6955 8.19882 25.7138 9.33547C25.723 9.93932 25.7138 10.5432 25.7138 11.1825C25.8884 11.147 26.0078 11.1204 26.1272 11.1026C26.706 11.0138 26.9633 11.2092 26.9908 11.7775C27 11.9107 26.9908 12.0528 26.9265 12.1682C26.752 12.5057 26.5498 12.8254 26.311 13.225C26.3937 13.4914 26.4396 13.8555 26.0537 14.0686C25.7506 14.2373 25.7046 14.4593 25.7046 14.7612C25.7138 17.3187 25.7138 19.8762 25.7046 22.4425C25.7046 22.6645 25.7046 22.8865 25.6587 23.0997C25.4107 24.2541 24.4736 24.9911 23.2333 24.9911C19.8525 25 16.4718 24.9911 13.091 24.9911C11.8783 24.9911 10.6748 25 9.4621 24.9911C8.29536 24.9822 7.38585 24.2896 7.08268 23.1973C7.08268 23.1263 7.03675 23.0464 7 22.9665ZM15.5071 9.06019C15.5898 9.15787 15.6265 9.21115 15.6633 9.24667C16.5544 10.0814 16.8117 11.1026 16.6463 12.2481C16.4166 13.9087 15.0478 15.374 13.4033 15.7292C12.0161 16.0311 10.8861 15.3651 10.537 14.0331C10.3349 13.2516 10.4635 12.5057 10.7942 11.7864C11.2444 10.7918 11.9977 10.0548 12.9256 9.45979C13.0634 9.37099 13.192 9.26443 13.3298 9.17563C13.3114 9.14899 13.2931 9.12235 13.2747 9.08683C13.192 9.10459 13.1001 9.11347 13.0266 9.14899C11.5384 9.84164 10.3349 10.8273 9.63666 12.3192C9.23243 13.1806 9.01194 14.0775 9.10381 15.0365C9.2508 16.4662 10.1144 17.3631 11.52 17.5141C12.3192 17.6029 13.0726 17.3809 13.7616 16.999C15.6725 15.96 16.6463 14.2817 17.0873 12.2748C17.2986 11.298 17.0965 10.3922 16.4626 9.59299C16.4258 9.54859 16.4166 9.49531 16.3799 9.40651C16.5177 9.38875 16.6187 9.38875 16.7198 9.37099C17.124 9.29995 17.3721 9.45091 17.5191 9.84164C17.8222 10.5964 17.9968 11.3601 17.859 12.186C17.5834 13.8555 16.6739 15.1786 15.5071 16.3685C13.7249 18.1889 12.3927 20.2758 11.5659 22.6556C11.52 22.7977 11.4924 22.9487 11.4465 23.1174C13.2471 23.1174 14.9835 23.1174 16.7841 23.1174C16.6647 22.9842 16.582 22.9043 16.5177 22.8155C16.2788 22.4425 15.9665 22.0873 15.8287 21.6788C15.1029 19.5476 16.5728 16.999 18.8236 16.4307C20.2292 16.0755 21.3592 16.6971 21.7818 18.038C21.9564 18.5886 21.9472 19.148 21.8094 19.6986C21.4786 21.0217 20.6243 21.9719 19.4759 22.7089C19.3197 22.8066 19.1727 22.9221 19.0257 23.0197C19.0441 23.0553 19.0717 23.0908 19.09 23.1263C19.2186 23.073 19.3656 23.0464 19.4851 22.9665C20.0271 22.6379 20.6151 22.3537 21.0928 21.9541C22.5811 20.6931 23.362 19.1125 23.2425 17.1677C23.1415 15.6048 21.9839 14.5836 20.3762 14.6991C19.8525 14.7346 19.3105 14.8678 18.8328 15.0809C16.8392 16.0044 15.8103 17.6473 15.3418 19.6542C15.1029 20.6576 15.2223 21.6256 15.8838 22.4869C15.9022 22.5047 15.8838 22.5402 15.8838 22.6201C15.6725 22.6201 15.4612 22.6024 15.2591 22.6201C14.9283 22.6556 14.7538 22.5136 14.6435 22.2294C14.3679 21.519 14.2577 20.7997 14.3863 20.0538C14.6344 18.633 15.3969 17.4785 16.3156 16.3774C17.0413 15.5072 17.9049 14.8145 18.989 14.4149C20.1098 14.0064 21.2306 13.9531 22.2779 14.6547C22.4525 14.7701 22.6546 14.8589 22.8567 14.9211C23.6835 15.1697 24.1796 14.9122 24.345 14.1219C24.5103 14.1041 24.6941 14.1041 24.8686 14.0686C25.135 14.0242 25.4107 13.9887 25.6679 13.8999C25.9251 13.8111 26.0721 13.5979 25.9802 13.3315C25.8884 13.0918 26.0078 12.9586 26.1456 12.7898C26.3385 12.5501 26.5223 12.2837 26.6141 11.9906C26.7611 11.52 26.4947 11.298 26.017 11.4578C25.7322 11.5555 25.4658 11.6887 25.1994 11.8041C24.7492 11.369 24.6481 11.3513 24.0969 11.6088C23.8764 11.7065 23.6651 11.8219 23.4538 11.9285C23.1966 11.4223 23.0496 11.3513 22.4984 11.4933C21.8094 11.6621 21.249 12.0439 20.8172 12.5856C20.7345 12.6922 20.6794 12.8254 20.5599 13.0207C21.4878 13.074 22.3238 13.1539 23.1599 13.1628C24.0051 13.1717 24.7768 12.8609 25.5301 12.479C25.4382 12.6478 25.3372 12.781 25.1994 12.8786C24.3909 13.4114 23.4906 13.5713 22.5351 13.4914C21.249 13.3937 19.9628 13.3138 18.7226 13.7666C18.7134 13.7666 18.6858 13.7311 18.6491 13.7045C19.6229 12.2659 20.413 10.7474 20.909 9.03355C19.0808 9.06019 17.3261 9.06019 15.5071 9.06019ZM25.1167 14.4859C24.8227 14.3883 24.6941 14.4504 24.6941 14.7168C24.6941 14.8234 24.6941 14.9211 24.6941 15.0276C24.6941 17.4963 24.6941 19.9739 24.6941 22.4425C24.6941 23.3927 24.0694 24.0232 23.1047 24.0232C18.6307 24.0321 14.1658 24.0232 9.69178 24.0321C8.83739 24.0321 8.10243 23.3483 8.10243 22.4869C8.13 18.1623 8.11162 13.8466 8.11162 9.52195C8.10243 8.5629 8.71796 7.97681 9.71015 7.97681C14.1474 7.97681 18.5847 7.97681 23.0312 7.97681C24.051 7.97681 24.6757 8.59842 24.6849 9.59299C24.6849 10.0104 24.6941 10.4188 24.6849 10.8362C24.6849 11.0937 24.8135 11.1648 25.1167 11.1204C25.1167 10.632 25.1167 10.1524 25.1167 9.66404C25.1167 8.36754 24.3174 7.58609 22.9853 7.58609C18.5939 7.58609 14.2026 7.60385 9.80202 7.57721C8.75471 7.56833 7.64309 8.23434 7.64309 9.66404C7.65227 13.8999 7.64309 18.1268 7.64309 22.3626C7.64309 23.6236 8.46073 24.4139 9.76527 24.4139C14.175 24.4139 18.5847 24.4139 22.9945 24.4139C24.3174 24.4139 25.1167 23.6413 25.1167 22.3715C25.1167 19.9028 25.1167 17.4253 25.1167 14.9566C25.1167 14.7967 25.1167 14.6369 25.1167 14.4859Z" fill="#008247"/>
<path d="M15.5077 9.06018C17.3267 9.06018 19.0814 9.06018 20.9096 9.06018C20.4135 10.774 19.6235 12.2925 18.6497 13.7311C18.6864 13.7578 18.714 13.7933 18.7231 13.7933C19.9634 13.3404 21.2496 13.4203 22.5357 13.518C23.4912 13.5979 24.4007 13.4381 25.2 12.9053C25.3378 12.8165 25.448 12.6833 25.5307 12.5057C24.7774 12.8875 24.0056 13.2072 23.1604 13.1894C22.3244 13.1806 21.4884 13.1006 20.5605 13.0474C20.6708 12.852 20.7259 12.7188 20.8178 12.6122C21.2587 12.0705 21.81 11.6976 22.499 11.52C23.0502 11.3868 23.1972 11.4489 23.4544 11.9551C23.6657 11.8485 23.877 11.7331 24.0975 11.6354C24.6487 11.3779 24.759 11.3957 25.2 11.8308C25.4664 11.7153 25.7328 11.5821 26.0176 11.4845C26.4953 11.3246 26.7617 11.5466 26.6147 12.0173C26.5229 12.3014 26.3391 12.5678 26.1462 12.8165C26.0084 12.9941 25.8982 13.1184 25.9808 13.3582C26.0727 13.6246 25.9257 13.8377 25.6685 13.9265C25.4113 14.0153 25.1356 14.0508 24.8692 14.0952C24.6947 14.1218 24.5109 14.1307 24.3456 14.1485C24.1802 14.9388 23.6933 15.1963 22.8573 14.9477C22.6552 14.8855 22.4531 14.7967 22.2785 14.6813C21.2312 13.9798 20.1104 14.033 18.9896 14.4415C17.9055 14.8323 17.0511 15.5338 16.3162 16.404C15.3975 17.4963 14.635 18.6596 14.3869 20.0804C14.2583 20.8263 14.3685 21.5545 14.6441 22.256C14.7544 22.5491 14.9289 22.6912 15.2597 22.6468C15.471 22.6201 15.6823 22.6468 15.8844 22.6468C15.8844 22.5668 15.8936 22.5313 15.8844 22.5136C15.2229 21.6522 15.1127 20.6843 15.3423 19.6808C15.8109 17.665 16.849 16.0222 18.8334 15.1075C19.3019 14.8855 19.8531 14.7612 20.3768 14.7257C21.9845 14.6103 23.1421 15.6315 23.2431 17.1944C23.3626 19.1391 22.5817 20.7198 21.0934 21.9808C20.6157 22.3892 20.0277 22.6645 19.4857 22.9931C19.3662 23.0641 19.2192 23.0996 19.0906 23.1529C19.0723 23.1174 19.0447 23.0819 19.0263 23.0464C19.1733 22.9398 19.3203 22.8332 19.4765 22.7356C20.6248 21.9985 21.4792 21.0483 21.81 19.7252C21.9478 19.1658 21.957 18.6152 21.7824 18.0646C21.3598 16.7237 20.2206 16.1021 18.8242 16.4573C16.5734 17.0256 15.1035 19.5742 15.8293 21.7055C15.9671 22.114 16.2794 22.4692 16.5183 22.8421C16.5826 22.9398 16.6653 23.0108 16.7847 23.144C14.9841 23.144 13.2477 23.144 11.4471 23.144C11.4838 22.9753 11.5114 22.8244 11.5665 22.6823C12.3933 20.3024 13.7254 18.2245 15.5077 16.3952C16.6745 15.2052 17.584 13.8732 17.8596 12.2126C17.9974 11.3957 17.8228 10.632 17.5197 9.86827C17.3635 9.48643 17.1246 9.33546 16.7204 9.39763C16.6193 9.41539 16.5183 9.42427 16.3805 9.43315C16.4172 9.51307 16.4264 9.57523 16.4632 9.61963C17.0971 10.4188 17.3084 11.3335 17.0879 12.3014C16.6469 14.3083 15.6731 15.9867 13.7622 17.0256C13.0732 17.3986 12.3198 17.6206 11.5206 17.5407C10.1242 17.3542 9.26058 16.4662 9.11359 15.0365C9.01254 14.0863 9.24221 13.1894 9.64644 12.3192C10.3355 10.8273 11.5389 9.84163 13.0272 9.14898C13.1007 9.11346 13.1926 9.11346 13.2753 9.08682C13.2937 9.11346 13.312 9.1401 13.3304 9.17562C13.1926 9.2733 13.064 9.37098 12.9262 9.45979C11.9983 10.0459 11.245 10.7829 10.7948 11.7864C10.4641 12.5057 10.3355 13.2605 10.5376 14.033C10.8775 15.3651 12.0167 16.0311 13.4039 15.7292C15.0484 15.3739 16.4172 13.9087 16.6469 12.2481C16.8123 11.0937 16.555 10.0725 15.6639 9.24666C15.6271 9.20226 15.5904 9.15786 15.5077 9.06018Z" fill="#EBC729"/>
<path d="M25.1162 14.4859C25.1162 14.6458 25.1162 14.8056 25.1162 14.9566C25.1162 17.4253 25.1162 19.9028 25.1162 22.3715C25.1162 23.6413 24.3169 24.4139 22.994 24.4139C18.5842 24.4139 14.1745 24.4139 9.76476 24.4139C8.4694 24.4139 7.64258 23.6236 7.64258 22.3537C7.64258 18.1179 7.64258 13.891 7.64258 9.65515C7.64258 8.23433 8.7542 7.55944 9.80151 7.56832C14.1929 7.59496 18.5842 7.5772 22.9848 7.5772C24.3261 7.5772 25.1162 8.35865 25.1162 9.65515C25.1162 10.1436 25.1162 10.6231 25.1162 11.1115C24.8222 11.1559 24.6844 11.0849 24.6844 10.8273C24.6936 10.41 24.6844 10.0015 24.6844 9.58411C24.6752 8.58954 24.0505 7.96793 23.0307 7.96793C18.5934 7.96793 14.1561 7.96793 9.70964 7.96793C8.71745 7.97681 8.10193 8.5629 8.10193 9.52195C8.10193 13.8466 8.11111 18.1623 8.09274 22.4869C8.08355 23.3394 8.8277 24.0321 9.68208 24.0321C14.1561 24.0232 18.621 24.0321 23.095 24.0232C24.0597 24.0232 24.6844 23.3927 24.6844 22.4425C24.6936 19.9738 24.6844 17.4963 24.6844 15.0276C24.6844 14.9211 24.6844 14.8234 24.6844 14.7168C24.6844 14.4504 24.813 14.3794 25.1162 14.4859Z" fill="white"/>
</g>
<defs>
<linearGradient id="paint0_linear_2515_52584" x1="16" y1="0" x2="16" y2="32" gradientUnits="userSpaceOnUse">
<stop stop-color="#F6F2FF"/>
<stop offset="1" stop-color="#E7FFF4"/>
</linearGradient>
<clipPath id="clip0_2515_52584">
<rect width="20" height="18" fill="white" transform="translate(7 7)"/>
</clipPath>
</defs>
</svg>
