<svg width="32" height="32" viewBox="0 0 32 32" fill="none" xmlns="http://www.w3.org/2000/svg">
<rect width="32" height="32" fill="url(#paint0_linear_2515_52610)"/>
<path fill-rule="evenodd" clip-rule="evenodd" d="M16.0261 7C20.9826 7 25 11.0813 25 15.9997C25 20.9705 20.9304 24.9995 16.0261 24.9995C11.0696 25.0518 7 21.0229 7 15.9997C7 11.0813 11.0696 7 16.0261 7Z" fill="#F91F2B"/>
<path fill-rule="evenodd" clip-rule="evenodd" d="M22.8612 12.8603H22.9655C22.9134 13.1219 22.809 13.2789 22.6525 13.4359C22.4438 13.5405 22.2351 13.5928 21.8699 13.5928H21.5568C20.409 13.5405 20.1481 14.744 20.2525 15.6858C20.3568 16.2614 20.5655 16.8369 20.8786 17.2555C21.1916 17.5695 21.609 17.7788 22.0264 17.4648C22.3395 17.2032 22.4438 16.5753 22.4438 16.2614C22.4438 15.6335 22.2351 14.6916 21.4525 14.6916C21.2438 14.6916 21.0351 14.7963 20.8264 15.0056C20.7221 15.1626 20.6699 15.4765 20.6699 15.8428H20.5134C20.409 15.1102 20.7742 14.4823 21.5568 14.43C22.496 14.43 23.0699 15.1626 23.0699 16.1044C23.0699 17.0462 22.496 17.9357 21.5568 17.9357C21.0351 17.9357 20.6699 17.7788 20.3568 17.3602C20.0438 16.9939 19.9395 16.4183 19.9395 15.6858C19.9395 14.744 20.096 14.1684 20.3568 13.7498C20.6699 13.3312 21.0351 13.1219 21.609 13.1219H22.0786C22.3916 13.1742 22.6003 13.1219 22.7047 13.0696C22.7568 13.0173 22.8612 12.9649 22.8612 12.8603Z" fill="white"/>
<path fill-rule="evenodd" clip-rule="evenodd" d="M16.288 14.4301L17.4359 16.9939L18.4793 14.6393L18.5837 14.4301H19.4707V14.5347H19.3663C19.262 14.5347 19.1054 14.6394 19.1054 14.7963V16.7323V17.5172C19.1054 17.6741 19.2098 17.7788 19.3663 17.7788H19.4707V17.8311H18.8967H18.2707V17.7265H18.375C18.4793 17.7265 18.6359 17.6218 18.6359 17.4649V16.68V14.9533L17.3315 17.8311H17.2793L16.0272 14.901V17.4649C16.0272 17.6218 16.1315 17.7265 16.2359 17.7265H16.288V17.8311H15.7141H15.4011V17.7265H15.5054C15.6098 17.7265 15.7663 17.6218 15.7663 17.4649V14.7963C15.7663 14.6394 15.7141 14.5347 15.5054 14.5347C15.3489 14.5347 15.1924 14.6917 15.088 14.901L13.888 17.5695C13.7837 17.7788 13.6272 17.8834 13.4185 17.8834L13.1576 17.8311L13.1054 17.4649C13.2098 17.5695 13.3141 17.6218 13.3663 17.6218C13.5228 17.6741 13.6272 17.6218 13.6793 17.5172L13.8359 17.2032L12.7402 14.9533C12.6359 14.744 12.5315 14.587 12.375 14.587V14.4824H13.0011H13.4707V14.587H13.3663C13.262 14.587 13.262 14.744 13.3141 14.8486L14.1489 16.6277L14.9315 14.9533C15.0359 14.7963 14.9315 14.6393 14.8272 14.6393V14.5347H16.288V14.4301Z" fill="white"/>
<path fill-rule="evenodd" clip-rule="evenodd" d="M11.3297 16.7323V14.7963V14.6916H9.76447V14.8486V16.7846V17.5695C9.76447 17.7264 9.86882 17.8311 9.97317 17.8311H10.0775H9.5036H8.92969V17.7264H8.98186C9.08621 17.7264 9.19056 17.6218 9.19056 17.4648V16.6799V14.744C9.19056 14.587 9.08621 14.4823 8.98186 14.4823H8.92969V14.3777H9.5036H9.60795H10.1297H11.0166H11.434H11.5906H12.1645V14.4823H12.1123C12.0079 14.4823 11.9036 14.587 11.9036 14.744V16.6799V17.4648C11.9036 17.6218 12.0079 17.7264 12.1123 17.7264H12.2166V17.8311H11.6427H11.0166V17.7264H11.121C11.2253 17.7264 11.3297 17.6218 11.3297 17.4648V16.7323Z" fill="white"/>
<defs>
<linearGradient id="paint0_linear_2515_52610" x1="16" y1="0" x2="16" y2="32" gradientUnits="userSpaceOnUse">
<stop stop-color="#F6F2FF"/>
<stop offset="1" stop-color="#FFD0D3"/>
</linearGradient>
</defs>
</svg>
