<svg width="32" height="32" viewBox="0 0 32 32" fill="none" xmlns="http://www.w3.org/2000/svg">
<rect width="32" height="32" fill="url(#paint0_linear_2515_52416)"/>
<path fill-rule="evenodd" clip-rule="evenodd" d="M16.3599 11.1314H15.2441C15.0615 11.111 14.8383 11.111 14.6154 11.0914C14.5548 11.111 14.5338 11.1715 14.5135 11.251C14.4934 11.3309 14.5135 11.3906 14.5548 11.4501L14.7981 11.4703C15.1017 11.5293 15.3248 11.5892 15.4676 11.6496C15.6092 11.7288 15.7102 11.8684 15.7514 12.0477C15.7918 12.227 15.812 12.4656 15.7918 12.7648C15.7711 13.1829 15.7514 13.6805 15.731 14.2581C15.7102 14.8365 15.67 15.4337 15.6291 16.0515C15.5891 17.0065 15.5017 19.3334 15.2372 20.0223C15.176 20.1816 15.0749 20.2815 14.9531 20.342C14.8107 20.4009 14.6478 20.4608 14.445 20.4814L14.1195 20.5211C14.0589 20.5604 14.0384 20.621 14.0589 20.7206C14.0589 20.7805 14.079 20.8398 14.1401 20.8999C14.4039 20.8802 14.6478 20.86 14.912 20.8398H16.5175C16.8218 20.86 17.0862 20.8802 17.3299 20.8999C17.3911 20.86 17.4316 20.8003 17.4316 20.7206C17.4316 20.6403 17.4115 20.5808 17.35 20.5211L16.7815 20.4814C16.5982 20.4608 16.456 20.4213 16.3548 20.342C16.3038 20.3014 16.2629 20.246 16.2325 20.1783C16.1126 19.8951 16.11 19.416 16.1162 19.1186C16.1293 18.5012 16.137 17.884 16.1569 17.2663C16.1773 16.6489 16.1976 16.1106 16.2175 15.6527C16.2372 15.2346 16.279 14.7959 16.2987 14.3578C16.319 13.9201 16.3389 13.4814 16.3599 13.0433H16.4002C16.5627 13.3818 16.7252 13.7204 16.8672 14.0988C17.0297 14.4576 17.1918 14.8163 17.3537 15.1551L18.7131 18.0025C18.8356 18.2424 18.9771 18.5411 19.139 18.8995C19.3221 19.2779 19.5041 19.6361 19.6668 19.9945C19.7527 20.1844 19.827 20.3622 19.89 20.5295C19.9062 20.5295 20.0199 20.8966 20.0326 20.9392C20.1107 21.017 20.2388 21.0151 20.3171 20.9392C20.4433 20.6424 20.5749 20.342 20.7216 20.0549C21.106 19.2081 21.5068 18.3994 21.9595 17.585L23.2783 15.0156C23.38 14.7959 23.4811 14.5569 23.623 14.2983C23.7652 14.0196 23.9069 13.7606 24.029 13.5415C24.1303 13.3023 24.2112 13.1432 24.2515 13.0832H24.272L24.3131 19.2386C24.3328 19.5569 24.3131 19.7948 24.2928 19.9744C24.2765 20.1169 24.2356 20.2523 24.0962 20.3218C24.0144 20.4213 23.8521 20.4608 23.5881 20.4814L23.141 20.5211C23.1003 20.5604 23.0802 20.621 23.1003 20.7206C23.1003 20.7805 23.1209 20.8398 23.1821 20.8999C23.4864 20.8802 23.811 20.86 24.1159 20.8398H25.8638C26.1681 20.86 26.4728 20.8802 26.7784 20.8999C26.8394 20.86 26.8593 20.8003 26.8593 20.7206C26.8794 20.6403 26.8593 20.5808 26.8188 20.5211L26.331 20.4814C26.1075 20.4608 25.945 20.4009 25.8428 20.3012C25.7424 20.2018 25.6608 20.082 25.6405 19.9224C25.6197 19.7433 25.5994 19.5232 25.5994 19.2842C25.5578 18.5432 25.5296 17.7902 25.5099 17.0475C25.4893 16.2497 25.4486 15.4936 25.4287 14.7772V12.8842C25.4287 12.5455 25.4486 12.2867 25.4893 12.0872C25.5307 11.9083 25.6319 11.7492 25.7735 11.6496C25.9159 11.5699 26.1589 11.5096 26.4835 11.4703L26.7882 11.4501C26.8291 11.4101 26.849 11.3504 26.8291 11.251C26.8291 11.1909 26.8085 11.1314 26.7681 11.0914C26.5244 11.111 26.2807 11.111 26.0578 11.1314H24.9624C24.7793 11.111 24.5761 11.111 24.3131 11.0914C24.2928 11.4295 24.171 11.8087 23.9883 12.247C23.7652 12.7042 23.5018 13.263 23.1772 13.9201L21.7565 16.7282C21.3882 17.4927 21.0527 18.2203 20.6013 18.9451H20.5608C20.2017 18.28 19.8707 17.5899 19.545 16.9079L17.8209 13.5213C17.598 13.0433 17.3948 12.5857 17.2325 12.1673C17.0903 11.7492 17.0297 11.3906 17.0498 11.0914C16.8066 11.111 16.583 11.111 16.3599 11.1314ZM8.03495 18.703C8.03495 19.2102 8.01461 19.5964 7.97328 19.8608C7.93238 20.3729 7.58807 20.5407 7.10265 20.5735L6.79174 20.614C6.69174 20.7126 6.69945 20.9262 6.81337 21C7.45446 20.9609 8.03409 20.9388 8.67732 20.9388C9.36316 20.9388 10.0025 20.9685 10.6862 21C10.7276 20.9594 10.749 20.8985 10.7695 20.8173C10.7695 20.7158 10.749 20.6542 10.7072 20.614L10.2929 20.5735C9.96143 20.5524 9.73381 20.4915 9.60962 20.3897C9.60213 20.3845 9.59463 20.379 9.58735 20.3733C9.46209 20.2712 9.37237 20.1152 9.33469 19.8734C9.29357 19.6094 9.2728 19.2239 9.29357 18.7173V17.2947C8.83834 17.3153 8.42487 17.2947 8.05229 17.234L8.03495 18.703ZM6.70759 11.2848C6.68725 11.3658 6.72879 11.4265 6.79088 11.4879L7.32877 11.548C7.55595 11.5691 7.72168 11.6296 7.82489 11.7313C7.9281 11.8123 7.99062 11.9548 8.01097 12.1778C8.03195 12.4011 8.05229 12.7267 8.05229 13.1524V16.1577C8.46598 16.1781 8.87946 16.1781 9.29357 16.1577V12.0153C9.2728 11.8531 9.29357 11.7313 9.33469 11.6296C9.35524 11.5691 9.43811 11.5073 9.54132 11.4879C9.66551 11.4675 9.87278 11.4675 10.1415 11.4675C10.9271 11.4879 11.5271 11.6906 11.9614 12.1171C12.375 12.543 12.5817 13.1322 12.5817 13.8638C12.6031 14.5131 12.4374 15.0614 12.0858 15.5077C11.7755 15.8943 11.3205 16.1781 10.6997 16.3202C10.1002 16.4625 9.25225 16.5234 8.11439 16.5026C7.12149 16.4835 6.04616 16.4221 4.86719 16.3004C6.17056 16.5642 7.14226 16.7467 7.76322 16.8074C8.77603 16.93 9.76893 16.909 10.6997 16.7675C11.1753 16.7059 11.6098 16.5846 12.0029 16.4425C12.375 16.2802 12.7476 16.0568 13.1405 15.7923C13.3679 15.6302 13.5748 15.3654 13.7613 15.0208C13.9062 14.6958 13.9887 14.3101 14.009 13.8428C13.9887 13.3349 13.8645 12.8892 13.6373 12.5028C13.4095 12.1171 13.1405 11.8123 12.7887 11.5897C12.4374 11.3862 12.0029 11.2232 11.5066 11.1217C11.0308 11.0408 10.4721 11 9.83124 11C9.21049 11 8.65206 11 8.15593 11.0202C7.65937 11.0408 7.20436 11.061 6.81101 11.1015C6.74934 11.1425 6.70759 11.2033 6.70759 11.2848Z" fill="white"/>
<defs>
<linearGradient id="paint0_linear_2515_52416" x1="16" y1="0" x2="16" y2="32" gradientUnits="userSpaceOnUse">
<stop stop-color="#F01010"/>
<stop offset="1" stop-color="#C40D0D"/>
</linearGradient>
</defs>
</svg>
