<svg width="32" height="32" viewBox="0 0 32 32" fill="none" xmlns="http://www.w3.org/2000/svg">
<rect width="32" height="32" fill="url(#paint0_linear_2515_52407)"/>
<path fill-rule="evenodd" clip-rule="evenodd" d="M14.1774 18.7495L14.1781 20.3929V20.8015C14.1794 22.3167 14.1808 24.0355 14.1774 24.4399C14.1774 24.8104 14.0024 24.9891 13.6469 24.9953C12.9415 25.0016 12.2299 25.0016 11.5244 24.9953C11.1623 24.9953 11 24.8167 11 24.4399V7.53493C11 7.17067 11.1563 7.01139 11.5117 7.01139C12.1199 7.01139 12.7282 7.00862 13.3358 7.00585H13.3378C14.789 6.99893 16.2402 6.992 17.6915 7.02386C20.6556 7.08826 22.8599 9.33963 22.9907 12.3701C23.0591 13.9836 22.76 15.4836 21.7367 16.7592C20.6999 18.0542 19.3204 18.6796 17.7042 18.7433C16.8136 18.7814 15.0016 18.7592 14.3819 18.7516L14.1774 18.7495ZM14.1895 16.064L15.1666 16.0626C15.8037 16.0612 16.4307 16.0598 17.0611 16.064C17.8658 16.0709 18.5217 15.7509 19.0206 15.1201C19.7945 14.1436 19.9944 13.0217 19.6825 11.8216C19.3271 10.456 18.3158 9.69073 16.9424 9.69073H14.1962C14.1895 11.8278 14.1895 13.9269 14.1895 16.064Z" fill="white"/>
<defs>
<linearGradient id="paint0_linear_2515_52407" x1="16" y1="0" x2="16" y2="32" gradientUnits="userSpaceOnUse">
<stop stop-color="#006AE3"/>
<stop offset="1" stop-color="#0060CE"/>
</linearGradient>
</defs>
</svg>
