<svg width="32" height="32" viewBox="0 0 32 32" fill="none" xmlns="http://www.w3.org/2000/svg">
<rect width="32" height="32" fill="url(#paint0_linear_2624_64328)"/>
<path d="M15.3778 5.24732C17.4052 5.1271 19.4647 5.59293 21.237 6.58714C22.6832 7.39153 23.9378 8.53509 24.8762 9.89822C25.6723 11.055 26.2415 12.3681 26.5325 13.7423C26.8361 15.164 26.8487 16.6473 26.5702 18.0743C26.2221 19.8787 25.3932 21.5853 24.2009 22.9828C23.1052 24.2695 21.704 25.2956 20.1431 25.9452C17.8808 26.8946 15.2901 27.0292 12.9389 26.33C11.507 25.9081 10.1669 25.1803 9.0304 24.2131C7.64764 23.0416 6.56603 21.516 5.92571 19.8201C5.06551 17.5676 5.0008 15.0245 5.73435 12.7281C6.26611 11.0559 7.21647 9.51888 8.47411 8.29466C9.71151 7.08333 11.2451 6.1756 12.9048 5.68125C13.708 5.4396 14.5403 5.29485 15.3778 5.24732Z" fill="white"/>
<path d="M9.36979 15.2204C9.41241 15.417 9.43787 15.617 9.48049 15.8138C9.50656 15.9347 9.54582 15.9052 9.60776 15.8531C9.72644 15.7534 9.84021 15.6479 9.97392 15.5676C10.0113 15.5749 10.0307 15.605 10.0515 15.632C10.4005 16.088 10.8651 16.3671 11.4122 16.5195C11.6594 16.5882 11.9102 16.6354 12.1844 16.6627C12.0985 16.56 12.0295 16.4655 11.9814 16.3576C11.894 16.1607 11.9246 15.9847 12.0721 15.8292C12.2521 15.6393 12.4895 15.5608 12.7305 15.498C13.2359 15.3664 13.7508 15.3532 14.2694 15.39C14.6874 15.4198 15.0983 15.4875 15.5013 15.6001C15.8374 15.6939 16.1674 15.8062 16.4651 15.9948C16.5068 16.0282 16.5357 16.0745 16.5758 16.1098C16.9589 16.5207 17.1824 17.0068 17.1978 17.568C17.2082 17.9556 17.1009 18.3257 16.9067 18.6665C16.5565 19.2807 16.0453 19.7263 15.436 20.0682C14.8091 20.4197 14.136 20.6276 13.4224 20.7049C12.1577 20.8419 10.9862 20.5678 9.9086 19.8965C9.01252 19.3384 8.32436 18.5754 7.76285 17.6906C7.49728 17.2723 7.27556 16.8307 7.07224 16.3796C7.0474 16.3244 7.04157 16.2628 7.01612 16.2174C7.03237 16.2711 7.06181 16.3318 7.00324 16.3891C6.98515 16.1607 7.00569 15.9325 7.01765 15.705C7.05047 15.0766 7.14277 14.4565 7.30837 13.8484C7.63129 12.6635 8.16796 11.5861 8.93156 10.6226C9.92762 9.36587 11.1708 8.43943 12.6588 7.84511C13.4521 7.52832 14.2758 7.33512 15.1284 7.25631C16.4645 7.13333 17.7593 7.30936 19.0218 7.75771C18.8298 8.12203 17.7332 9.09845 16.8816 9.66364C16.8586 9.41248 16.7985 9.17451 16.7148 8.94267C16.7105 8.88072 16.7657 8.8614 16.8 8.83196C16.9773 8.67985 17.1551 8.52867 17.3345 8.37901C17.3523 8.36429 17.3707 8.35049 17.3861 8.33363C17.4063 8.31185 17.4403 8.29376 17.4333 8.26003C17.4256 8.22323 17.3857 8.22476 17.3575 8.22016C17.2744 8.20697 17.1922 8.18704 17.107 8.18857C16.9905 8.17447 16.8755 8.1484 16.7574 8.14625C16.6669 8.14073 16.578 8.11773 16.4866 8.12509C16.4406 8.12203 16.394 8.12571 16.3486 8.11528C16.2719 8.09105 16.1934 8.10179 16.1152 8.10209C16.0686 8.10117 16.0223 8.09841 15.9757 8.10271C15.842 8.11037 15.708 8.08799 15.5749 8.11313C15.5424 8.12049 15.5096 8.12387 15.4764 8.12295C15.4378 8.12356 15.3995 8.12479 15.3608 8.12417C15.3102 8.12141 15.2602 8.12141 15.2115 8.13828C15.0707 8.15116 14.9297 8.1622 14.7904 8.18796C14.6227 8.22353 14.4503 8.23212 14.2835 8.27352C14.1305 8.31339 13.9732 8.33608 13.8229 8.38821C13.6233 8.44311 13.4261 8.50628 13.2295 8.57129C12.9431 8.68507 12.6527 8.78903 12.38 8.935C11.7581 9.23308 11.1926 9.61641 10.6728 10.0678C10.1944 10.4834 9.76753 10.947 9.39678 11.4613C9.21155 11.7183 9.04257 11.986 8.88955 12.2636C8.79233 12.4445 8.6988 12.627 8.61447 12.814C8.55221 12.9585 8.47892 13.0983 8.43108 13.2489C8.37005 13.3991 8.31946 13.5534 8.271 13.7083C8.21335 13.8634 8.17992 14.0257 8.13453 14.1842C8.11491 14.2465 8.10295 14.3106 8.08761 14.3737C8.06829 14.4501 8.05664 14.528 8.04253 14.6053C8.01861 14.7356 7.99684 14.8659 7.97813 14.9972C7.95237 15.1318 7.94072 15.2683 7.92999 15.4047C7.90729 15.4949 7.92385 15.5884 7.90729 15.6792C7.88215 15.7924 7.89871 15.9077 7.89135 16.0215C7.88797 16.1015 7.88644 16.1818 7.88859 16.2619C7.88951 16.295 7.87356 16.3407 7.90821 16.3569C7.94777 16.3753 7.9766 16.3333 8.00512 16.31C8.10264 16.2303 8.19801 16.1478 8.29339 16.0656C8.61447 15.789 8.93953 15.5173 9.26184 15.2422C9.28975 15.2186 9.32011 15.1567 9.36979 15.2204Z" fill="#4189C9"/>
<path d="M16.4617 16.0239C16.0827 15.7985 15.6678 15.6676 15.2421 15.5667C14.6806 15.4336 14.1099 15.3811 13.5346 15.41C13.1292 15.4302 12.7274 15.4866 12.3545 15.6648C12.3098 15.6863 12.2665 15.7114 12.2251 15.739C11.9231 15.9417 11.8774 16.2113 12.0957 16.5032C12.1408 16.5636 12.1911 16.6201 12.2521 16.694C12.0561 16.6946 11.8826 16.6572 11.7093 16.6231C11.2459 16.5311 10.8105 16.3704 10.4369 16.0724C10.2572 15.9288 10.0929 15.7678 9.97266 15.5679C10.0217 15.4882 10.1036 15.4508 10.1806 15.4063C10.3284 15.3443 10.4624 15.2557 10.6087 15.1889C11.2671 14.8883 11.9553 14.7037 12.6756 14.6362C12.9614 14.6096 13.2475 14.5823 13.5352 14.593C14.3862 14.6246 15.2173 14.7736 16.0299 15.0266C16.2382 15.0916 16.4445 15.1631 16.6614 15.2364C16.6611 15.1763 16.6264 15.1386 16.6031 15.099C16.5157 14.95 16.416 14.8098 16.3038 14.678C16.2633 14.6301 16.2063 14.5881 16.2075 14.5145C16.3219 14.5406 16.4363 14.566 16.5503 14.5933C16.5801 14.6004 16.6169 14.6188 16.6365 14.5936C16.6626 14.5605 16.6233 14.5317 16.6065 14.5065C16.4378 14.2557 16.2283 14.0413 16.0033 13.8417C16.1225 13.7727 16.2452 13.8288 16.3614 13.8438C17.5535 13.9959 18.6397 14.4207 19.587 15.164C20.8412 16.1481 21.6517 17.4192 21.9934 18.9823C22.1081 19.507 22.1357 20.04 22.097 20.5712C22.0299 21.4945 21.7398 22.3468 21.1939 23.1036C21.158 23.1533 21.1096 23.1929 21.0832 23.2496C20.9593 23.4339 20.7777 23.5587 20.61 23.6949C19.7038 24.43 18.647 24.8127 17.5081 24.9915C16.6184 25.131 15.7245 25.1515 14.8306 25.0384C13.411 24.859 12.108 24.3659 10.9239 23.5624C10.6397 23.3695 10.3609 23.168 10.111 22.93C10.1015 22.9193 10.1021 22.9089 10.1125 22.8991C10.1662 22.8779 10.1996 22.9166 10.2349 22.9432C10.8353 23.3971 11.5023 23.7133 12.227 23.9111C12.4674 23.9767 12.713 24.0169 12.959 24.0564C13.0148 24.077 13.074 24.0675 13.131 24.0767C13.1427 24.0782 13.1543 24.0807 13.1657 24.084C13.725 24.1503 14.281 24.1113 14.8327 24.0141C16.0453 23.8001 17.1226 23.2919 18.045 22.4765C18.6737 21.9205 19.1702 21.2639 19.4327 20.454C19.694 19.6481 19.6581 18.856 19.2895 18.0777C19.2137 18.427 19.0307 18.7155 18.8016 18.979C18.5694 19.2375 18.3033 19.4549 18.0021 19.6288C17.9671 19.649 17.9285 19.6874 17.8883 19.6564C17.8537 19.6297 17.8745 19.5837 17.885 19.5487C17.9586 19.3062 18.007 19.0584 18.0368 18.8066C18.1438 17.748 17.7353 16.9246 16.8929 16.2996C16.7561 16.1966 16.6114 16.1058 16.4617 16.0239Z" fill="#262F71"/>
<path d="M12.9651 24.0779C12.6526 24.0509 12.3493 23.9801 12.0497 23.8908C11.4817 23.7222 10.9546 23.4667 10.459 23.1438C10.3412 23.0671 10.2422 22.9641 10.1143 22.9021C10.041 22.8914 10.0104 22.8199 9.95147 22.7884C8.71315 21.6874 7.86737 20.3356 7.38069 18.7563C7.14333 17.9857 7.01851 17.196 7.00195 16.3895C7.00502 16.329 7.00809 16.2686 7.01299 16.1748C7.0731 16.3085 7.12002 16.4146 7.16817 16.5201C7.61375 17.4971 8.18415 18.3886 8.96953 19.1304C9.80489 19.9198 10.7758 20.4454 11.9187 20.6313C13.2592 20.8493 14.5134 20.6156 15.6668 19.8934C16.2418 19.5331 16.7138 19.0673 16.9852 18.4322C17.3139 17.6621 17.1903 16.9467 16.6896 16.287C16.6457 16.2294 16.5991 16.1736 16.5537 16.1171C16.6135 16.0662 16.6448 16.1251 16.6788 16.1533C16.9794 16.406 17.21 16.7115 17.3716 17.0703C17.5268 17.414 17.6077 17.7768 17.6123 18.1494C17.6169 18.5266 17.5387 18.894 17.3685 19.2494C17.4142 19.2513 17.4406 19.2292 17.4679 19.2132C17.6264 19.1203 17.7779 19.017 17.9171 18.8958C17.9607 18.8581 17.999 18.8014 18.0705 18.81C18.0324 19.0912 17.9754 19.3684 17.8837 19.661C18.0834 19.5497 18.2517 19.4353 18.4133 19.3092C18.5461 19.2056 18.6534 19.0752 18.7838 18.9697C18.8393 18.9934 18.8393 19.0486 18.8522 19.0949C19.0644 19.8606 18.9107 20.5758 18.5326 21.2507C18.0738 22.0695 17.3992 22.6792 16.6126 23.1723C15.9741 23.5725 15.2853 23.8528 14.5496 24.0169C14.0875 24.1199 13.6204 24.1475 13.1491 24.0997C13.0902 24.0684 13.0237 24.1058 12.9651 24.0779Z" fill="#161F42"/>
<path d="M24.5604 18.3941C24.5181 17.5094 24.3062 16.6664 23.9235 15.8687C23.6754 15.3514 23.3626 14.8758 22.9909 14.4354C22.6563 14.0395 22.2724 13.7015 21.8697 13.3811C21.9075 13.344 21.9544 13.351 21.9998 13.3565C22.5643 13.4249 23.1154 13.551 23.6493 13.7485C23.7824 13.7975 23.9109 13.857 24.0336 13.9282C24.0796 13.9469 24.1179 13.9788 24.1612 14.003C24.1719 14.0088 24.1774 14.0241 24.1934 14.0208C24.1842 14.0079 24.1792 13.9944 24.1866 13.9788C23.8238 13.5059 23.385 13.1115 22.9241 12.7368C22.3733 12.2887 21.7759 11.9164 21.1402 11.6052C20.2512 11.1697 19.3155 10.8857 18.332 10.7634C18.2452 10.7526 18.1557 10.7643 18.0711 10.7336C18.0637 10.6757 18.1125 10.6563 18.1462 10.6281C18.7187 10.1509 19.179 9.58515 19.5041 8.91232C19.6026 8.70869 19.6847 8.49832 19.7537 8.28273C19.7731 8.22201 19.7847 8.15485 19.8451 8.1156C20.3695 8.36093 20.8565 8.66729 21.3205 9.01199C21.7707 9.34625 22.1819 9.72499 22.5582 10.1387C23.3359 10.9934 23.9302 11.9621 24.3326 13.0471C24.68 13.984 24.8646 14.9509 24.8867 15.9506C24.9054 16.7866 24.8165 17.6088 24.6018 18.4171C24.5755 18.4313 24.5699 18.4092 24.5604 18.3941Z" fill="#4189C9"/>
<path d="M21.0839 23.2486C21.083 23.1585 21.156 23.1079 21.2001 23.0447C21.6194 22.4464 21.8745 21.7837 22.007 21.0673C22.0892 20.6236 22.0959 20.1755 22.0668 19.7312C22.0217 19.0458 21.8466 18.387 21.5706 17.7556C21.3673 17.291 21.1158 16.8552 20.8122 16.4501C20.4902 16.0202 20.117 15.6396 19.703 15.2965C19.0587 14.7622 18.3331 14.3811 17.5382 14.129C17.1163 13.9953 16.6848 13.902 16.2426 13.8625C16.1631 13.8554 16.0846 13.8364 16.004 13.8413C15.7243 13.6349 15.44 13.4356 15.1211 13.2915C15.1217 13.281 15.1226 13.2706 15.1232 13.2605C15.2379 13.2605 15.3529 13.2623 15.4676 13.2602C17.0755 13.2314 18.5573 13.6254 19.8517 14.6046C21.1937 15.6197 22.0324 16.961 22.3465 18.6161C22.6145 20.0283 22.4066 21.362 21.624 22.5859C21.47 22.826 21.301 23.0579 21.0839 23.2486Z" fill="#161F42"/>
<path d="M19.8448 8.11588C19.6838 8.60839 19.4817 9.08096 19.1925 9.51428C18.899 9.95404 18.5445 10.3365 18.1369 10.6713C18.1136 10.6907 18.0925 10.7127 18.0707 10.7336C17.9302 10.805 17.8146 10.913 17.6843 10.9995C17.208 11.3166 16.7002 11.5711 16.1697 11.7827C16.1565 11.7879 16.1421 11.7894 16.1301 11.7925C16.1068 11.7582 16.1344 11.7456 16.1485 11.7321C16.4497 11.4457 16.6361 11.0905 16.7606 10.6999C16.7784 10.644 16.8011 10.6103 16.8578 10.5879C17.7935 10.2175 18.5402 9.60199 19.1514 8.81232C19.2069 8.74056 19.2615 8.66788 19.3302 8.57742C19.1407 8.57343 18.9959 8.6688 18.8358 8.69456C18.8058 8.6964 18.7665 8.72155 18.7592 8.66451C19.3403 7.97604 19.7745 7.20662 20.0423 6.34458C20.0591 6.28999 20.0423 6.21486 20.1183 6.18726C20.1244 6.19124 20.1269 6.19584 20.126 6.20106C20.1251 6.20658 20.1235 6.20934 20.122 6.20934C20.1103 6.81838 20.0318 7.41791 19.8659 8.00487C19.8555 8.04075 19.8515 8.07878 19.8448 8.11588Z" fill="#161F42"/>
<path d="M16.2086 14.5139C16.3969 14.7255 16.5658 14.9512 16.7011 15.2008C16.7143 15.225 16.7483 15.252 16.7179 15.2805C16.6949 15.302 16.6683 15.2756 16.6443 15.2667C16.0206 15.0346 15.3812 14.8567 14.7255 14.7439C14.3959 14.6871 14.0613 14.6623 13.7264 14.6381C13.4228 14.6163 13.1223 14.627 12.8233 14.6509C12.1357 14.7061 11.4666 14.853 10.8305 15.1281C10.6343 15.2131 10.4337 15.2891 10.2513 15.4038C10.2304 15.417 10.2056 15.4385 10.1816 15.4053C10.7367 15.0107 11.3461 14.7282 11.9971 14.5341C12.891 14.2673 13.8043 14.202 14.731 14.2747C15.2039 14.3118 15.6713 14.3844 16.1337 14.4878C16.1592 14.4939 16.1837 14.5053 16.2086 14.5139Z" fill="#161F42"/>
<path d="M15.9774 8.06897C16.0234 8.06897 16.0694 8.06897 16.1154 8.06866C16.1896 8.10056 16.2712 8.06008 16.3454 8.09136C16.3914 8.09136 16.4371 8.09166 16.4831 8.09166C16.4947 8.15852 16.4398 8.18642 16.4018 8.21862C15.7646 8.75682 15.1322 9.30085 14.4943 9.83874C14.2837 10.0163 14.0748 10.196 13.8645 10.3739C13.8356 10.3984 13.8037 10.4211 13.7924 10.4607C13.5167 10.5637 13.26 10.6937 13.0579 10.9185C12.9619 11.0252 12.8991 11.1488 12.8295 11.27C12.6402 11.3935 12.4811 11.5539 12.3093 11.6984C11.8564 12.0789 11.4093 12.4666 10.9551 12.8462C10.9168 12.8781 10.8916 12.9229 10.8472 12.9477C10.7693 12.8312 10.7861 12.7036 10.8045 12.5761C10.8616 12.4822 10.9517 12.4215 11.033 12.3528C11.4734 11.9793 11.9122 11.6039 12.3529 11.2307C12.7819 10.8673 13.2094 10.5021 13.6381 10.1384C14.1309 9.72037 14.6231 9.30146 15.1153 8.88225C15.3889 8.64918 15.6612 8.41397 15.9387 8.18581C15.9801 8.15116 16.0096 8.12356 15.9774 8.06897Z" fill="#5C94CE"/>
<path d="M24.0497 13.9579C23.5094 13.6954 22.9374 13.5353 22.3465 13.4393C22.1885 13.4135 22.0309 13.3823 21.8696 13.3807C21.6635 13.2504 21.4614 13.113 21.2504 12.9913C20.5614 12.5935 19.8238 12.3276 19.0369 12.2016C19.0237 12.1995 19.0118 12.1921 18.9863 12.182C19.2209 12.139 20.0195 12.2589 20.5724 12.4111C21.0818 12.5512 21.5718 12.7407 22.0588 12.9949C22.0091 12.8462 21.9184 12.7456 21.8629 12.6266C21.8573 12.5947 21.8132 12.5671 21.8426 12.5334C21.8745 12.4972 21.9061 12.5359 21.934 12.5484C22.0137 12.5846 22.0901 12.6285 22.1701 12.6641C22.8417 13.0112 23.4692 13.4255 24.0531 13.9057C24.0856 13.949 24.0856 13.949 24.0497 13.9579Z" fill="#161F42"/>
<path d="M15.9778 8.06898C15.9923 8.10241 16.0367 8.07788 16.0582 8.1156C15.93 8.22661 15.8015 8.33946 15.6715 8.45017C15.4363 8.65012 15.1998 8.84853 14.964 9.04786C14.6291 9.33061 14.2933 9.61213 13.9594 9.8961C13.7269 10.0936 13.4978 10.2951 13.2654 10.4929C12.9839 10.7324 12.6996 10.9685 12.4174 11.2077C12.1936 11.3975 11.9719 11.5901 11.7483 11.7803C11.5131 11.9802 11.277 12.1789 11.0411 12.378C10.9623 12.4445 10.8835 12.5104 10.8047 12.5764C10.8271 12.4767 10.8495 12.377 10.8722 12.2771C10.8338 12.1792 10.9136 12.1351 10.9678 12.0897C11.1825 11.9109 11.3935 11.7278 11.6066 11.5469C12.1028 11.1258 12.5981 10.7042 13.094 10.2825C13.5196 9.92064 13.9462 9.55969 14.3715 9.19721C14.7677 8.85957 15.1667 8.5253 15.5589 8.18306C15.589 8.15669 15.6463 8.12572 15.5635 8.09106C15.6991 8.042 15.8398 8.08125 15.9778 8.06898Z" fill="#6497D0"/>
<path d="M15.5633 8.09137C15.5955 8.09689 15.6307 8.08002 15.6645 8.10609C15.5832 8.226 15.4636 8.3042 15.3587 8.39558C15.0576 8.65809 14.7518 8.91569 14.4467 9.1736C14.1676 9.40942 13.8858 9.64188 13.6077 9.87832C13.3261 10.1172 13.0486 10.361 12.7671 10.5999C12.4886 10.8363 12.2065 11.0682 11.928 11.3046C11.6465 11.5438 11.3675 11.7855 11.0881 12.0268C11.0041 12.0995 10.893 12.1492 10.8722 12.2768C10.7238 12.2936 10.6453 12.4187 10.5367 12.4963C10.3653 12.6187 10.2346 12.7867 10.0767 12.9241C9.91754 13.037 9.77708 13.1725 9.62866 13.2983C9.18767 13.6721 8.74852 14.0484 8.306 14.4204C8.24436 14.4719 8.19039 14.5326 8.12139 14.5755C8.09042 14.5948 8.06282 14.6304 8.01958 14.6004C8.01866 14.5203 8.03154 14.443 8.06588 14.3704C8.28638 14.2296 8.46946 14.0432 8.66879 13.8763C9.21742 13.4169 9.76083 12.9514 10.3058 12.4877C10.8477 12.0265 11.3883 11.5638 11.9308 11.1031C12.4616 10.6523 12.9931 10.2025 13.5236 9.75136C14.0658 9.29044 14.6105 8.83258 15.1484 8.36676C15.2554 8.27414 15.3679 8.18797 15.4719 8.09198C15.5022 8.09168 15.5326 8.09168 15.5633 8.09137Z" fill="#689AD1"/>
<path d="M16.7606 8.11468C16.8854 8.11314 17.0059 8.14504 17.1286 8.16068C17.162 8.23397 17.0989 8.26249 17.0599 8.29653C16.9066 8.43054 16.7462 8.55628 16.5972 8.6952C16.5812 8.67404 16.564 8.65349 16.549 8.6311C16.515 8.5802 16.4911 8.594 16.469 8.64122C16.288 9.02946 15.9768 9.29933 15.6379 9.53976C15.257 9.81024 14.8467 10.0292 14.4149 10.208C14.3919 10.1638 14.3898 10.1617 14.4293 10.1209C14.5118 10.0356 14.6066 9.96326 14.6967 9.8866C15.3496 9.33153 16.0047 8.77892 16.6536 8.21925C16.6919 8.18644 16.7244 8.14872 16.7606 8.11468Z" fill="#4E8FCC"/>
<path d="M16.7594 8.11467C16.7551 8.15454 16.737 8.18429 16.7054 8.21097C16.2844 8.56731 15.8643 8.92458 15.4441 9.28215C15.1227 9.55601 14.8014 9.82986 14.4824 10.1068C14.4536 10.1319 14.3996 10.1497 14.414 10.208C14.2125 10.3064 14.0037 10.3865 13.7924 10.4607C13.721 10.441 13.7802 10.4156 13.7936 10.4039C13.9191 10.2929 14.046 10.1838 14.1733 10.0752C14.4079 9.87555 14.6431 9.67683 14.8783 9.47811C15.1108 9.28185 15.3438 9.0865 15.5757 8.88931C15.8075 8.69213 16.0391 8.49463 16.2678 8.29377C16.3417 8.22906 16.4322 8.18091 16.4834 8.09167C16.5773 8.07849 16.6671 8.11038 16.7594 8.11467Z" fill="#5591CD"/>
<path d="M15.1294 10.8777C15.3722 10.7575 15.6262 10.6566 15.8381 10.4812C15.8822 10.4797 15.8773 10.5048 15.8666 10.5333C15.6709 11.3436 15.0564 11.8756 14.2253 11.9532C14.0652 11.9682 13.9054 11.9866 13.7441 11.9713C13.7647 11.9121 13.8211 11.917 13.8665 11.9048C14.0468 11.8557 14.2256 11.8029 14.3927 11.7168C14.7062 11.5548 14.9355 11.316 15.0662 10.9854C15.0818 10.9464 15.0959 10.9062 15.1294 10.8777Z" fill="#161F42"/>
<path d="M15.1279 10.8777C15.0279 11.2641 14.7816 11.5313 14.4415 11.7226C14.2229 11.8456 13.9809 11.9023 13.743 11.971C13.6847 11.7993 13.7479 11.6545 13.8509 11.5242C13.9717 11.3715 14.1364 11.2761 14.3112 11.1964C14.5774 11.0746 14.8506 10.9713 15.1279 10.8777Z" fill="#418AC9"/>
<path d="M8.01987 14.6007C8.15633 14.5501 8.24404 14.4348 8.35137 14.3468C8.6976 14.0628 9.03769 13.7711 9.37901 13.481C9.55841 13.3283 9.73536 13.1728 9.91323 13.0186C9.96168 12.9766 10.0065 12.9284 10.077 12.9247C9.89237 13.1551 9.71696 13.3921 9.58601 13.6583C9.23365 13.957 8.88099 14.2557 8.52985 14.5562C8.36732 14.6951 8.20141 14.8304 8.04133 14.9724C8.0168 14.9941 7.98889 15.0217 7.95117 14.992C7.96007 14.8589 7.97969 14.7279 8.01987 14.6007Z" fill="#6497D0"/>
<path d="M9.37006 15.2204C9.2615 15.2287 9.21243 15.3259 9.14036 15.3839C8.8383 15.6277 8.5439 15.8813 8.2498 16.1349C8.15167 16.2195 8.0566 16.3072 7.95264 16.3851C7.88426 16.4367 7.85819 16.4167 7.85942 16.3367C7.86064 16.241 7.85972 16.1453 7.85972 16.0496C7.96614 15.9349 8.0931 15.8436 8.21178 15.743C8.55463 15.4523 8.8935 15.1572 9.24064 14.8717C9.27039 14.8472 9.29554 14.8024 9.34706 14.8313C9.35472 14.961 9.36239 15.0907 9.37006 15.2204Z" fill="#468CCA"/>
<path d="M10.8477 12.948C10.8483 12.9048 10.8774 12.8781 10.9062 12.8536C11.1822 12.6205 11.4595 12.389 11.7351 12.1556C11.9618 11.9639 12.1866 11.7704 12.4117 11.5772C12.53 11.4757 12.6475 11.373 12.7649 11.2702C12.7873 11.2506 12.8082 11.2359 12.8299 11.2702C12.8045 11.3748 12.7741 11.4785 12.7772 11.5879C12.6533 11.7238 12.5046 11.8311 12.3657 11.9498C11.9369 12.3163 11.5085 12.6834 11.0767 13.0465C11.0593 13.0612 11.0455 13.0799 11.0313 13.0977C10.9421 13.0823 10.8851 13.0271 10.8477 12.948Z" fill="#5591CD"/>
<path d="M7.95083 14.9917C8.04989 14.9613 8.10785 14.8748 8.18237 14.8132C8.58625 14.4792 8.98399 14.1376 9.38389 13.7987C9.44675 13.7457 9.49091 13.6656 9.58537 13.658C9.51054 13.838 9.45227 14.0235 9.40075 14.2115C9.32899 14.2041 9.2925 14.2618 9.24834 14.2995C8.83189 14.6574 8.41175 15.011 7.99346 15.3667C7.96831 15.3882 7.94623 15.4191 7.90514 15.4053C7.90085 15.2655 7.9125 15.1272 7.95083 14.9917Z" fill="#5C94CE"/>
<path d="M11.0322 13.0977C11.0036 13.0462 11.0521 13.0296 11.0772 13.0081C11.429 12.7073 11.7816 12.4077 12.1349 12.1084C12.3346 11.9391 12.5348 11.7707 12.7357 11.6027C12.7464 11.5938 12.7639 11.5929 12.778 11.588C12.7783 11.6821 12.7918 11.7741 12.8203 11.8643C12.7001 12.0041 12.5483 12.1087 12.41 12.228C12.1003 12.4948 11.7884 12.7591 11.4762 13.0232C11.4563 13.04 11.4333 13.0563 11.429 13.0857C11.298 13.1336 11.1662 13.1529 11.0322 13.0977Z" fill="#4E8FCC"/>
<path d="M9.34534 14.8313C9.21623 14.9055 9.11288 15.0128 8.99942 15.1063C8.70042 15.3529 8.4054 15.6047 8.11193 15.8577C8.03097 15.9273 7.95767 16.0055 7.85801 16.0497C7.87027 15.9273 7.83255 15.8019 7.88101 15.6817C8.33426 15.2943 8.78874 14.9085 9.24414 14.5237C9.27542 14.4973 9.30731 14.4651 9.35576 14.4857C9.35239 14.601 9.34902 14.716 9.34534 14.8313Z" fill="#4E8FCC"/>
<path d="M9.35796 14.486C9.21229 14.5645 9.09975 14.6856 8.97401 14.7889C8.67716 15.0327 8.38705 15.2845 8.09326 15.532C8.02733 15.5875 7.98164 15.6715 7.8832 15.682C7.89485 15.5903 7.85867 15.4946 7.9062 15.406C8.19293 15.1612 8.47936 14.9162 8.76671 14.6724C8.96113 14.5074 9.1574 14.3443 9.35152 14.1787C9.41377 14.1259 9.3966 14.1839 9.40212 14.2121L9.35796 14.486Z" fill="#5591CD"/>
<path d="M11.4277 13.0851C11.3854 13.055 11.4149 13.0317 11.4373 13.013C11.7077 12.7861 11.9797 12.5607 12.2499 12.3335C12.4186 12.1915 12.5851 12.047 12.7519 11.9032C12.7722 11.8857 12.7897 11.8649 12.8191 11.864L12.8881 12.0016C12.835 12.0832 12.7501 12.1344 12.6903 12.2096C12.3582 12.5763 11.9865 12.8888 11.5161 13.0658C11.4885 13.0762 11.4575 13.079 11.4277 13.0851Z" fill="#488DCA"/>
<path d="M16.5957 8.69517C16.6371 8.56484 16.7726 8.52743 16.8527 8.43543C16.9379 8.3376 17.0775 8.29375 17.1272 8.16065C17.2271 8.16004 17.3228 8.18703 17.42 8.20512C17.504 8.22076 17.5077 8.25725 17.4498 8.30908C17.3246 8.42071 17.1986 8.53172 17.0713 8.6412C16.953 8.74301 16.8328 8.84237 16.7132 8.94296L16.5957 8.69517Z" fill="#468CCA"/>
<path d="M10.9189 13.9395C10.9391 13.9904 10.8781 14.0162 10.8852 14.0628C10.8533 13.9229 10.7775 13.8687 10.6371 13.8966C10.4831 13.9272 10.3568 14.0088 10.2494 14.122C10.2209 14.1523 10.1893 14.1799 10.1593 14.2087C10.1338 14.1772 10.1599 14.1517 10.1694 14.1241C10.2317 13.9248 10.3654 13.7825 10.5353 13.6696C10.5736 13.6442 10.6147 13.6236 10.6598 13.6129C10.8566 13.5657 10.9646 13.6623 10.9376 13.8619C10.9339 13.888 10.9309 13.915 10.9189 13.9395Z" fill="#428AC9"/>
<path d="M10.9193 13.9395C10.9199 13.9091 10.9211 13.8787 10.9214 13.8484C10.9248 13.6478 10.811 13.5715 10.6249 13.6567C10.4102 13.7549 10.2746 13.9303 10.1805 14.1409C10.1587 14.1449 10.1474 14.1388 10.1544 14.1146C10.2222 13.864 10.3528 13.657 10.57 13.5095C10.6242 13.4727 10.685 13.4509 10.7494 13.4396C10.8539 13.4215 10.9542 13.4785 10.9769 13.581C11.0045 13.7058 10.991 13.8281 10.9193 13.9395Z" fill="#182144"/>
<path d="M12.6914 12.2099C12.6528 12.1786 12.6868 12.1672 12.7074 12.1528C12.7721 12.1078 12.8077 12.0271 12.8892 12.002C12.9935 12.1666 13.1603 12.2396 13.3336 12.3013C13.3686 12.3138 13.405 12.3218 13.4621 12.3378C13.1947 12.4074 12.9644 12.3804 12.7522 12.2356C12.7328 12.2224 12.7163 12.2074 12.6914 12.2099Z" fill="#458CCA"/>
<path d="M22.1704 12.6644C22.086 12.6542 22.0216 12.5966 21.9453 12.5684C21.9158 12.5573 21.8873 12.5181 21.8557 12.5438C21.8294 12.5653 21.8723 12.5975 21.8631 12.6269C21.8162 12.5858 21.7999 12.527 21.7754 12.4672C21.9122 12.5239 22.0486 12.5788 22.1704 12.6644Z" fill="#63657D"/>
<path d="M24.0488 13.9579C24.074 13.9423 24.0504 13.9232 24.0525 13.9058C24.097 13.93 24.1414 13.9539 24.1856 13.9781C24.2061 14.0045 24.227 14.0312 24.2574 14.0701C24.17 14.0471 24.1108 13.9996 24.0488 13.9579Z" fill="#263154"/>
<path d="M18.7656 12.1439C18.8313 12.1387 18.88 12.1366 18.949 12.1577C18.8779 12.1964 18.8288 12.1912 18.7656 12.1439Z" fill="#A09AA9"/>
<path d="M9.95117 22.7883C10.0229 22.8012 10.0551 22.8705 10.114 22.9021C10.1131 22.9113 10.1122 22.9202 10.1113 22.9294C10.0475 22.8938 9.99135 22.85 9.95117 22.7883Z" fill="#424A7F"/>
<path d="M24.5605 18.3941C24.5743 18.4018 24.5878 18.4094 24.6016 18.4171C24.6075 18.4634 24.5878 18.5014 24.5605 18.5579V18.3941Z" fill="#8CB7DE"/>
<path d="M18.7589 8.66418C18.7746 8.69945 18.8095 8.68504 18.8356 8.69424C18.7957 8.70957 18.7559 8.7249 18.7126 8.74177C18.7031 8.69301 18.7362 8.68197 18.7589 8.66418Z" fill="#5A5D76"/>
<path d="M10.1555 14.1143C10.1641 14.1232 10.173 14.1317 10.1816 14.1406C10.1748 14.1633 10.1678 14.186 10.161 14.2087C10.1506 14.2222 10.1402 14.2357 10.1113 14.2725C10.1264 14.1983 10.1273 14.1529 10.1555 14.1143Z" fill="#4F668A"/>
<path d="M15.8648 10.533C15.858 10.514 15.8608 10.4901 15.8359 10.4812C15.8433 10.4634 15.8629 10.4386 15.8724 10.4475C15.9 10.4742 15.8884 10.5061 15.8648 10.533Z" fill="#555A73"/>
<path d="M8.11133 14.1863C8.14077 14.0204 8.17634 13.8564 8.24902 13.703C8.51981 13.5144 8.75778 13.2857 9.00925 13.0741C9.44563 12.707 9.87957 12.3365 10.3135 11.9661C10.7094 11.6278 11.1059 11.2905 11.5031 10.9538C11.9324 10.5901 12.3605 10.2248 12.7895 9.8602C13.1805 9.52808 13.5721 9.19688 13.9613 8.86261C14.2342 8.62832 14.513 8.40078 14.7816 8.16096C14.9248 8.12447 15.0708 8.1119 15.2183 8.11435C15.2327 8.10147 15.2487 8.103 15.2656 8.10883C15.2984 8.16434 15.2567 8.19592 15.2229 8.22444C14.8519 8.53816 14.4829 8.85433 14.1131 9.16928C13.72 9.50416 13.3262 9.83812 12.9334 10.1733C12.5696 10.4837 12.2053 10.7934 11.8404 11.1022C11.3966 11.4779 10.9541 11.8551 10.5107 12.231C9.9593 12.6987 9.41037 13.1691 8.85775 13.6356C8.64431 13.8156 8.43425 13.9996 8.21774 14.1759C8.19075 14.1977 8.15426 14.267 8.11133 14.1863Z" fill="#6D9CD2"/>
<path d="M14.7826 8.16095C14.744 8.29036 14.6192 8.33851 14.5305 8.41732C14.2401 8.67554 13.9399 8.92302 13.6427 9.17387C13.3106 9.45416 12.9767 9.732 12.6458 10.0135C12.3581 10.2582 12.0747 10.5076 11.7874 10.7526C11.5089 10.9899 11.2268 11.223 10.9477 11.4598C10.6687 11.6965 10.3924 11.9366 10.1133 12.174C9.83455 12.411 9.55364 12.6453 9.27457 12.8821C9.04488 13.0771 8.81703 13.2743 8.58795 13.4697C8.49503 13.5488 8.40057 13.6261 8.30704 13.7043C8.28711 13.7211 8.2684 13.7294 8.25 13.703C8.28496 13.5433 8.33556 13.3887 8.411 13.243C8.6226 13.1099 8.79955 12.9333 8.98937 12.7732C9.42545 12.4055 9.85969 12.0357 10.293 11.6652C10.7411 11.2822 11.1906 10.9007 11.6396 10.5186C12.01 10.2037 12.3802 9.8884 12.7516 9.57438C13.2339 9.16651 13.7123 8.75374 14.1966 8.34832C14.2282 8.32195 14.2628 8.29558 14.2757 8.25234C14.4391 8.18916 14.6143 8.19315 14.7826 8.16095Z" fill="#729FD4"/>
<path d="M14.2758 8.25232C14.3472 8.27103 14.289 8.29709 14.2752 8.30905C14.1445 8.4262 14.0133 8.54212 13.8796 8.65589C13.6474 8.85308 13.4134 9.04812 13.1807 9.24469C12.84 9.53204 12.4992 9.81877 12.1598 10.1073C11.8813 10.3444 11.6053 10.5845 11.3269 10.8219C11.0398 11.0663 10.7506 11.3079 10.4633 11.5524C10.1848 11.7894 9.90853 12.0289 9.62977 12.266C9.35132 12.5027 9.07133 12.7376 8.79165 12.9731C8.68984 13.059 8.58833 13.1455 8.48498 13.2298C8.46474 13.2464 8.44266 13.2838 8.41016 13.243C8.44174 13.0851 8.52424 12.9483 8.59385 12.8063C8.97197 12.4831 9.35224 12.1617 9.73036 11.8385C10.1204 11.5054 10.5114 11.1736 10.9021 10.8412C11.2753 10.5238 11.6492 10.207 12.0224 9.88961C12.4161 9.55504 12.8093 9.21955 13.2037 8.88589C13.4079 8.71293 13.6054 8.532 13.8155 8.3664C13.9617 8.29832 14.1197 8.27931 14.2758 8.25232Z" fill="#78A2D5"/>
<path d="M13.8157 8.36609C13.6697 8.55592 13.4716 8.68962 13.2943 8.8451C13.0625 9.04873 12.8245 9.24561 12.5887 9.44494C12.359 9.63937 12.1284 9.83288 11.8987 10.0279C11.6693 10.223 11.4411 10.4198 11.2118 10.6149C10.9793 10.8121 10.7453 11.0074 10.5129 11.2049C10.2862 11.3975 10.0615 11.5922 9.83483 11.7848C9.54748 12.0292 9.25922 12.2724 8.97095 12.5159C8.86914 12.6021 8.76671 12.6876 8.6649 12.7735C8.64404 12.791 8.62319 12.8075 8.59375 12.8063C8.66582 12.6122 8.76088 12.4297 8.87006 12.2543C9.39507 11.8274 9.90567 11.3834 10.4206 10.9448C11.0173 10.4367 11.6166 9.93193 12.21 9.4198C12.5455 9.13 12.8938 8.85553 13.2174 8.55162C13.4112 8.47128 13.6108 8.41025 13.8157 8.36609Z" fill="#7DA5D6"/>
<path d="M13.2181 8.55133C13.2411 8.59242 13.2 8.60469 13.1819 8.62064C12.9268 8.8442 12.671 9.06653 12.4137 9.28702C12.1883 9.48022 11.9608 9.67158 11.7341 9.86325C11.4523 10.1018 11.1699 10.3401 10.8883 10.579C10.659 10.7737 10.4311 10.9703 10.2017 11.1651C9.91437 11.4092 9.62611 11.6517 9.33845 11.8955C9.21916 11.9964 9.10109 12.0985 8.98272 12.2004C8.95021 12.2286 8.91495 12.25 8.87109 12.254C9.01155 11.9679 9.18451 11.7023 9.37771 11.4493C9.55557 11.3181 9.71811 11.1681 9.88677 11.0255C10.3241 10.6551 10.7605 10.2837 11.1965 9.91201C11.5339 9.62466 11.8718 9.33793 12.2082 9.04905C12.2601 9.00458 12.3257 8.97606 12.3656 8.91749C12.6324 8.75588 12.9261 8.65621 13.2181 8.55133Z" fill="#81A7D8"/>
<path d="M18.0711 18.8103C17.8395 18.9992 17.6126 19.1948 17.3032 19.3258C17.3964 19.1267 17.4648 18.9507 17.5068 18.7664C17.688 17.9688 17.52 17.2435 17.0505 16.5817C16.9345 16.4186 16.7788 16.2925 16.6408 16.1496C16.6187 16.1266 16.5941 16.0978 16.554 16.1171C16.5126 16.0969 16.4923 16.0558 16.4629 16.0239C16.4828 15.9984 16.5037 16.0125 16.5233 16.0236C17.0793 16.3388 17.5427 16.7479 17.8257 17.3324C17.9662 17.6222 18.0477 17.9286 18.0766 18.2527C18.0928 18.4407 18.0934 18.6247 18.0711 18.8103Z" fill="#0E1F66"/>
<path d="M8.11214 14.1864C8.20383 14.2195 8.23634 14.1278 8.28173 14.0901C8.74817 13.704 9.20847 13.3099 9.66878 12.9168C10.1033 12.5457 10.5351 12.1713 10.9706 11.8011C11.4554 11.3893 11.9439 10.9823 12.4288 10.5705C12.8642 10.2003 13.296 9.82618 13.7306 9.45481C14.1995 9.05369 14.6693 8.65349 15.1394 8.25359C15.1876 8.2125 15.2566 8.19134 15.2654 8.11498C15.2918 8.08983 15.3311 8.11743 15.3571 8.09259C15.3955 8.09229 15.4341 8.09229 15.4724 8.09198C15.4372 8.21403 15.3185 8.25727 15.236 8.33149C14.998 8.54554 14.7502 8.74825 14.5055 8.95494C14.2262 9.19107 13.9456 9.42598 13.6665 9.66273C13.4396 9.85501 13.2148 10.0497 12.9881 10.2423C12.6539 10.5257 12.3181 10.8075 11.9841 11.0912C11.7575 11.2838 11.533 11.4788 11.3064 11.6714C11.019 11.9158 10.7298 12.1581 10.4425 12.4025C10.2159 12.5951 9.99139 12.7901 9.76477 12.983C9.53262 13.1805 9.29833 13.3755 9.06618 13.5733C8.83403 13.7711 8.60373 13.9711 8.37158 14.1692C8.29031 14.2385 8.20629 14.3041 8.12379 14.3716C8.10417 14.3875 8.08546 14.3977 8.06645 14.371C8.06553 14.305 8.08025 14.2434 8.11214 14.1864Z" fill="#699AD1"/>
<path d="M12.3642 8.91779C12.3449 9.02665 12.2388 9.05517 12.1713 9.11589C11.9367 9.32719 11.6923 9.52744 11.4509 9.73168C11.1691 9.96996 10.8861 10.207 10.6045 10.4459C10.3782 10.6382 10.1531 10.832 9.92773 11.0252C9.76305 11.1666 9.59837 11.3079 9.43399 11.4493C9.41467 11.4659 9.39627 11.476 9.37695 11.4496C9.49441 11.2616 9.63639 11.0914 9.77991 10.9246C10.3212 10.2963 10.936 9.75039 11.6423 9.31185C11.8751 9.16741 12.1063 9.01745 12.3642 8.91779Z" fill="#88ABD9"/>
<path d="M16.3472 8.09164C16.2708 8.08152 16.1899 8.11525 16.1172 8.06895C16.1935 8.07876 16.2742 8.04503 16.3472 8.09164Z" fill="#5591CD"/>
<path d="M15.3567 8.09226C15.3322 8.12507 15.2966 8.11127 15.2651 8.11464C15.2497 8.11464 15.2341 8.11434 15.2188 8.11434C15.2595 8.07447 15.3108 8.09839 15.3567 8.09226Z" fill="#689AD1"/>
<path d="M13.1484 24.0997C13.9062 24.1346 14.6398 24.0135 15.3506 23.7525C16.0375 23.5004 16.6708 23.1508 17.24 22.6893C17.7947 22.2391 18.2722 21.7224 18.5912 21.0762C18.7626 20.7285 18.869 20.3626 18.9046 19.971C18.9362 19.6242 18.8776 19.297 18.7834 18.9701C18.7939 18.89 18.8669 18.8535 18.9095 18.7974C19.0745 18.5809 19.1962 18.3472 19.2465 18.078C19.2517 18.0501 19.2655 18.0237 19.2839 17.9728C19.3922 18.1966 19.4744 18.4036 19.5299 18.6217C19.6105 18.9379 19.6559 19.2596 19.632 19.5846C19.5897 20.1553 19.4238 20.6883 19.1398 21.1891C18.8589 21.6844 18.4964 22.1103 18.0784 22.4888C17.7129 22.8196 17.3068 23.0981 16.8711 23.3333C16.3436 23.6182 15.7901 23.8313 15.2071 23.9684C14.8434 24.0537 14.4757 24.1067 14.1016 24.1279C13.9222 24.138 13.7425 24.1536 13.564 24.142C13.426 24.1328 13.284 24.142 13.1484 24.0997Z" fill="#0E1F66"/>
<defs>
<linearGradient id="paint0_linear_2624_64328" x1="16" y1="0" x2="16" y2="32" gradientUnits="userSpaceOnUse">
<stop stop-color="#F6F2FF"/>
<stop offset="1" stop-color="#C0CEFF"/>
</linearGradient>
</defs>
</svg>
