<svg width="32" height="32" viewBox="0 0 32 32" fill="none" xmlns="http://www.w3.org/2000/svg">
<rect width="32" height="32" fill="url(#paint0_linear_2470_50782)"/>
<path d="M23.9367 19.3549L22.2421 16.4461C22.1826 16.3261 22.034 16.2961 21.9448 16.3861L20.8448 17.1058C20.7556 17.1658 20.7258 17.3157 20.7853 17.4057L21.7664 19.055C21.7961 19.115 21.7664 19.1749 21.7367 19.2049L16.0284 22.9234C15.9987 22.9534 15.9392 22.9534 15.9095 22.9234L10.2607 19.2049C10.2012 19.1749 10.2012 19.115 10.2309 19.055L11.2121 17.4057C11.2715 17.3157 11.2418 17.1658 11.1526 17.1058L10.0526 16.3861C9.93364 16.3261 9.81471 16.3561 9.75525 16.4461L8.06061 19.3549C7.94169 19.5648 8.00115 19.8347 8.20926 19.9546L15.7906 24.9325C15.9392 25.0225 16.1176 25.0225 16.2662 24.9325L23.8475 19.9546C23.9962 19.8047 24.0557 19.5348 23.9367 19.3549Z" fill="white"/>
<path d="M10.8834 14.8267L11.9834 15.5464C12.1023 15.6064 12.2212 15.5764 12.2807 15.4865L15.8484 9.36901C15.8781 9.30904 15.997 9.30904 16.0268 9.36901L19.5944 15.4865C19.6539 15.6064 19.8025 15.6364 19.8917 15.5464L20.9918 14.8267C21.081 14.7668 21.1107 14.6168 21.0512 14.5269L16.8592 7.20991C16.77 7.05998 16.6511 7 16.4727 7H15.4619C15.3132 7 15.1646 7.08996 15.0754 7.20991L10.8239 14.5269C10.7644 14.6168 10.7942 14.7668 10.8834 14.8267Z" fill="#2AE7A8"/>
<defs>
<linearGradient id="paint0_linear_2470_50782" x1="16" y1="0" x2="16" y2="32" gradientUnits="userSpaceOnUse">
<stop stop-color="#0E2120"/>
<stop offset="1" stop-color="#0E0E21"/>
</linearGradient>
</defs>
</svg>
