<svg width="32" height="32" viewBox="0 0 32 32" fill="none" xmlns="http://www.w3.org/2000/svg">
<rect width="32" height="32" fill="url(#paint0_linear_2515_52636)"/>
<path d="M18.8596 6.44136C15.4579 9.17766 11.588 10.6902 7.2911 11.1714C8.92997 7.55513 14.0945 4.91508 18.8596 6.44136Z" fill="#EE771A"/>
<path d="M25.8968 15.0628C19.3276 17.1528 12.717 17.3178 6.02379 15.4065C5.74835 19.2566 7.88301 23.0929 11.4637 24.8942C15.1822 26.7642 19.3964 26.228 22.5915 23.5467C25.2357 21.3329 26.3651 17.4003 25.8968 15.0628Z" fill="#EE771A"/>
<path d="M24.9608 11.474C25.0932 11.824 25.2213 12.1521 25.3524 12.4881C25.453 12.7458 25.5555 13.0084 25.6631 13.289C25.3703 13.3986 25.0931 13.5083 24.821 13.6158C24.5813 13.7106 24.3456 13.8038 24.1069 13.894C22.6333 14.4303 21.1184 14.829 19.5897 15.159C16.4359 15.8465 13.2408 15.8465 10.0319 15.709C9.32766 15.6809 8.62341 15.5569 7.91916 15.4329C7.59051 15.375 7.26186 15.3171 6.93321 15.269C6.74325 15.2419 6.55329 15.2089 6.35162 15.1738C6.24627 15.1555 6.13768 15.1366 6.02426 15.1178C6.04858 15.0044 6.06813 14.9006 6.08853 14.7923C6.10278 14.7167 6.11744 14.6388 6.13443 14.554C12.6486 15.2003 18.8873 14.169 24.9608 11.474Z" fill="#EE771A"/>
<path d="M6.36927 13.3852C12.5116 13.564 18.2407 12.2715 23.7495 9.53516C23.3502 9.15015 23.0059 8.82015 22.6616 8.50389C22.4688 8.32514 22.2346 8.25639 21.973 8.39389C21.7863 8.49453 21.6017 8.59618 21.4177 8.69747C20.9229 8.96984 20.4329 9.23961 19.9209 9.48016C19.7963 9.54061 19.6716 9.60152 19.5469 9.66247C18.7069 10.0729 17.8629 10.4853 16.9875 10.7727C15.6929 11.2127 14.3846 11.5702 13.0487 11.859C11.1895 12.244 9.31648 12.4502 7.42972 12.4777H6.57585C6.54831 12.629 6.52076 12.7665 6.49322 12.8902C6.47175 13.0081 6.44191 13.1177 6.4037 13.2579C6.39289 13.2976 6.38142 13.3398 6.36927 13.3852Z" fill="#EE771A"/>
<defs>
<linearGradient id="paint0_linear_2515_52636" x1="16" y1="0" x2="16" y2="32" gradientUnits="userSpaceOnUse">
<stop stop-color="#F6F2FF"/>
<stop offset="1" stop-color="#FFDBBE"/>
</linearGradient>
</defs>
</svg>
