<svg width="32" height="32" viewBox="0 0 32 32" fill="none" xmlns="http://www.w3.org/2000/svg">
<rect width="32" height="32" fill="url(#paint0_linear_2470_50856)"/>
<path d="M20.1766 7.67261C19.7081 8.16147 19.2789 8.69131 18.8974 9.25627L18.7768 9.21529C18.0811 8.97818 17.3602 8.83182 16.6336 8.78205C16.4148 8.76449 15.5985 8.76449 15.332 8.78205C14.5269 8.83767 13.9097 8.96354 13.2084 9.21822C13.1804 9.22993 13.1551 9.23871 13.1299 9.24749C12.7343 8.68545 12.2939 8.15854 11.8086 7.67554C14.1369 6.43144 16.8608 6.28215 19.2986 7.26279C19.5595 7.36524 19.8147 7.48526 20.0644 7.61406L20.1766 7.67261Z" fill="#F00500"/>
<path d="M24.5196 18.7758C24.1661 19.8267 23.6359 20.8015 22.9486 21.6504C22.5755 22.1071 22.1632 22.5257 21.7199 22.9063C20.682 23.7786 19.4701 24.4021 18.1769 24.73C16.7462 25.09 15.2539 25.09 13.8232 24.73C12.5272 24.4021 11.3181 23.7786 10.2802 22.9063C9.83695 22.5257 9.42457 22.1071 9.05148 21.6504C7.07378 19.212 6.47346 15.8632 7.48054 12.8451C7.6713 12.286 7.90974 11.7474 8.19588 11.2351C8.32773 11.001 8.49043 10.7375 8.56898 10.6292C8.83828 11.8382 9.1693 12.9008 9.29273 13.2842C9.28431 13.3047 9.27309 13.3282 9.26187 13.3486C8.60825 14.7303 8.25479 16.0622 8.17063 17.4791C8.17063 17.4966 8.16783 17.5171 8.16783 17.5347C8.14538 17.9591 8.15661 18.1611 8.22393 18.4275C8.43432 19.2618 9.08234 20.1809 10.0978 21.0826C11.7613 22.5579 14.0168 23.6234 15.7251 23.7464C17.5065 23.8723 20.135 22.7862 21.8854 21.1996C22.1604 20.945 22.4184 20.6757 22.6597 20.3888C22.8336 20.178 23.0917 19.815 23.0721 19.815C23.0665 19.815 23.0721 19.8092 23.0833 19.8033C23.0917 19.7975 23.1001 19.7887 23.0945 19.7828C23.0917 19.7799 23.0973 19.7711 23.1057 19.7682C23.1141 19.7653 23.1198 19.7594 23.1169 19.7536C23.1141 19.7477 23.1169 19.7419 23.1282 19.7389C23.1366 19.736 23.1394 19.7272 23.1366 19.7214C23.1338 19.7155 23.1366 19.7097 23.1422 19.7097C23.1478 19.7097 23.1534 19.7009 23.1534 19.695C23.1534 19.6892 23.159 19.6804 23.1646 19.6804C23.1702 19.6804 23.1759 19.6745 23.1759 19.6687C23.1843 19.6453 23.1983 19.6218 23.2123 19.6013C23.2544 19.534 23.4227 19.2208 23.4452 19.1681C23.6051 18.7905 23.706 18.4538 23.7537 18.1172C23.7762 17.9562 23.7902 17.6605 23.779 17.5903C23.7762 17.5786 23.7762 17.5581 23.7734 17.5259C23.7678 17.4673 23.765 17.3795 23.7593 17.2917C23.7537 17.16 23.7425 16.9756 23.7341 16.8848C23.6135 15.5558 23.2881 14.4698 22.6709 13.3194C22.6457 13.2755 22.6232 13.2316 22.6092 13.1964C22.6036 13.1876 22.6008 13.1789 22.598 13.173C22.6849 12.9008 23.0412 11.762 23.3245 10.4594L23.3301 10.4653L23.3722 10.5238C23.4452 10.6263 23.6387 10.9307 23.7257 11.0771C24.1212 11.7503 24.4298 12.4734 24.6486 13.2286C25.1564 15.0465 25.1143 16.9843 24.5196 18.7758Z" fill="#F00500"/>
<path d="M20.8791 15.2777C20.8706 15.3246 20.7388 15.4651 20.607 15.5675C20.2198 15.8632 19.5269 16.1383 18.8228 16.2701C18.4217 16.3462 18.0205 16.3579 17.8999 16.2964C17.8213 16.2554 17.8101 16.2232 17.8382 16.1179C17.8971 15.8983 18.0878 15.6583 18.3852 15.4329C18.5367 15.3187 19.151 14.9294 19.4372 14.7654C19.9084 14.4961 20.29 14.3351 20.548 14.2971C20.6294 14.2854 20.7276 14.2824 20.7584 14.2971C20.8089 14.3176 20.865 14.4727 20.8875 14.6601C20.8987 14.7596 20.8931 15.1987 20.8791 15.2777Z" fill="black"/>
<path d="M14.2694 16.2466C14.2525 16.2818 14.1684 16.3198 14.073 16.3345C13.9776 16.3491 13.6859 16.3403 13.5204 16.3198C12.9257 16.2379 12.2945 16.0476 11.8344 15.8134C11.5763 15.6817 11.3912 15.5499 11.2537 15.4065L11.1752 15.3216L11.1668 15.2104C11.1528 15.0172 11.1556 14.7127 11.178 14.6044C11.192 14.5137 11.2229 14.4259 11.265 14.3468C11.2874 14.3176 11.2874 14.3176 11.3884 14.3176C11.5118 14.3176 11.6156 14.3381 11.7839 14.3937C12.129 14.5049 12.6423 14.7742 13.2679 15.1665C13.7841 15.4885 13.9776 15.6465 14.1263 15.8632C14.2273 15.9978 14.2946 16.1881 14.2694 16.2466Z" fill="black"/>
<path d="M18.2421 20.3214C18.2421 20.3302 18.2085 20.4707 18.1664 20.6376C18.1243 20.8044 18.0907 20.9391 18.0907 20.9449C18.0598 20.9479 18.0317 20.9508 18.0009 20.9479H17.9111L17.7877 21.2523C17.7204 21.4192 17.6586 21.5743 17.6502 21.5977L17.6334 21.6387L17.5745 21.5392L17.5156 21.4396V20.6288L17.4931 20.6346C17.4454 20.6464 17.106 20.6932 16.9573 20.7078C16.343 20.7722 15.7258 20.7576 15.1143 20.6668C15.0161 20.6522 14.932 20.6405 14.9291 20.6434C14.9263 20.6464 14.9291 20.8337 14.9348 21.065L14.9432 21.4806L14.8955 21.5567C14.8702 21.5977 14.845 21.6328 14.845 21.6358C14.8366 21.6446 14.8085 21.5977 14.744 21.4631C14.6739 21.3226 14.6234 21.1733 14.5869 21.0181L14.5673 20.9332L14.4803 20.9391L14.3933 20.9479L14.3709 20.8396C14.3597 20.781 14.3457 20.6903 14.34 20.6405L14.3316 20.5468L14.2587 20.4795C14.2166 20.4414 14.1745 20.4034 14.1661 20.3975C14.1521 20.3858 14.1465 20.3653 14.1465 20.3478V20.3126L14.4971 20.3156L14.8478 20.3185L14.859 20.3565L14.8702 20.3946L14.9909 20.4005C15.0582 20.4034 15.2714 20.4092 15.4621 20.4151L15.8128 20.4239L15.9026 20.2775L15.9951 20.1311H16.113L16.1102 19.8267L16.1073 19.5223L15.9531 19.452C15.4565 19.2237 15.1648 18.9632 15.0554 18.647C15.0329 18.5826 15.0329 18.5592 15.0273 18.2665C15.0245 17.9767 15.0245 17.9503 15.0442 17.8859C15.0834 17.7395 15.1928 17.6254 15.3331 17.5873C15.3808 17.5727 15.507 17.5727 16.1691 17.5727L16.9489 17.5756L17.0359 17.6195C17.1397 17.6722 17.1874 17.7103 17.2463 17.7922C17.3136 17.8859 17.3332 17.9591 17.3332 18.1377C17.3332 18.3923 17.3164 18.6119 17.2912 18.6997C17.2547 18.8197 17.1986 18.9339 17.1285 19.0363C16.9882 19.2237 16.7329 19.411 16.5001 19.4959L16.4328 19.5223L16.4356 19.8296L16.4384 20.137L16.5001 20.1429L16.5618 20.1487L16.646 20.2804L16.7273 20.4122H17.1032C17.3108 20.4122 17.4931 20.4151 17.51 20.418C17.538 20.4239 17.5436 20.4209 17.5717 20.3712L17.6053 20.3185H17.9279C18.1692 20.3068 18.2421 20.3126 18.2421 20.3214Z" fill="black"/>
<path d="M16.7602 21.1616C16.7069 21.1938 16.6704 21.2084 16.662 21.2025C16.6536 21.1996 16.6143 21.1645 16.5722 21.1323L16.4965 21.0679L16.4179 21.1557C16.2468 21.3489 16.2412 21.3577 16.1907 21.3606C16.1122 21.3694 16.0953 21.3548 16 21.2055C15.9495 21.1294 15.9102 21.065 15.9102 21.065C15.9102 21.065 15.8737 21.0591 15.8317 21.0562L15.7531 21.0474L15.7166 21.1264L15.6802 21.2055L15.6156 21.185C15.5652 21.1674 15.5147 21.1469 15.467 21.1235L15.3828 21.0796V20.9127L16.129 20.9157L16.8752 20.9186L16.878 20.9976C16.8808 21.0913 16.8836 21.0884 16.7602 21.1616Z" fill="black"/>
<path d="M23.7743 17.5902C23.7714 17.5785 23.7714 17.558 23.7686 17.5258C23.0954 17.4497 21.1738 17.4028 19.3897 18.9396C19.3897 18.9396 18.8146 16.188 16.1216 16.188C13.4285 16.188 12.4299 18.9396 12.4299 18.9396C10.9206 17.2447 8.90088 17.3677 8.17151 17.4789C8.17151 17.4965 8.16871 17.517 8.16871 17.5345C8.14626 17.959 8.15749 18.161 8.22481 18.4274C8.4352 19.2616 9.08322 20.1808 10.0987 21.0824C11.7622 22.5578 14.0176 23.6233 15.726 23.7463C17.5073 23.8721 20.1359 22.7861 21.8863 21.1995C22.1612 20.9448 22.4193 20.6755 22.6606 20.3887C22.8345 20.1779 23.0926 19.8149 23.0729 19.8149C23.0673 19.8149 23.0729 19.809 23.0842 19.8032C23.0926 19.7973 23.101 19.7886 23.0954 19.7827C23.0926 19.7798 23.0982 19.771 23.1066 19.7681C23.115 19.7651 23.1206 19.7593 23.1178 19.7534C23.115 19.7476 23.1178 19.7417 23.129 19.7388C23.1375 19.7359 23.1403 19.7271 23.1375 19.7212C23.1347 19.7154 23.1375 19.7095 23.1431 19.7095C23.1487 19.7095 23.1543 19.7007 23.1543 19.6949C23.1543 19.689 23.1599 19.6802 23.1655 19.6802C23.1711 19.6802 23.1767 19.6744 23.1767 19.6685C23.1852 19.6451 23.1992 19.6217 23.2132 19.6012C23.2553 19.5339 23.4236 19.2207 23.446 19.168C23.6059 18.7903 23.7069 18.4537 23.7546 18.1171C23.7714 17.9561 23.7855 17.6604 23.7743 17.5902ZM16.7612 21.1615C16.7079 21.1937 16.6714 21.2083 16.663 21.2024C16.6546 21.1995 16.6153 21.1644 16.5732 21.1322L16.4975 21.0678L16.4189 21.1556C16.2478 21.3488 16.2422 21.3576 16.1917 21.3605C16.1131 21.3693 16.0963 21.3547 16.0009 21.2054C15.9504 21.1293 15.9112 21.0649 15.9112 21.0649C15.9112 21.0649 15.8747 21.059 15.8326 21.0561L15.7541 21.0473L15.7176 21.1263L15.6811 21.2054L15.6166 21.1849C15.5661 21.1673 15.5156 21.1468 15.4679 21.1234L15.3838 21.0795V20.9126L16.13 20.9156L16.8762 20.9185L16.879 20.9975C16.8818 21.0912 16.8846 21.0883 16.7612 21.1615ZM18.1638 20.6345C18.1217 20.8014 18.088 20.9361 18.088 20.9419C18.0572 20.9448 18.0291 20.9478 17.9983 20.9448H17.9085L17.7879 21.2522C17.7205 21.4191 17.6588 21.5742 17.6504 21.5976L17.6336 21.6386L17.5747 21.5391L17.5158 21.4395V20.6287L17.4933 20.6345C17.4456 20.6463 17.1062 20.6931 16.9575 20.7077C16.3432 20.7721 15.726 20.7575 15.1145 20.6667C15.0163 20.6521 14.9321 20.6404 14.9293 20.6433C14.9265 20.6463 14.9293 20.8336 14.9349 21.0649L14.9434 21.4805L14.8957 21.5566C14.8704 21.5976 14.8452 21.6327 14.8452 21.6357C14.8368 21.6445 14.8087 21.5976 14.7442 21.463C14.6741 21.3225 14.6236 21.1732 14.5871 21.018L14.5675 20.9331L14.4805 20.939L14.3935 20.9478L14.3711 20.8395C14.3599 20.7809 14.3458 20.6902 14.3402 20.6404L14.3318 20.5467L14.2589 20.4794C14.2168 20.4413 14.1747 20.4033 14.1663 20.3974C14.1523 20.3857 14.1467 20.3652 14.1467 20.3477V20.3125L14.4973 20.3155L14.848 20.3184L14.8592 20.3565L14.8704 20.3945L14.9911 20.4004C15.0584 20.4033 15.2716 20.4091 15.4623 20.415L15.813 20.4238L15.9028 20.2774L15.9953 20.131H16.1131L16.1103 19.8266L16.1075 19.5222L15.9532 19.4519C15.4567 19.2236 15.165 18.9631 15.0556 18.6469C15.0331 18.5825 15.0331 18.5591 15.0275 18.2664C15.0247 17.9766 15.0247 17.9502 15.0443 17.8858C15.0836 17.7395 15.193 17.6253 15.3333 17.5872C15.381 17.5726 15.5072 17.5726 16.1693 17.5726L16.9491 17.5755L17.0361 17.6194C17.1399 17.6721 17.1875 17.7102 17.2465 17.7921C17.3138 17.8858 17.3334 17.959 17.3334 18.1376C17.3334 18.3922 17.3166 18.6118 17.2913 18.6996C17.2549 18.8196 17.1988 18.9338 17.1286 19.0362C16.9884 19.2236 16.7331 19.4109 16.5003 19.4958L16.4329 19.5222L16.4357 19.8295L16.4386 20.1369L16.5003 20.1428L16.562 20.1486L16.6461 20.2803L16.7275 20.4121H17.1034C17.311 20.4121 17.4933 20.415 17.5102 20.4179C17.5382 20.4238 17.5438 20.4209 17.5719 20.3711L17.6055 20.3184H17.9281C18.1778 20.3184 18.2507 20.3213 18.2507 20.3301C18.2423 20.3272 18.2059 20.4706 18.1638 20.6345Z" fill="white"/>
<path d="M23.75 17.2917C23.7444 17.1599 23.7331 16.9755 23.7247 16.8848C23.6041 15.5558 23.2787 14.4697 22.6615 13.3193C22.6363 13.2754 22.6138 13.2315 22.5998 13.1964C22.5942 13.1876 22.5914 13.1788 22.5886 13.173C22.6756 12.9007 23.0318 11.762 23.3152 10.4594C23.6995 8.69127 23.9435 6.62461 23.1973 6.00402C23.1973 6.00402 21.9069 5.90449 20.1789 7.67258C19.7104 8.16144 19.2812 8.69128 18.8997 9.25624L18.7791 9.21526C18.0834 8.97815 17.3624 8.83179 16.6359 8.78202C16.4171 8.76446 15.6008 8.76446 15.3343 8.78202C14.5291 8.83764 13.912 8.96351 13.2107 9.21819C13.1826 9.2299 13.1574 9.23868 13.1321 9.24746C12.7366 8.68542 12.2962 8.15851 11.8109 7.67551C10.0127 5.89864 8.67462 6.0011 8.67462 6.0011C7.88354 6.64217 8.15284 8.80251 8.56241 10.6291C8.83171 11.8381 9.16273 12.9007 9.28616 13.2842C9.27774 13.3047 9.26652 13.3281 9.2553 13.3486C8.60168 14.7303 8.24822 16.0622 8.16406 17.479C8.89623 17.3678 10.9132 17.2419 12.4252 18.9397C12.4252 18.9397 13.4239 16.1881 16.1169 16.1881C18.8099 16.1881 19.385 18.9397 19.385 18.9397C21.1692 17.4029 23.0907 17.4527 23.764 17.5258C23.7612 17.4673 23.7556 17.3795 23.75 17.2917ZM9.81635 12.1806C9.81635 12.1806 8.76719 9.44359 9.03649 7.88042C9.08138 7.61696 9.16553 7.3857 9.29738 7.21007C9.29738 7.21007 10.4868 7.33301 12.4056 9.55775C12.4056 9.55775 12.0409 9.74217 11.5528 10.1344C11.5528 10.1344 11.55 10.1374 11.5472 10.1374C11.017 10.5618 10.3381 11.2351 9.81635 12.1806ZM14.2683 16.2466C14.2514 16.2817 14.1673 16.3198 14.0719 16.3344C13.9765 16.3491 13.6848 16.3403 13.5193 16.3198C12.9246 16.2378 12.2934 16.0476 11.8333 15.8134C11.5752 15.6816 11.3901 15.5499 11.2526 15.4065L11.1741 15.3216L11.1657 15.2104C11.1516 15.0171 11.1544 14.7127 11.1769 14.6044C11.1909 14.5137 11.2218 14.4258 11.2639 14.3468C11.2863 14.3175 11.2863 14.3175 11.3873 14.3175C11.5107 14.3175 11.6145 14.338 11.7828 14.3936C12.1279 14.5049 12.6412 14.7742 13.2668 15.1664C13.783 15.4884 13.9765 15.6465 14.1252 15.8631C14.2262 15.9978 14.2935 16.1881 14.2683 16.2466ZM20.8774 15.2777C20.869 15.3245 20.7371 15.465 20.6053 15.5675C20.2182 15.8631 19.5253 16.1383 18.8212 16.27C18.42 16.3461 18.0189 16.3578 17.8982 16.2964C17.8197 16.2554 17.8085 16.2232 17.8365 16.1178C17.8954 15.8983 18.0862 15.6582 18.3835 15.4328C18.535 15.3187 19.1494 14.9293 19.4355 14.7654C19.9068 14.4961 20.2883 14.3351 20.5464 14.297C20.6277 14.2853 20.7259 14.2824 20.7568 14.297C20.8073 14.3175 20.8634 14.4727 20.8858 14.66C20.897 14.7595 20.8914 15.1986 20.8774 15.2777ZM20.4117 10.1344L20.4061 10.1315C19.9348 9.73925 19.5814 9.55483 19.5814 9.55483C21.4356 7.33008 22.583 7.20714 22.583 7.20714C22.7092 7.3857 22.7906 7.61403 22.8355 7.87749C23.0964 9.44066 22.0837 12.1806 22.0837 12.1806C21.6601 11.3932 21.0906 10.6965 20.4117 10.1344Z" fill="#FFA409"/>
<path d="M22.8389 7.87747C22.6201 7.8482 21.585 7.84234 20.4124 10.1344L20.4068 10.1315C19.9355 9.73923 19.582 9.55481 19.582 9.55481C21.4363 7.33007 22.5837 7.20712 22.5837 7.20712C22.7127 7.38569 22.794 7.61402 22.8389 7.87747Z" fill="#FF9300"/>
<path d="M22.0868 12.1806C21.6604 11.3902 21.0938 10.6964 20.4121 10.1344C21.5847 7.84233 22.617 7.84819 22.8386 7.87746C23.0995 9.44356 22.0868 12.1806 22.0868 12.1806Z" fill="#FF8300"/>
<path d="M22.8819 7.88576C22.8679 7.88299 22.8539 7.88021 22.8398 7.87744L22.8819 7.88576Z" fill="#FF8300"/>
<path d="M12.4071 9.55484C12.4071 9.55484 12.0424 9.73926 11.5543 10.1315C11.5543 10.1315 11.5515 10.1344 11.5486 10.1344C10.334 7.83945 9.26519 7.84823 9.03516 7.8775C9.08004 7.61405 9.1642 7.38279 9.29604 7.20715C9.29885 7.20715 10.4883 7.3301 12.4071 9.55484Z" fill="#FF9300"/>
<path d="M11.5518 10.1344C11.0188 10.5618 10.34 11.2321 9.8182 12.1806C9.8182 12.1806 8.76904 9.44356 9.03835 7.87746C9.26557 7.84819 10.3372 7.84233 11.5518 10.1344Z" fill="#FF8300"/>
<path d="M9.03707 7.87744C9.02304 7.88021 9.00621 7.88299 8.99219 7.88576L9.03707 7.87744Z" fill="#FF8300"/>
<path d="M19.2483 13.6999C19.2483 13.6999 18.3506 13.7584 18.4628 13.0266C18.575 12.2948 19.2763 12.207 19.4727 12.2362C19.6691 12.2655 20.4545 12.5582 20.3143 13.173C20.174 13.7877 19.9776 13.6706 19.8654 13.6999C19.7532 13.7292 19.2483 13.6999 19.2483 13.6999Z" fill="white"/>
<path d="M12.6272 13.6999C12.6272 13.6999 11.7295 13.7584 11.8417 13.0266C11.9539 12.2948 12.6553 12.207 12.8516 12.2363C13.048 12.2655 13.8334 12.5583 13.6932 13.173C13.5529 13.7877 13.3566 13.6706 13.2443 13.6999C13.1321 13.7292 12.6272 13.6999 12.6272 13.6999Z" fill="white"/>
<defs>
<linearGradient id="paint0_linear_2470_50856" x1="16" y1="0" x2="16" y2="32" gradientUnits="userSpaceOnUse">
<stop stop-color="#F6F2FF"/>
<stop offset="1" stop-color="#FFDFDF"/>
</linearGradient>
</defs>
</svg>
