<svg width="32" height="32" viewBox="0 0 32 32" fill="none" xmlns="http://www.w3.org/2000/svg">
<rect width="32" height="32" fill="url(#paint0_linear_2618_64288)"/>
<path d="M22.3627 10.4624L20.2296 11.5503L9.92132 16.8004C9.77445 15.6721 9.94393 14.5253 10.4108 13.4877C10.8777 12.4502 11.6237 11.5627 12.5656 10.9244C13.5074 10.2861 14.6081 9.92203 15.7448 9.87277C16.8815 9.82351 18.0095 10.091 19.0031 10.6455L20.2243 10.0233L20.4065 9.92998C19.2479 9.08926 17.873 8.59761 16.4441 8.51309C15.0151 8.42857 13.5918 8.75471 12.3423 9.45299C11.0927 10.1513 10.069 11.1925 9.39216 12.4538C8.71529 13.7151 8.41347 15.1438 8.52235 16.5711C8.54273 16.8395 8.48322 17.108 8.35131 17.3427C8.21941 17.5774 8.02101 17.7679 7.7811 17.8901L7.13672 18.2189V19.7512L9.03341 18.7842L9.64757 18.4704L10.2528 18.162L21.1193 12.6248L22.3405 12.0035L24.8647 10.7175V9.18606L22.3627 10.4624ZM24.8656 12.2506L10.8714 19.3752L9.65024 19.9974L7.13761 21.2799V22.8113L9.63335 21.5403L11.7674 20.4525L22.0863 15.1943C22.2354 16.3243 22.0671 17.4735 21.6002 18.5132C21.1333 19.553 20.3862 20.4423 19.4426 21.0815C18.499 21.7208 17.3961 22.0849 16.2573 22.1329C15.1186 22.181 13.9889 21.9112 12.9948 21.3537L12.9192 21.3937L11.5949 22.0692C12.7536 22.9104 14.1289 23.4023 15.5583 23.4869C16.9876 23.5715 18.4114 23.2452 19.6612 22.5465C20.911 21.8478 21.9348 20.806 22.6115 19.5441C23.2881 18.2823 23.5895 16.8531 23.4799 15.4254C23.4598 15.1572 23.5193 14.889 23.651 14.6545C23.7827 14.42 23.9808 14.2297 24.2203 14.1073L24.8656 13.7785V12.2515V12.2506Z" fill="white"/>
<defs>
<linearGradient id="paint0_linear_2618_64288" x1="16" y1="0" x2="16" y2="32" gradientUnits="userSpaceOnUse">
<stop stop-color="#281359"/>
<stop offset="1" stop-color="#040D2C"/>
</linearGradient>
</defs>
</svg>
