<svg width="32" height="32" viewBox="0 0 32 32" fill="none" xmlns="http://www.w3.org/2000/svg">
<rect width="32" height="32" fill="url(#paint0_linear_2470_51144)"/>
<path fill-rule="evenodd" clip-rule="evenodd" d="M10.7636 9.30769L21.3202 9.30762C21.6937 9.30762 22.0669 9.36247 22.4569 9.5443C22.9244 9.76223 23.1723 10.1057 23.346 10.3598C23.3595 10.3795 23.3722 10.3999 23.3839 10.4207C23.5881 10.7843 23.6933 11.1768 23.6933 11.599C23.6933 12.0001 23.5979 12.4372 23.3839 12.8181C23.3818 12.8218 23.3798 12.8254 23.3777 12.829L16.7082 24.2858C16.5611 24.5384 16.2904 24.6934 15.9981 24.6924C15.7057 24.6914 15.4361 24.5344 15.2908 24.2807L8.74383 12.8485C8.74195 12.8454 8.74006 12.8423 8.73818 12.8391C8.58835 12.5922 8.35664 12.2104 8.3161 11.7177C8.27886 11.2645 8.3807 10.8105 8.60838 10.4169C8.83605 10.0232 9.17881 9.70845 9.59108 9.5158C10.0331 9.30923 10.4811 9.30769 10.7636 9.30769ZM15.1826 10.9443H10.7636C10.4733 10.9443 10.3618 10.9622 10.2839 10.9986C10.1762 11.0489 10.0857 11.1316 10.0252 11.2362C9.96469 11.3409 9.93733 11.4622 9.94728 11.5836C9.95299 11.6531 9.98136 11.7327 10.1487 12.0087C10.1522 12.0145 10.1556 12.0203 10.159 12.0261L15.1826 20.7984V10.9443ZM16.8193 10.9443V20.8417L21.9593 12.0122C22.0173 11.9068 22.0567 11.7545 22.0567 11.599C22.0567 11.4728 22.0305 11.3632 21.972 11.2503C21.9106 11.162 21.8733 11.1153 21.842 11.0833C21.8152 11.056 21.7946 11.0413 21.7654 11.0277C21.6438 10.9711 21.5195 10.9443 21.3202 10.9443H16.8193Z" fill="white"/>
<defs>
<linearGradient id="paint0_linear_2470_51144" x1="16" y1="0" x2="16" y2="32" gradientUnits="userSpaceOnUse">
<stop stop-color="#00B4CC"/>
<stop offset="1" stop-color="#0088CC"/>
</linearGradient>
</defs>
</svg>
