<svg width="32" height="32" viewBox="0 0 32 32" fill="none" xmlns="http://www.w3.org/2000/svg">
<rect width="32" height="32" fill="url(#paint0_linear_2624_64284)"/>
<path d="M21.1862 11C20.5078 11 19.8859 11.3609 19.5514 11.9422L15.3057 19.25H12.1406V23H16.3993C17.0728 23 17.6952 22.6423 18.0317 22.0617L22.2698 14.75H25.4263V11H21.1862Z" fill="white"/>
<path d="M9.82422 23L6.57031 21.1297L11.8749 11.9422C12.2073 11.3609 12.8253 11 13.4995 11H17.7132V14.75H14.5763L9.82422 23Z" fill="white"/>
<path d="M7 11V14.8571C9.13107 14.8571 10.8571 13.1311 10.8571 11H7Z" fill="white"/>
<path d="M23.4989 20.8571C24.564 20.8571 25.4275 19.9937 25.4275 18.9286C25.4275 17.8634 24.564 17 23.4989 17C22.4338 17 21.5703 17.8634 21.5703 18.9286C21.5703 19.9937 22.4338 20.8571 23.4989 20.8571Z" fill="white"/>
<defs>
<linearGradient id="paint0_linear_2624_64284" x1="16" y1="0" x2="16" y2="32" gradientUnits="userSpaceOnUse">
<stop stop-color="#1A5AFF"/>
<stop offset="1" stop-color="#002DA0"/>
</linearGradient>
</defs>
</svg>
