<svg width="32" height="32" viewBox="0 0 32 32" fill="none" xmlns="http://www.w3.org/2000/svg">
<rect width="32" height="32" fill="url(#paint0_linear_2515_52596)"/>
<path d="M7 25C7 19.0237 7 13.0119 7 7C13.0119 7 18.9881 7 25 7C25 13.0119 25 18.9881 25 25C18.9881 25 13.0119 25 7 25ZM21.6206 14.6838C21.6917 14.5415 21.7273 14.4704 21.7628 14.3636C21.9051 13.3676 22.083 12.336 22.2253 11.3399C22.2609 11.1265 22.3676 10.9486 22.4743 10.7708C22.6166 10.5929 22.7589 10.415 22.9368 10.2372C22.9012 10.2016 22.9012 10.166 22.8656 10.1304C22.581 10.166 22.2609 10.2016 21.9763 10.2016C21.7628 10.2016 21.5494 10.2016 21.3715 10.1304C20.2688 9.59684 19.0949 9.27668 17.8498 9.09881C17.7787 9.09881 17.6719 9.09881 17.5296 9.09881C18.3478 9.59684 19.0949 10.0593 19.8775 10.4862C19.8775 10.5217 19.8419 10.5929 19.8419 10.6285C18.668 10.8775 17.5296 11.1976 16.4269 11.7312C17.4941 11.6245 18.5613 11.5178 19.664 11.4111C19.6996 11.4466 19.6996 11.5178 19.7352 11.5534C19.415 11.9802 19.0949 12.4071 18.7391 12.8696L18.7747 12.9051C19.5217 12.5138 20.2688 12.1581 21.087 11.7312C21.585 12.6561 21.5138 13.6522 21.6206 14.6838ZM10.1304 16.4625C10.166 16.498 10.2016 16.498 10.2372 16.5336C10.9486 15.9644 11.6245 15.3953 12.3715 14.7905C12.585 15.4308 12.7628 15.9644 12.9407 16.498C13.1542 15.9644 13.332 15.4308 13.4387 14.9328C13.5455 14.5415 13.7589 14.3281 14.1858 14.3281C14.7194 14.3281 15.253 14.3281 15.751 14.3281C16.0711 14.3281 16.3913 14.3992 16.6759 14.4348C16.6759 14.3992 16.7115 14.3281 16.7115 14.2925C15.8221 13.9723 14.9684 13.6877 14.0791 13.3676C14.1502 13.1186 14.2569 12.8696 14.3636 12.5494C14.1146 12.6561 13.9368 12.6917 13.7945 12.7628C13.1186 13.2609 12.336 13.4032 11.5178 13.3676C11.1621 13.3676 10.8063 13.4743 10.4506 13.5099C10.4506 13.5455 10.4506 13.5455 10.4862 13.581C10.913 13.7233 11.3755 13.9012 11.8024 14.0435C11.2332 14.8972 10.664 15.6798 10.1304 16.4625ZM12.4427 21.4427C12.4427 21.4071 12.4427 21.3715 12.4783 21.3715C12.1937 21.1937 11.9447 21.0158 11.6601 20.8379C11.3043 20.6245 11.2688 20.3755 11.4822 20.0198C11.5889 19.8419 11.6601 19.664 11.8024 19.3794C11.4822 19.415 11.2332 19.415 10.9842 19.4862C10.6285 19.5929 10.415 19.4506 10.3083 19.1304C10.166 18.7036 10.0237 18.2767 9.88142 17.8498C9.84585 17.8498 9.81028 17.8498 9.7747 17.8498C9.7747 18.2411 9.73913 18.668 9.7747 19.0593C9.84585 19.5217 9.7747 19.8063 9.24111 19.913C9.13439 19.913 9.02767 20.0198 8.92095 20.0553C8.92095 20.0909 8.88538 20.1265 8.88538 20.1976C9.95257 20.4466 10.4506 21.3004 11.0553 22.1186C11.0909 21.9407 11.0909 21.834 11.0909 21.7273C11.0909 21.3004 11.1265 21.2292 11.5889 21.336C11.8735 21.3715 12.1581 21.4071 12.4427 21.4427ZM16.2846 20.5534C16.249 20.5178 16.2134 20.4822 16.2134 20.4466C15.8221 21.3004 15.1462 21.6206 14.2569 21.6917C14.4348 21.7984 14.6482 21.8696 14.8972 21.9763C14.6838 22.1897 14.5059 22.332 14.2569 22.581C14.4704 22.5455 14.5771 22.5099 14.6482 22.5099C15.2174 22.332 15.7866 22.1542 16.3202 21.9763C16.3913 21.9407 16.4625 21.834 16.498 21.7628C16.6047 21.585 16.6403 21.3715 16.747 21.2292C16.9249 21.0158 17.1739 20.8379 17.3874 20.6245L17.3518 20.5889C17.0672 20.7312 16.747 20.8735 16.4269 21.0514C16.3557 20.8379 16.3202 20.6957 16.2846 20.5534Z" fill="#009C7C"/>
<defs>
<linearGradient id="paint0_linear_2515_52596" x1="16" y1="0" x2="16" y2="32" gradientUnits="userSpaceOnUse">
<stop stop-color="#F6F2FF"/>
<stop offset="1" stop-color="#E7FFF4"/>
</linearGradient>
</defs>
</svg>
