<svg width="32" height="32" viewBox="0 0 32 32" fill="none" xmlns="http://www.w3.org/2000/svg">
<rect width="32" height="32" fill="url(#paint0_linear_2515_52654)"/>
<path d="M21.5 19.6233C21.5 17.4178 20.0586 16.0788 17.7069 15.1336L15.8103 14.4247C14.6724 13.8733 13.7621 13.4007 13.7621 12.2192C13.7621 10.9589 14.9759 10.4075 16.1138 10.4075C17.2517 10.4075 18.0862 10.8801 18.9207 11.8254C19.1483 12.1404 19.4517 12.2192 19.7552 12.2192C20.3621 12.2192 20.8931 11.7466 20.8931 10.9589C20.8931 10.7226 20.8172 10.4863 20.5896 10.1712C19.831 9.0685 18.6931 8.20207 17.1759 7.887V5.83905C17.1759 5.05138 16.6448 4.5 15.9621 4.5C15.2793 4.5 14.7483 5.05138 14.7483 5.83905V7.96577C12.6241 8.43837 11.1069 9.93494 11.1069 12.1404C11.1069 14.4247 12.7758 15.6849 14.8241 16.5514L16.569 17.2603C17.8586 17.8904 18.8448 18.4418 18.8448 19.6233C18.8448 20.9623 17.7069 21.6712 16.1897 21.6712C14.5966 21.6712 13.5345 21.0411 12.5483 19.7021C12.3207 19.387 12.0172 19.3082 11.7138 19.3082C11.1069 19.3082 10.5 19.7808 10.5 20.4897C10.5 20.726 10.5759 20.9623 10.8034 21.2774C11.7138 22.6164 13.1552 23.6404 14.9 23.9555V26.1609C14.9 26.9486 15.431 27.5 16.1138 27.5C16.7965 27.5 17.3276 26.8699 17.3276 26.1609V24.0343C19.6793 23.7192 21.5 22.1438 21.5 19.6233Z" fill="white"/>
<defs>
<linearGradient id="paint0_linear_2515_52654" x1="16" y1="0" x2="16" y2="32" gradientUnits="userSpaceOnUse">
<stop stop-color="#59EC73"/>
<stop offset="1" stop-color="#3F8C4B"/>
</linearGradient>
</defs>
</svg>
