<svg width="32" height="32" viewBox="0 0 32 32" fill="none" xmlns="http://www.w3.org/2000/svg">
<rect width="32" height="32" fill="url(#paint0_linear_2470_50904)"/>
<path d="M22.3216 10.1796L21.834 10.7317C22.9975 12.1725 23.6428 14.0541 23.6428 16.0065C23.6428 17.9588 22.9975 19.8404 21.834 21.2812L22.3216 21.8334C23.6156 20.2441 24.334 18.1616 24.334 16C24.334 13.8384 23.6156 11.756 22.3216 10.1667V10.1796Z" fill="#5A5564"/>
<path d="M10.731 10.1667C12.1718 9.00315 14.0535 8.35791 16.0058 8.35791C17.9581 8.35791 19.8398 9.00315 21.2805 10.1667L21.8327 9.67907C20.2434 8.38509 18.161 7.66669 15.9993 7.66669C13.8377 7.66669 11.7553 8.38509 10.166 9.67907L10.731 10.1667Z" fill="#5A5564"/>
<path d="M10.166 21.2628C9.00386 19.8224 8.35946 17.9419 8.35946 15.9908C8.35946 14.0398 9.00386 12.1593 10.166 10.7188L9.6784 10.1667C8.38442 11.756 7.66602 13.8384 7.66602 16C7.66602 18.1616 8.38442 20.2441 9.6784 21.8334L10.166 21.2628Z" fill="#5A5564"/>
<path d="M21.2677 21.8333C19.8269 22.9969 17.9452 23.6421 15.9929 23.6421C14.0406 23.6421 12.1589 22.9969 10.7182 21.8333L10.166 22.3209C11.7553 23.6149 13.8377 24.3333 15.9993 24.3333C18.161 24.3333 20.2434 23.6149 21.8327 22.3209L21.2677 21.8333Z" fill="#5A5564"/>
<path d="M19.6009 14.3319C19.4922 13.1481 18.5139 12.751 17.2766 12.63V11H16.32V12.5998C16.0682 12.5998 15.811 12.5998 15.5555 12.5998V11H14.6062V12.6414H12.666V13.7098C12.666 13.7098 13.3725 13.6965 13.3617 13.7098C13.4891 13.6951 13.6169 13.7327 13.7183 13.8145C13.8197 13.8964 13.8867 14.0161 13.9052 14.1485V18.6414C13.9024 18.6881 13.8908 18.7337 13.8709 18.7756C13.8509 18.8175 13.8232 18.8548 13.7892 18.8853C13.7559 18.9164 13.7169 18.9401 13.6745 18.9551C13.6322 18.97 13.5874 18.9759 13.5428 18.9723C13.5555 18.9837 12.8472 18.9723 12.8472 18.9723L12.666 20.1655H14.5881V21.8333H15.5447V20.1901H16.3092V21.8258H17.2675V20.1768C18.8835 20.0747 20.0103 19.6587 20.1516 18.0798C20.2657 16.809 19.6932 16.2418 18.7784 16.0129C19.3345 15.7274 19.6788 15.1979 19.6009 14.3319ZM18.2603 17.8831C18.2603 19.1236 16.224 18.9818 15.5755 18.9818V16.7807C16.224 16.7826 18.2603 16.5878 18.2603 17.8831ZM17.8164 14.7819C17.8164 15.9165 16.1171 15.7785 15.5773 15.7785V13.7778C16.1171 13.7778 17.8164 13.6001 17.8164 14.7819Z" fill="#F09242"/>
<path d="M15.9982 26C14.0205 25.9996 12.0874 25.4129 10.4432 24.3139C8.79895 23.215 7.51751 21.6532 6.76086 19.826C6.00421 17.9988 5.80633 15.9883 6.19224 14.0486C6.57815 12.109 7.53052 10.3274 8.92894 8.92894C10.3274 7.53052 12.109 6.57815 14.0486 6.19224C15.9883 5.80633 17.9988 6.00421 19.826 6.76086C21.6532 7.51751 23.215 8.79895 24.3139 10.4432C25.4129 12.0874 25.9996 14.0205 26 15.9982C26.0002 17.3117 25.7417 18.6124 25.2391 19.826C24.7366 21.0396 23.9999 22.1423 23.0711 23.0711C22.1423 23.9999 21.0396 24.7366 19.826 25.2391C18.6124 25.7417 17.3117 26.0002 15.9982 26ZM15.9982 6.7798C14.1761 6.78124 12.3954 7.32282 10.8811 8.33606C9.36682 9.3493 8.18688 10.7887 7.49046 12.4724C6.79403 14.1561 6.61238 16.0085 6.96846 17.7953C7.32454 19.5822 8.20237 21.2235 9.491 22.5116C10.7796 23.7997 12.4212 24.6769 14.2082 25.0323C15.9953 25.3876 17.8476 25.2052 19.531 24.5081C21.2144 23.8111 22.6533 22.6305 23.666 21.1158C24.6786 19.6011 25.2195 17.8202 25.2202 15.9982C25.2207 14.7872 24.9825 13.5879 24.5191 12.469C24.0558 11.3502 23.3765 10.3336 22.52 9.47743C21.6635 8.62128 20.6466 7.94235 19.5276 7.47947C18.4085 7.01659 17.2092 6.77883 15.9982 6.7798Z" fill="#282138"/>
<defs>
<linearGradient id="paint0_linear_2470_50904" x1="16" y1="0" x2="16" y2="32" gradientUnits="userSpaceOnUse">
<stop stop-color="#F6F2FF"/>
<stop offset="1" stop-color="#FFF1E9"/>
</linearGradient>
</defs>
</svg>
