<svg width="32" height="32" viewBox="0 0 32 32" fill="none" xmlns="http://www.w3.org/2000/svg">
<rect width="32" height="32" fill="url(#paint0_linear_2470_50913)"/>
<path d="M23.8423 11.934L21.1175 9.20919C19.5634 7.25138 17.1615 6 14.4771 6C9.79452 6 6 9.79452 6 14.4771C6 17.1615 7.25138 19.5634 9.20919 21.1175L11.934 23.8423C13.4074 25.3157 15.7689 25.3157 17.2423 23.8423L23.8423 17.2423C25.3157 15.7891 25.3157 13.4074 23.8423 11.934Z" fill="#ED1E79"/>
<path d="M14.6406 24.9474C13.5751 24.9474 12.5676 24.5409 11.8121 23.7861L9.19664 21.1734C7.16242 19.5477 6 17.1091 6 14.5157C6 9.8127 9.8166 6 14.5244 6C17.1204 6 19.5615 7.16123 21.1889 9.19338L23.785 11.8061C24.5405 12.5609 24.9474 13.5673 24.9474 14.6318C24.9474 15.6963 24.5405 16.7027 23.785 17.4574L17.4498 23.7668C16.6942 24.5216 15.7062 24.9474 14.6406 24.9474ZM14.5244 6.77415C10.2428 6.77415 6.77494 10.2385 6.77494 14.5157C6.77494 16.8768 7.84049 19.1025 9.70036 20.5734L9.7391 20.6121L12.3545 23.2249C12.9551 23.8248 13.7688 24.1732 14.6212 24.1732C15.4737 24.1732 16.2874 23.8442 16.888 23.2249L23.2425 16.8962C23.8431 16.2962 24.1918 15.4834 24.1918 14.6318C24.1918 13.7802 23.8624 12.9674 23.2425 12.3674L20.5883 9.69658C19.1159 7.83861 16.888 6.77415 14.5244 6.77415Z" fill="black"/>
<path d="M6.7783 15.5598L6.23438 16.1038L10.9937 20.8631L11.5376 20.3192L6.7783 15.5598Z" fill="black"/>
<path d="M6.7783 12.6753L6.23438 13.2192L10.9937 17.9785L11.5376 17.4346L6.7783 12.6753Z" fill="black"/>
<path d="M17.5793 26C22.2301 26 26.0003 22.2298 26.0003 17.579C26.0003 12.9281 22.2301 9.1579 17.5793 9.1579C12.9284 9.1579 9.1582 12.9281 9.1582 17.579C9.1582 22.2298 12.9284 26 17.5793 26Z" fill="white"/>
<path d="M17.5793 26C12.9285 26 9.1582 22.2297 9.1582 17.579C9.1582 12.9282 12.9285 9.1579 17.5793 9.1579C22.23 9.1579 26.0003 12.9282 26.0003 17.579C26.0003 22.2297 22.23 26 17.5793 26ZM17.5793 9.92345C13.3496 9.92345 9.92375 13.3493 9.92375 17.579C9.92375 21.8086 13.3496 25.2345 17.5793 25.2345C21.8089 25.2345 25.2348 21.8086 25.2348 17.579C25.2348 13.3493 21.8089 9.92345 17.5793 9.92345Z" fill="black"/>
<path d="M17.5795 23.8948C14.1058 23.8948 11.2637 21.0527 11.2637 17.579C11.2637 14.1053 14.1058 11.2632 17.5795 11.2632C21.0531 11.2632 23.8953 14.1053 23.8953 17.579C23.8953 21.0527 21.0531 23.8948 17.5795 23.8948ZM17.5795 12.0062C14.5144 12.0062 12.0067 14.514 12.0067 17.579C12.0067 20.644 14.5144 23.1517 17.5795 23.1517C20.6445 23.1517 23.1522 20.644 23.1522 17.579C23.1522 14.514 20.6445 12.0062 17.5795 12.0062Z" fill="black"/>
<path d="M16.21 19.6842H14.4219V16.5263H16.151V17.1085H15.09V17.8142H16.0724V18.3963H15.09V19.1197H16.21V19.6842Z" fill="black"/>
<path d="M18.8036 17.1085H17.9587V19.6842H17.271V17.1085H16.4261V16.5263H18.8036V17.1085Z" fill="black"/>
<path d="M21.1222 19.6842H21.7903V16.5263H21.1222V17.7789H19.8843V16.5263H19.2162V19.6842H19.8843V18.3963H21.1222V19.6842Z" fill="black"/>
<defs>
<linearGradient id="paint0_linear_2470_50913" x1="16" y1="0" x2="16" y2="32" gradientUnits="userSpaceOnUse">
<stop stop-color="#F6F2FF"/>
<stop offset="1" stop-color="#FFE9FD"/>
</linearGradient>
</defs>
</svg>
