<svg width="32" height="32" viewBox="0 0 32 32" fill="none" xmlns="http://www.w3.org/2000/svg">
<rect width="32" height="32" fill="url(#paint0_linear_2515_51899)"/>
<path d="M24.305 14.979C24.9767 14.979 25.2572 14.1688 24.7115 13.7953L16.4087 8.12552C16.2901 8.04397 16.1469 8 15.9999 8C15.853 8 15.7098 8.04397 15.5912 8.12552L7.28838 13.7953C6.74269 14.1667 7.02314 14.979 7.69711 14.979H9.04287V22.6122H7.47753C7.38187 22.6122 7.3036 22.6856 7.3036 22.7754V23.8367C7.3036 23.9265 7.38187 24 7.47753 24H24.5224C24.618 24 24.6963 23.9265 24.6963 23.8367V22.7754C24.6963 22.6856 24.618 22.6122 24.5224 22.6122H22.957V14.979H24.305ZM13.1519 22.6122H10.6082V14.979H13.1519V22.6122ZM17.2609 22.6122H14.7172V14.979H17.2609V22.6122ZM21.3917 22.6122H18.8263V14.979H21.3917V22.6122Z" fill="white"/>
<defs>
<linearGradient id="paint0_linear_2515_51899" x1="16" y1="0" x2="16" y2="32" gradientUnits="userSpaceOnUse">
<stop stop-color="#43C285"/>
<stop offset="1" stop-color="#3DA141"/>
</linearGradient>
</defs>
</svg>
